%TF.GenerationSoftware,KiCad,Pcbnew,(5.99.0-12974-ge12f9a194d)*%
%TF.CreationDate,2021-11-26T19:34:31-08:00*%
%TF.ProjectId,LED_Addrs,4c45445f-4164-4647-9273-2e6b69636164,rev?*%
%TF.SameCoordinates,Original*%
%TF.FileFunction,Plated,1,4,PTH,Mixed*%
%TF.FilePolarity,Positive*%
%FSLAX46Y46*%
G04 Gerber Fmt 4.6, Leading zero omitted, Abs format (unit mm)*
G04 Created by KiCad (PCBNEW (5.99.0-12974-ge12f9a194d)) date 2021-11-26 19:34:31*
%MOMM*%
%LPD*%
G01*
G04 APERTURE LIST*
%TA.AperFunction,ViaDrill*%
%ADD10C,0.200000*%
%TD*%
%TA.AperFunction,ComponentDrill*%
%ADD11C,0.200000*%
%TD*%
%TA.AperFunction,ViaDrill*%
%ADD12C,0.350000*%
%TD*%
G04 aperture for slot hole*
%TA.AperFunction,ComponentDrill*%
%ADD13O,0.600000X1.700000*%
%TD*%
G04 aperture for slot hole*
%TA.AperFunction,ComponentDrill*%
%ADD14O,0.600000X1.200000*%
%TD*%
%TA.AperFunction,ComponentDrill*%
%ADD15C,1.100000*%
%TD*%
G04 APERTURE END LIST*
D10*
X12500000Y-27100000D03*
X12500000Y-27900000D03*
X12500000Y-28700000D03*
X12500000Y-29500000D03*
X12500000Y-30300000D03*
X12800000Y-27500000D03*
X12800000Y-28300000D03*
X12800000Y-29100000D03*
X12800000Y-29900000D03*
X13100000Y-27100000D03*
X13100000Y-27900000D03*
X13100000Y-28700000D03*
X13100000Y-29500000D03*
X13100000Y-30300000D03*
X13400000Y-27500000D03*
X13400000Y-28300000D03*
X13400000Y-29100000D03*
X13400000Y-29900000D03*
X13700000Y-27100000D03*
X13700000Y-27900000D03*
X13700000Y-28700000D03*
X13700000Y-29500000D03*
X13700000Y-30300000D03*
X13900000Y-44800000D03*
X13900000Y-45600000D03*
X13900000Y-46400000D03*
X13900000Y-47200000D03*
X14000000Y-13500000D03*
X14000000Y-27500000D03*
X14000000Y-28300000D03*
X14000000Y-29100000D03*
X14000000Y-29900000D03*
X14050000Y-37562500D03*
X14134600Y-39200000D03*
X14200000Y-45200000D03*
X14200000Y-46000000D03*
X14200000Y-46800000D03*
X14300000Y-27100000D03*
X14300000Y-27900000D03*
X14300000Y-28700000D03*
X14300000Y-29500000D03*
X14300000Y-30300000D03*
X14500000Y-44800000D03*
X14500000Y-45600000D03*
X14500000Y-46400000D03*
X14500000Y-47200000D03*
X14600000Y-27500000D03*
X14600000Y-28300000D03*
X14600000Y-29100000D03*
X14600000Y-29900000D03*
X14800000Y-45200000D03*
X14800000Y-46000000D03*
X14800000Y-46800000D03*
X14900000Y-27100000D03*
X14900000Y-27900000D03*
X14900000Y-28700000D03*
X14900000Y-29500000D03*
X14900000Y-30300000D03*
X15000000Y-39437500D03*
X15100000Y-44800000D03*
X15100000Y-45600000D03*
X15100000Y-46400000D03*
X15100000Y-47200000D03*
X15200000Y-27500000D03*
X15200000Y-28300000D03*
X15200000Y-29100000D03*
X15200000Y-29900000D03*
X15275000Y-42085000D03*
X15400000Y-45200000D03*
X15400000Y-46000000D03*
X15400000Y-46800000D03*
X15500000Y-13500000D03*
X15559600Y-41601975D03*
X15700000Y-44800000D03*
X15700000Y-45600000D03*
X15700000Y-46400000D03*
X15700000Y-47200000D03*
X15900000Y-38700000D03*
X16000000Y-45200000D03*
X16000000Y-46000000D03*
X16000000Y-46800000D03*
X17000000Y-13500000D03*
X17400000Y-34400000D03*
X17400000Y-35200000D03*
X17400000Y-36000000D03*
X17500000Y-44800000D03*
X17700000Y-34800000D03*
X17700000Y-35600000D03*
X18000000Y-34400000D03*
X18000000Y-35200000D03*
X18000000Y-36000000D03*
X18100000Y-19000000D03*
X18300000Y-34000000D03*
X18300000Y-34800000D03*
X18300000Y-35600000D03*
X18300000Y-36400000D03*
X18390000Y-17780000D03*
X18500000Y-13500000D03*
X18600000Y-33600000D03*
X18600000Y-34400000D03*
X18600000Y-35200000D03*
X18600000Y-36000000D03*
X18900000Y-34000000D03*
X18900000Y-34800000D03*
X18900000Y-35600000D03*
X18900000Y-36400000D03*
X18900000Y-40818400D03*
X18925000Y-38935000D03*
X18925000Y-40100000D03*
X19000000Y-18100000D03*
X19000000Y-24900000D03*
X19000000Y-44000000D03*
X19054912Y-28233912D03*
X19100000Y-25700000D03*
X19200000Y-33600000D03*
X19200000Y-34400000D03*
X19200000Y-35200000D03*
X19200000Y-36000000D03*
X19500000Y-33200000D03*
X19500000Y-34000000D03*
X19500000Y-34800000D03*
X19500000Y-35600000D03*
X19500000Y-36400000D03*
X19525634Y-28704634D03*
X19600000Y-49300000D03*
X19600000Y-50100000D03*
X19600000Y-50900000D03*
X19600000Y-51700000D03*
X19600000Y-52500000D03*
X19800000Y-33600000D03*
X19800000Y-34400000D03*
X19800000Y-35200000D03*
X19800000Y-36000000D03*
X19900000Y-46500000D03*
X19900000Y-49700000D03*
X19900000Y-50500000D03*
X19900000Y-51300000D03*
X19900000Y-52100000D03*
X20100000Y-34000000D03*
X20100000Y-34800000D03*
X20100000Y-35600000D03*
X20200000Y-49300000D03*
X20200000Y-50100000D03*
X20200000Y-50900000D03*
X20200000Y-51700000D03*
X20200000Y-52500000D03*
X20307636Y-40707636D03*
X20400000Y-34400000D03*
X20400000Y-35200000D03*
X20400000Y-36000000D03*
X20500000Y-49700000D03*
X20500000Y-50500000D03*
X20500000Y-51300000D03*
X20500000Y-52100000D03*
X20600000Y-19300000D03*
X20700000Y-34800000D03*
X20700000Y-35600000D03*
X20800000Y-49300000D03*
X20800000Y-50100000D03*
X20800000Y-50900000D03*
X20800000Y-51700000D03*
X20800000Y-52500000D03*
X21000000Y-34400000D03*
X21000000Y-35200000D03*
X21000000Y-36000000D03*
X21000000Y-40700000D03*
X21100000Y-49700000D03*
X21100000Y-50500000D03*
X21100000Y-51300000D03*
X21100000Y-52100000D03*
X21400000Y-49300000D03*
X21400000Y-50100000D03*
X21400000Y-50900000D03*
X21400000Y-51700000D03*
X21400000Y-52500000D03*
X21500000Y-22200000D03*
X21800000Y-30000000D03*
X22600000Y-45400000D03*
X22600000Y-46200000D03*
X22600000Y-47000000D03*
X22600000Y-47800000D03*
X22600000Y-48600000D03*
X22600000Y-49400000D03*
X22800000Y-24300000D03*
X22900000Y-45800000D03*
X22900000Y-46600000D03*
X22900000Y-47400000D03*
X22900000Y-48200000D03*
X22900000Y-49000000D03*
X23020000Y-20860000D03*
X23200000Y-45400000D03*
X23200000Y-46200000D03*
X23200000Y-47000000D03*
X23200000Y-47800000D03*
X23200000Y-48600000D03*
X23200000Y-49400000D03*
X23300000Y-30200000D03*
X23500000Y-45800000D03*
X23500000Y-46600000D03*
X23500000Y-47400000D03*
X23500000Y-48200000D03*
X23500000Y-49000000D03*
X23600000Y-25400000D03*
X23700000Y-29100000D03*
X23800000Y-45400000D03*
X23800000Y-46200000D03*
X23800000Y-47000000D03*
X23800000Y-47800000D03*
X23800000Y-48600000D03*
X23800000Y-49400000D03*
X23875000Y-36395000D03*
X24100000Y-45800000D03*
X24100000Y-46600000D03*
X24100000Y-47400000D03*
X24100000Y-48200000D03*
X24100000Y-49000000D03*
X24200000Y-30500000D03*
X24400000Y-45400000D03*
X24400000Y-46200000D03*
X24400000Y-47000000D03*
X24400000Y-47800000D03*
X24400000Y-48600000D03*
X24400000Y-49400000D03*
X24700000Y-45800000D03*
X24700000Y-46600000D03*
X24700000Y-47400000D03*
X24700000Y-48200000D03*
X24700000Y-49000000D03*
X25000000Y-45400000D03*
X25000000Y-46200000D03*
X25000000Y-47000000D03*
X25000000Y-47800000D03*
X25000000Y-48600000D03*
X25000000Y-49400000D03*
X25100000Y-19300000D03*
X25300000Y-45800000D03*
X25300000Y-46600000D03*
X25300000Y-47400000D03*
X25300000Y-48200000D03*
X25300000Y-49000000D03*
X25600000Y-45400000D03*
X25600000Y-46200000D03*
X25600000Y-47000000D03*
X25600000Y-47800000D03*
X25600000Y-48600000D03*
X25600000Y-49400000D03*
X25700000Y-14100000D03*
X25700000Y-15400000D03*
X25800000Y-18900000D03*
X25900000Y-53600000D03*
X26200000Y-19600000D03*
X26800000Y-37500000D03*
X26800000Y-38300000D03*
X26800000Y-39100000D03*
X27100000Y-37100000D03*
X27100000Y-37900000D03*
X27100000Y-38700000D03*
X27100000Y-58100000D03*
X27400000Y-36700000D03*
X27400000Y-37500000D03*
X27400000Y-38300000D03*
X27400000Y-39100000D03*
X27700000Y-37100000D03*
X27700000Y-37900000D03*
X27700000Y-38700000D03*
X28000000Y-36700000D03*
X28000000Y-37500000D03*
X28000000Y-38300000D03*
X28000000Y-39100000D03*
X28300000Y-37100000D03*
X28300000Y-37900000D03*
X28300000Y-38700000D03*
X28600000Y-36700000D03*
X28600000Y-37500000D03*
X28600000Y-38300000D03*
X28600000Y-39100000D03*
X28900000Y-16000000D03*
X28900000Y-23200000D03*
X28900000Y-37100000D03*
X28900000Y-37900000D03*
X28900000Y-38700000D03*
X29429628Y-30746471D03*
X29600000Y-28467150D03*
X29600000Y-29800000D03*
X29663402Y-17800000D03*
X30195000Y-41200000D03*
X30195000Y-48400000D03*
X30300000Y-27000000D03*
X30611597Y-20500000D03*
X30635400Y-51600000D03*
X30635400Y-52600000D03*
X31100000Y-20500000D03*
X31465000Y-41200000D03*
X31465000Y-48400000D03*
X31700000Y-53500000D03*
X32100000Y-29000000D03*
X32300000Y-45800000D03*
X32500000Y-23200000D03*
X32500000Y-26000000D03*
X32700000Y-46900000D03*
X32735000Y-41200000D03*
X32814639Y-29832850D03*
X33300000Y-28300000D03*
X33400000Y-25300000D03*
X33600000Y-23600000D03*
X33900000Y-28200000D03*
X34100000Y-34200000D03*
X34100000Y-34700000D03*
X35750000Y-17250000D03*
X35750000Y-20250000D03*
X35750000Y-23250000D03*
X35750000Y-26250000D03*
X35750000Y-29250000D03*
X35750000Y-32250000D03*
X35750000Y-35250000D03*
X35750000Y-38250000D03*
X35750000Y-41250000D03*
X35750000Y-44250000D03*
X35750000Y-47250000D03*
X35750000Y-50250000D03*
X35750000Y-53250000D03*
X35750000Y-56250000D03*
X35750000Y-59250000D03*
X37000000Y-17239830D03*
X37000000Y-20239830D03*
X37000000Y-23239830D03*
X37000000Y-26239830D03*
X37000000Y-29239830D03*
X37000000Y-32239830D03*
X37000000Y-35239830D03*
X37000000Y-38239830D03*
X37000000Y-41239830D03*
X37000000Y-44239830D03*
X37000000Y-47239830D03*
X37000000Y-50239830D03*
X37000000Y-53239830D03*
X37000000Y-56239830D03*
X37000000Y-59239830D03*
X38200000Y-16000000D03*
X38200000Y-19000000D03*
X38200000Y-22000000D03*
X38200000Y-25000000D03*
X38200000Y-28000000D03*
X38200000Y-31000000D03*
X38200000Y-34000000D03*
X38200000Y-37000000D03*
X38200000Y-40000000D03*
X38200000Y-43000000D03*
X38200000Y-46000000D03*
X38200000Y-49000000D03*
X38200000Y-52000000D03*
X38200000Y-55000000D03*
X38200000Y-58000000D03*
X38750000Y-17250000D03*
X38750000Y-20250000D03*
X38750000Y-23250000D03*
X38750000Y-26250000D03*
X38750000Y-29250000D03*
X38750000Y-32250000D03*
X38750000Y-35250000D03*
X38750000Y-38250000D03*
X38750000Y-41250000D03*
X38750000Y-44250000D03*
X38750000Y-47250000D03*
X38750000Y-50250000D03*
X38750000Y-53250000D03*
X38750000Y-56250000D03*
X38750000Y-59250000D03*
X40000000Y-17239830D03*
X40000000Y-20239830D03*
X40000000Y-23239830D03*
X40000000Y-26239830D03*
X40000000Y-29239830D03*
X40000000Y-32239830D03*
X40000000Y-35239830D03*
X40000000Y-38239830D03*
X40000000Y-41239830D03*
X40000000Y-44239830D03*
X40000000Y-47239830D03*
X40000000Y-50239830D03*
X40000000Y-53239830D03*
X40000000Y-56239830D03*
X40000000Y-59239830D03*
X41200000Y-16000000D03*
X41200000Y-19000000D03*
X41200000Y-22000000D03*
X41200000Y-25000000D03*
X41200000Y-28000000D03*
X41200000Y-31000000D03*
X41200000Y-34000000D03*
X41200000Y-37000000D03*
X41200000Y-40000000D03*
X41200000Y-43000000D03*
X41200000Y-46000000D03*
X41200000Y-49000000D03*
X41200000Y-52000000D03*
X41200000Y-55000000D03*
X41200000Y-58000000D03*
X41750000Y-17250000D03*
X41750000Y-20250000D03*
X41750000Y-23250000D03*
X41750000Y-26250000D03*
X41750000Y-29250000D03*
X41750000Y-32250000D03*
X41750000Y-35250000D03*
X41750000Y-38250000D03*
X41750000Y-41250000D03*
X41750000Y-44250000D03*
X41750000Y-47250000D03*
X41750000Y-50250000D03*
X41750000Y-53250000D03*
X41750000Y-56250000D03*
X41750000Y-59250000D03*
X43000000Y-17239830D03*
X43000000Y-20239830D03*
X43000000Y-23239830D03*
X43000000Y-26239830D03*
X43000000Y-29239830D03*
X43000000Y-32239830D03*
X43000000Y-35239830D03*
X43000000Y-38239830D03*
X43000000Y-41239830D03*
X43000000Y-44239830D03*
X43000000Y-47239830D03*
X43000000Y-50239830D03*
X43000000Y-53239830D03*
X43000000Y-56239830D03*
X43000000Y-59239830D03*
X44200000Y-16000000D03*
X44200000Y-19000000D03*
X44200000Y-22000000D03*
X44200000Y-25000000D03*
X44200000Y-28000000D03*
X44200000Y-31000000D03*
X44200000Y-34000000D03*
X44200000Y-37000000D03*
X44200000Y-40000000D03*
X44200000Y-43000000D03*
X44200000Y-46000000D03*
X44200000Y-49000000D03*
X44200000Y-52000000D03*
X44200000Y-55000000D03*
X44200000Y-58000000D03*
X44750000Y-17250000D03*
X44750000Y-20250000D03*
X44750000Y-23250000D03*
X44750000Y-26250000D03*
X44750000Y-29250000D03*
X44750000Y-32250000D03*
X44750000Y-35250000D03*
X44750000Y-38250000D03*
X44750000Y-41250000D03*
X44750000Y-44250000D03*
X44750000Y-47250000D03*
X44750000Y-50250000D03*
X44750000Y-53250000D03*
X44750000Y-56250000D03*
X44750000Y-59250000D03*
X46000000Y-17239830D03*
X46000000Y-20239830D03*
X46000000Y-23239830D03*
X46000000Y-26239830D03*
X46000000Y-29239830D03*
X46000000Y-32239830D03*
X46000000Y-35239830D03*
X46000000Y-38239830D03*
X46000000Y-41239830D03*
X46000000Y-44239830D03*
X46000000Y-47239830D03*
X46000000Y-50239830D03*
X46000000Y-53239830D03*
X46000000Y-56239830D03*
X46000000Y-59239830D03*
X47200000Y-16000000D03*
X47200000Y-19000000D03*
X47200000Y-22000000D03*
X47200000Y-25000000D03*
X47200000Y-28000000D03*
X47200000Y-31000000D03*
X47200000Y-34000000D03*
X47200000Y-37000000D03*
X47200000Y-40000000D03*
X47200000Y-43000000D03*
X47200000Y-46000000D03*
X47200000Y-49000000D03*
X47200000Y-52000000D03*
X47200000Y-55000000D03*
X47200000Y-58000000D03*
X47750000Y-17250000D03*
X47750000Y-20250000D03*
X47750000Y-23250000D03*
X47750000Y-26250000D03*
X47750000Y-29250000D03*
X47750000Y-32250000D03*
X47750000Y-35250000D03*
X47750000Y-38250000D03*
X47750000Y-41250000D03*
X47750000Y-44250000D03*
X47750000Y-47250000D03*
X47750000Y-50250000D03*
X47750000Y-53250000D03*
X47750000Y-56250000D03*
X47750000Y-59250000D03*
X49000000Y-17239830D03*
X49000000Y-20239830D03*
X49000000Y-23239830D03*
X49000000Y-26239830D03*
X49000000Y-29239830D03*
X49000000Y-32239830D03*
X49000000Y-35239830D03*
X49000000Y-38239830D03*
X49000000Y-41239830D03*
X49000000Y-44239830D03*
X49000000Y-47239830D03*
X49000000Y-50239830D03*
X49000000Y-53239830D03*
X49000000Y-56239830D03*
X49000000Y-59239830D03*
X50200000Y-16000000D03*
X50200000Y-19000000D03*
X50200000Y-22000000D03*
X50200000Y-25000000D03*
X50200000Y-28000000D03*
X50200000Y-31000000D03*
X50200000Y-34000000D03*
X50200000Y-37000000D03*
X50200000Y-40000000D03*
X50200000Y-43000000D03*
X50200000Y-46000000D03*
X50200000Y-49000000D03*
X50200000Y-52000000D03*
X50200000Y-55000000D03*
X50200000Y-58000000D03*
X50750000Y-17250000D03*
X50750000Y-20250000D03*
X50750000Y-23250000D03*
X50750000Y-26250000D03*
X50750000Y-29250000D03*
X50750000Y-32250000D03*
X50750000Y-35250000D03*
X50750000Y-38250000D03*
X50750000Y-41250000D03*
X50750000Y-44250000D03*
X50750000Y-47250000D03*
X50750000Y-50250000D03*
X50750000Y-53250000D03*
X50750000Y-56250000D03*
X50750000Y-59250000D03*
X52000000Y-17239830D03*
X52000000Y-20239830D03*
X52000000Y-23239830D03*
X52000000Y-26239830D03*
X52000000Y-29239830D03*
X52000000Y-32239830D03*
X52000000Y-35239830D03*
X52000000Y-38239830D03*
X52000000Y-41239830D03*
X52000000Y-44239830D03*
X52000000Y-47239830D03*
X52000000Y-50239830D03*
X52000000Y-53239830D03*
X52000000Y-56239830D03*
X52000000Y-59239830D03*
X53200000Y-16000000D03*
X53200000Y-19000000D03*
X53200000Y-22000000D03*
X53200000Y-25000000D03*
X53200000Y-28000000D03*
X53200000Y-31000000D03*
X53200000Y-34000000D03*
X53200000Y-37000000D03*
X53200000Y-40000000D03*
X53200000Y-43000000D03*
X53200000Y-46000000D03*
X53200000Y-49000000D03*
X53200000Y-52000000D03*
X53200000Y-55000000D03*
X53200000Y-58000000D03*
X53750000Y-17250000D03*
X53750000Y-20250000D03*
X53750000Y-23250000D03*
X53750000Y-26250000D03*
X53750000Y-29250000D03*
X53750000Y-32250000D03*
X53750000Y-35250000D03*
X53750000Y-38250000D03*
X53750000Y-41250000D03*
X53750000Y-44250000D03*
X53750000Y-47250000D03*
X53750000Y-50250000D03*
X53750000Y-53250000D03*
X53750000Y-56250000D03*
X53750000Y-59250000D03*
X55000000Y-17239830D03*
X55000000Y-20239830D03*
X55000000Y-23239830D03*
X55000000Y-26239830D03*
X55000000Y-29239830D03*
X55000000Y-32239830D03*
X55000000Y-35239830D03*
X55000000Y-38239830D03*
X55000000Y-41239830D03*
X55000000Y-44239830D03*
X55000000Y-47239830D03*
X55000000Y-50239830D03*
X55000000Y-53239830D03*
X55000000Y-56239830D03*
X55000000Y-59239830D03*
X56200000Y-16000000D03*
X56200000Y-19000000D03*
X56200000Y-22000000D03*
X56200000Y-25000000D03*
X56200000Y-28000000D03*
X56200000Y-31000000D03*
X56200000Y-34000000D03*
X56200000Y-37000000D03*
X56200000Y-40000000D03*
X56200000Y-43000000D03*
X56200000Y-46000000D03*
X56200000Y-49000000D03*
X56200000Y-52000000D03*
X56200000Y-55000000D03*
X56200000Y-58000000D03*
X56750000Y-17250000D03*
X56750000Y-20250000D03*
X56750000Y-23250000D03*
X56750000Y-26250000D03*
X56750000Y-29250000D03*
X56750000Y-32250000D03*
X56750000Y-35250000D03*
X56750000Y-38250000D03*
X56750000Y-41250000D03*
X56750000Y-44250000D03*
X56750000Y-47250000D03*
X56750000Y-50250000D03*
X56750000Y-53250000D03*
X56750000Y-56250000D03*
X56750000Y-59250000D03*
X58000000Y-17239830D03*
X58000000Y-20239830D03*
X58000000Y-23239830D03*
X58000000Y-26239830D03*
X58000000Y-29239830D03*
X58000000Y-32239830D03*
X58000000Y-35239830D03*
X58000000Y-38239830D03*
X58000000Y-41239830D03*
X58000000Y-44239830D03*
X58000000Y-47239830D03*
X58000000Y-50239830D03*
X58000000Y-53239830D03*
X58000000Y-56239830D03*
X58000000Y-59239830D03*
X59200000Y-16000000D03*
X59200000Y-19000000D03*
X59200000Y-22000000D03*
X59200000Y-25000000D03*
X59200000Y-28000000D03*
X59200000Y-31000000D03*
X59200000Y-34000000D03*
X59200000Y-37000000D03*
X59200000Y-40000000D03*
X59200000Y-43000000D03*
X59200000Y-46000000D03*
X59200000Y-49000000D03*
X59200000Y-52000000D03*
X59200000Y-55000000D03*
X59200000Y-58000000D03*
X59750000Y-17250000D03*
X59750000Y-20250000D03*
X59750000Y-23250000D03*
X59750000Y-26250000D03*
X59750000Y-29250000D03*
X59750000Y-32250000D03*
X59750000Y-35250000D03*
X59750000Y-38250000D03*
X59750000Y-41250000D03*
X59750000Y-44250000D03*
X59750000Y-47250000D03*
X59750000Y-50250000D03*
X59750000Y-53250000D03*
X59750000Y-56250000D03*
X59750000Y-59250000D03*
X61000000Y-17239830D03*
X61000000Y-20239830D03*
X61000000Y-23239830D03*
X61000000Y-26239830D03*
X61000000Y-29239830D03*
X61000000Y-32239830D03*
X61000000Y-35239830D03*
X61000000Y-38239830D03*
X61000000Y-41239830D03*
X61000000Y-44239830D03*
X61000000Y-47239830D03*
X61000000Y-50239830D03*
X61000000Y-53239830D03*
X61000000Y-56239830D03*
X61000000Y-59239830D03*
X62200000Y-16000000D03*
X62200000Y-19000000D03*
X62200000Y-22000000D03*
X62200000Y-25000000D03*
X62200000Y-28000000D03*
X62200000Y-31000000D03*
X62200000Y-34000000D03*
X62200000Y-37000000D03*
X62200000Y-40000000D03*
X62200000Y-43000000D03*
X62200000Y-46000000D03*
X62200000Y-49000000D03*
X62200000Y-52000000D03*
X62200000Y-55000000D03*
X62200000Y-58000000D03*
X62750000Y-17250000D03*
X62750000Y-20250000D03*
X62750000Y-23250000D03*
X62750000Y-26250000D03*
X62750000Y-29250000D03*
X62750000Y-32250000D03*
X62750000Y-35250000D03*
X62750000Y-38250000D03*
X62750000Y-41250000D03*
X62750000Y-44250000D03*
X62750000Y-47250000D03*
X62750000Y-50250000D03*
X62750000Y-53250000D03*
X62750000Y-56250000D03*
X62750000Y-59250000D03*
X64000000Y-17239830D03*
X64000000Y-20239830D03*
X64000000Y-23239830D03*
X64000000Y-26239830D03*
X64000000Y-29239830D03*
X64000000Y-32239830D03*
X64000000Y-35239830D03*
X64000000Y-38239830D03*
X64000000Y-41239830D03*
X64000000Y-44239830D03*
X64000000Y-47239830D03*
X64000000Y-50239830D03*
X64000000Y-53239830D03*
X64000000Y-56239830D03*
X64000000Y-59239830D03*
X65200000Y-16000000D03*
X65200000Y-19000000D03*
X65200000Y-22000000D03*
X65200000Y-25000000D03*
X65200000Y-28000000D03*
X65200000Y-31000000D03*
X65200000Y-34000000D03*
X65200000Y-37000000D03*
X65200000Y-40000000D03*
X65200000Y-43000000D03*
X65200000Y-46000000D03*
X65200000Y-49000000D03*
X65200000Y-52000000D03*
X65200000Y-55000000D03*
X65200000Y-58000000D03*
X65750000Y-17250000D03*
X65750000Y-20250000D03*
X65750000Y-23250000D03*
X65750000Y-26250000D03*
X65750000Y-29250000D03*
X65750000Y-32250000D03*
X65750000Y-35250000D03*
X65750000Y-38250000D03*
X65750000Y-41250000D03*
X65750000Y-44250000D03*
X65750000Y-47250000D03*
X65750000Y-50250000D03*
X65750000Y-53250000D03*
X65750000Y-56250000D03*
X65750000Y-59250000D03*
X67000000Y-17239830D03*
X67000000Y-20239830D03*
X67000000Y-23239830D03*
X67000000Y-26239830D03*
X67000000Y-29239830D03*
X67000000Y-32239830D03*
X67000000Y-35239830D03*
X67000000Y-38239830D03*
X67000000Y-41239830D03*
X67000000Y-44239830D03*
X67000000Y-47239830D03*
X67000000Y-50239830D03*
X67000000Y-53239830D03*
X67000000Y-56239830D03*
X67000000Y-59239830D03*
X68200000Y-16000000D03*
X68200000Y-19000000D03*
X68200000Y-22000000D03*
X68200000Y-25000000D03*
X68200000Y-28000000D03*
X68200000Y-31000000D03*
X68200000Y-34000000D03*
X68200000Y-37000000D03*
X68200000Y-40000000D03*
X68200000Y-43000000D03*
X68200000Y-46000000D03*
X68200000Y-49000000D03*
X68200000Y-52000000D03*
X68200000Y-55000000D03*
X68200000Y-58000000D03*
X68750000Y-17250000D03*
X68750000Y-20250000D03*
X68750000Y-23250000D03*
X68750000Y-26250000D03*
X68750000Y-29250000D03*
X68750000Y-32250000D03*
X68750000Y-35250000D03*
X68750000Y-38250000D03*
X68750000Y-41250000D03*
X68750000Y-44250000D03*
X68750000Y-47250000D03*
X68750000Y-50250000D03*
X68750000Y-53250000D03*
X68750000Y-56250000D03*
X68750000Y-59250000D03*
X70000000Y-17239830D03*
X70000000Y-20239830D03*
X70000000Y-23239830D03*
X70000000Y-26239830D03*
X70000000Y-29239830D03*
X70000000Y-32239830D03*
X70000000Y-35239830D03*
X70000000Y-38239830D03*
X70000000Y-41239830D03*
X70000000Y-44239830D03*
X70000000Y-47239830D03*
X70000000Y-50239830D03*
X70000000Y-53239830D03*
X70000000Y-56239830D03*
X70000000Y-59239830D03*
X71200000Y-16000000D03*
X71200000Y-19000000D03*
X71200000Y-22000000D03*
X71200000Y-25000000D03*
X71200000Y-28000000D03*
X71200000Y-31000000D03*
X71200000Y-34000000D03*
X71200000Y-37000000D03*
X71200000Y-40000000D03*
X71200000Y-43000000D03*
X71200000Y-46000000D03*
X71200000Y-49000000D03*
X71200000Y-52000000D03*
X71200000Y-55000000D03*
X71200000Y-58000000D03*
X71750000Y-17250000D03*
X71750000Y-20250000D03*
X71750000Y-23250000D03*
X71750000Y-26250000D03*
X71750000Y-29250000D03*
X71750000Y-32250000D03*
X71750000Y-35250000D03*
X71750000Y-38250000D03*
X71750000Y-41250000D03*
X71750000Y-44250000D03*
X71750000Y-47250000D03*
X71750000Y-50250000D03*
X71750000Y-53250000D03*
X71750000Y-56250000D03*
X71750000Y-59250000D03*
X73000000Y-17239830D03*
X73000000Y-20239830D03*
X73000000Y-23239830D03*
X73000000Y-26239830D03*
X73000000Y-29239830D03*
X73000000Y-32239830D03*
X73000000Y-35239830D03*
X73000000Y-38239830D03*
X73000000Y-41239830D03*
X73000000Y-44239830D03*
X73000000Y-47239830D03*
X73000000Y-50239830D03*
X73000000Y-53239830D03*
X73000000Y-56239830D03*
X73000000Y-59239830D03*
X74200000Y-16000000D03*
X74200000Y-19000000D03*
X74200000Y-22000000D03*
X74200000Y-25000000D03*
X74200000Y-28000000D03*
X74200000Y-31000000D03*
X74200000Y-34000000D03*
X74200000Y-37000000D03*
X74200000Y-40000000D03*
X74200000Y-43000000D03*
X74200000Y-46000000D03*
X74200000Y-49000000D03*
X74200000Y-52000000D03*
X74200000Y-55000000D03*
X74200000Y-58000000D03*
X74750000Y-17250000D03*
X74750000Y-20250000D03*
X74750000Y-23250000D03*
X74750000Y-26250000D03*
X74750000Y-29250000D03*
X74750000Y-32250000D03*
X74750000Y-35250000D03*
X74750000Y-38250000D03*
X74750000Y-41250000D03*
X74750000Y-44250000D03*
X74750000Y-47250000D03*
X74750000Y-50250000D03*
X74750000Y-53250000D03*
X74750000Y-56250000D03*
X74750000Y-59250000D03*
X76000000Y-17239830D03*
X76000000Y-20239830D03*
X76000000Y-23239830D03*
X76000000Y-26239830D03*
X76000000Y-29239830D03*
X76000000Y-32239830D03*
X76000000Y-35239830D03*
X76000000Y-38239830D03*
X76000000Y-41239830D03*
X76000000Y-44239830D03*
X76000000Y-47239830D03*
X76000000Y-50239830D03*
X76000000Y-53239830D03*
X76000000Y-56239830D03*
X76000000Y-59239830D03*
X77200000Y-16000000D03*
X77200000Y-19000000D03*
X77200000Y-22000000D03*
X77200000Y-25000000D03*
X77200000Y-28000000D03*
X77200000Y-31000000D03*
X77200000Y-34000000D03*
X77200000Y-37000000D03*
X77200000Y-40000000D03*
X77200000Y-43000000D03*
X77200000Y-46000000D03*
X77200000Y-49000000D03*
X77200000Y-52000000D03*
X77200000Y-55000000D03*
X77200000Y-58000000D03*
X77750000Y-17250000D03*
X77750000Y-20250000D03*
X77750000Y-23250000D03*
X77750000Y-26250000D03*
X77750000Y-29250000D03*
X77750000Y-32250000D03*
X77750000Y-35250000D03*
X77750000Y-38250000D03*
X77750000Y-41250000D03*
X77750000Y-44250000D03*
X77750000Y-47250000D03*
X77750000Y-50250000D03*
X77750000Y-53250000D03*
X77750000Y-56250000D03*
X77750000Y-59250000D03*
X79000000Y-17239830D03*
X79000000Y-20239830D03*
X79000000Y-23239830D03*
X79000000Y-26239830D03*
X79000000Y-29239830D03*
X79000000Y-32239830D03*
X79000000Y-35239830D03*
X79000000Y-38239830D03*
X79000000Y-41239830D03*
X79000000Y-44239830D03*
X79000000Y-47239830D03*
X79000000Y-50239830D03*
X79000000Y-53239830D03*
X79000000Y-56239830D03*
X79000000Y-59239830D03*
X80200000Y-16000000D03*
X80200000Y-19000000D03*
X80200000Y-22000000D03*
X80200000Y-25000000D03*
X80200000Y-28000000D03*
X80200000Y-31000000D03*
X80200000Y-34000000D03*
X80200000Y-37000000D03*
X80200000Y-40000000D03*
X80200000Y-43000000D03*
X80200000Y-46000000D03*
X80200000Y-49000000D03*
X80200000Y-52000000D03*
X80200000Y-55000000D03*
X80200000Y-58000000D03*
X80750000Y-17250000D03*
X80750000Y-20250000D03*
X80750000Y-23250000D03*
X80750000Y-26250000D03*
X80750000Y-29250000D03*
X80750000Y-32250000D03*
X80750000Y-35250000D03*
X80750000Y-38250000D03*
X80750000Y-41250000D03*
X80750000Y-44250000D03*
X80750000Y-47250000D03*
X80750000Y-50250000D03*
X80750000Y-53250000D03*
X80750000Y-56250000D03*
X80750000Y-59250000D03*
X82000000Y-17239830D03*
X82000000Y-20239830D03*
X82000000Y-23239830D03*
X82000000Y-26239830D03*
X82000000Y-29239830D03*
X82000000Y-32239830D03*
X82000000Y-35239830D03*
X82000000Y-38239830D03*
X82000000Y-41239830D03*
X82000000Y-44239830D03*
X82000000Y-47239830D03*
X82000000Y-50239830D03*
X82000000Y-53239830D03*
X82000000Y-56239830D03*
X82000000Y-59239830D03*
X83200000Y-16000000D03*
X83200000Y-19000000D03*
X83200000Y-22000000D03*
X83200000Y-25000000D03*
X83200000Y-28000000D03*
X83200000Y-31000000D03*
X83200000Y-34000000D03*
X83200000Y-37000000D03*
X83200000Y-40000000D03*
X83200000Y-43000000D03*
X83200000Y-46000000D03*
X83200000Y-49000000D03*
X83200000Y-52000000D03*
X83200000Y-55000000D03*
X83200000Y-58000000D03*
X83750000Y-17250000D03*
X83750000Y-20250000D03*
X83750000Y-23250000D03*
X83750000Y-26250000D03*
X83750000Y-29250000D03*
X83750000Y-32250000D03*
X83750000Y-35250000D03*
X83750000Y-38250000D03*
X83750000Y-41250000D03*
X83750000Y-44250000D03*
X83750000Y-47250000D03*
X83750000Y-50250000D03*
X83750000Y-53250000D03*
X83750000Y-56250000D03*
X83750000Y-59250000D03*
X85000000Y-17239830D03*
X85000000Y-20239830D03*
X85000000Y-23239830D03*
X85000000Y-26239830D03*
X85000000Y-29239830D03*
X85000000Y-32239830D03*
X85000000Y-35239830D03*
X85000000Y-38239830D03*
X85000000Y-41239830D03*
X85000000Y-44239830D03*
X85000000Y-47239830D03*
X85000000Y-50239830D03*
X85000000Y-53239830D03*
X85000000Y-56239830D03*
X85000000Y-59239830D03*
X86200000Y-16000000D03*
X86200000Y-19000000D03*
X86200000Y-22000000D03*
X86200000Y-25000000D03*
X86200000Y-28000000D03*
X86200000Y-31000000D03*
X86200000Y-34000000D03*
X86200000Y-37000000D03*
X86200000Y-40000000D03*
X86200000Y-43000000D03*
X86200000Y-46000000D03*
X86200000Y-49000000D03*
X86200000Y-52000000D03*
X86200000Y-55000000D03*
X86200000Y-58000000D03*
X86750000Y-17250000D03*
X86750000Y-20250000D03*
X86750000Y-23250000D03*
X86750000Y-26250000D03*
X86750000Y-29250000D03*
X86750000Y-32250000D03*
X86750000Y-35250000D03*
X86750000Y-38250000D03*
X86750000Y-41250000D03*
X86750000Y-44250000D03*
X86750000Y-47250000D03*
X86750000Y-50250000D03*
X86750000Y-53250000D03*
X86750000Y-56250000D03*
X86750000Y-59250000D03*
X88000000Y-17239830D03*
X88000000Y-20239830D03*
X88000000Y-23239830D03*
X88000000Y-26239830D03*
X88000000Y-29239830D03*
X88000000Y-32239830D03*
X88000000Y-35239830D03*
X88000000Y-38239830D03*
X88000000Y-41239830D03*
X88000000Y-44239830D03*
X88000000Y-47239830D03*
X88000000Y-50239830D03*
X88000000Y-53239830D03*
X88000000Y-56239830D03*
X88000000Y-59239830D03*
X89200000Y-16000000D03*
X89200000Y-19000000D03*
X89200000Y-22000000D03*
X89200000Y-25000000D03*
X89200000Y-28000000D03*
X89200000Y-31000000D03*
X89200000Y-34000000D03*
X89200000Y-37000000D03*
X89200000Y-40000000D03*
X89200000Y-43000000D03*
X89200000Y-46000000D03*
X89200000Y-49000000D03*
X89200000Y-52000000D03*
X89200000Y-55000000D03*
X89200000Y-58000000D03*
X89750000Y-17250000D03*
X89750000Y-20250000D03*
X89750000Y-23250000D03*
X89750000Y-26250000D03*
X89750000Y-29250000D03*
X89750000Y-32250000D03*
X89750000Y-35250000D03*
X89750000Y-38250000D03*
X89750000Y-41250000D03*
X89750000Y-44250000D03*
X89750000Y-47250000D03*
X89750000Y-50250000D03*
X89750000Y-53250000D03*
X89750000Y-56250000D03*
X89750000Y-59250000D03*
X91000000Y-17239830D03*
X91000000Y-20239830D03*
X91000000Y-23239830D03*
X91000000Y-26239830D03*
X91000000Y-29239830D03*
X91000000Y-32239830D03*
X91000000Y-35239830D03*
X91000000Y-38239830D03*
X91000000Y-41239830D03*
X91000000Y-44239830D03*
X91000000Y-47239830D03*
X91000000Y-50239830D03*
X91000000Y-53239830D03*
X91000000Y-56239830D03*
X91000000Y-59239830D03*
X92200000Y-16000000D03*
X92200000Y-19000000D03*
X92200000Y-22000000D03*
X92200000Y-25000000D03*
X92200000Y-28000000D03*
X92200000Y-31000000D03*
X92200000Y-34000000D03*
X92200000Y-37000000D03*
X92200000Y-40000000D03*
X92200000Y-43000000D03*
X92200000Y-46000000D03*
X92200000Y-49000000D03*
X92200000Y-52000000D03*
X92200000Y-55000000D03*
X92200000Y-58000000D03*
X92750000Y-17250000D03*
X92750000Y-20250000D03*
X92750000Y-23250000D03*
X92750000Y-26250000D03*
X92750000Y-29250000D03*
X92750000Y-32250000D03*
X92750000Y-35250000D03*
X92750000Y-38250000D03*
X92750000Y-41250000D03*
X92750000Y-44250000D03*
X92750000Y-47250000D03*
X92750000Y-50250000D03*
X92750000Y-53250000D03*
X92750000Y-56250000D03*
X92750000Y-59250000D03*
X94000000Y-17239830D03*
X94000000Y-20239830D03*
X94000000Y-23239830D03*
X94000000Y-26239830D03*
X94000000Y-29239830D03*
X94000000Y-32239830D03*
X94000000Y-35239830D03*
X94000000Y-38239830D03*
X94000000Y-41239830D03*
X94000000Y-44239830D03*
X94000000Y-47239830D03*
X94000000Y-50239830D03*
X94000000Y-53239830D03*
X94000000Y-56239830D03*
X94000000Y-59239830D03*
X95200000Y-16000000D03*
X95200000Y-19000000D03*
X95200000Y-22000000D03*
X95200000Y-25000000D03*
X95200000Y-28000000D03*
X95200000Y-31000000D03*
X95200000Y-34000000D03*
X95200000Y-37000000D03*
X95200000Y-40000000D03*
X95200000Y-43000000D03*
X95200000Y-46000000D03*
X95200000Y-49000000D03*
X95200000Y-52000000D03*
X95200000Y-55000000D03*
X95200000Y-58000000D03*
X95750000Y-17250000D03*
X95750000Y-20250000D03*
X95750000Y-23250000D03*
X95750000Y-26250000D03*
X95750000Y-29250000D03*
X95750000Y-32250000D03*
X95750000Y-35250000D03*
X95750000Y-38250000D03*
X95750000Y-41250000D03*
X95750000Y-44250000D03*
X95750000Y-47250000D03*
X95750000Y-50250000D03*
X95750000Y-53250000D03*
X95750000Y-56250000D03*
X95750000Y-59250000D03*
X97000000Y-17239830D03*
X97000000Y-20239830D03*
X97000000Y-23239830D03*
X97000000Y-26239830D03*
X97000000Y-29239830D03*
X97000000Y-32239830D03*
X97000000Y-35239830D03*
X97000000Y-38239830D03*
X97000000Y-41239830D03*
X97000000Y-44239830D03*
X97000000Y-47239830D03*
X97000000Y-50239830D03*
X97000000Y-53239830D03*
X97000000Y-56239830D03*
X97000000Y-59239830D03*
X98200000Y-16000000D03*
X98200000Y-19000000D03*
X98200000Y-22000000D03*
X98200000Y-25000000D03*
X98200000Y-28000000D03*
X98200000Y-31000000D03*
X98200000Y-34000000D03*
X98200000Y-37000000D03*
X98200000Y-40000000D03*
X98200000Y-43000000D03*
X98200000Y-46000000D03*
X98200000Y-49000000D03*
X98200000Y-52000000D03*
X98200000Y-55000000D03*
X98200000Y-58000000D03*
X98750000Y-17250000D03*
X98750000Y-20250000D03*
X98750000Y-23250000D03*
X98750000Y-26250000D03*
X98750000Y-29250000D03*
X98750000Y-32250000D03*
X98750000Y-35250000D03*
X98750000Y-38250000D03*
X98750000Y-41250000D03*
X98750000Y-44250000D03*
X98750000Y-47250000D03*
X98750000Y-50250000D03*
X98750000Y-53250000D03*
X98750000Y-56250000D03*
X98750000Y-59250000D03*
X100000000Y-17239830D03*
X100000000Y-20239830D03*
X100000000Y-23239830D03*
X100000000Y-26239830D03*
X100000000Y-29239830D03*
X100000000Y-32239830D03*
X100000000Y-35239830D03*
X100000000Y-38239830D03*
X100000000Y-41239830D03*
X100000000Y-44239830D03*
X100000000Y-47239830D03*
X100000000Y-50239830D03*
X100000000Y-53239830D03*
X100000000Y-56239830D03*
X100000000Y-59239830D03*
X101200000Y-16000000D03*
X101200000Y-19000000D03*
X101200000Y-22000000D03*
X101200000Y-25000000D03*
X101200000Y-28000000D03*
X101200000Y-31000000D03*
X101200000Y-34000000D03*
X101200000Y-37000000D03*
X101200000Y-40000000D03*
X101200000Y-43000000D03*
X101200000Y-46000000D03*
X101200000Y-49000000D03*
X101200000Y-52000000D03*
X101200000Y-55000000D03*
X101200000Y-58000000D03*
X101750000Y-17250000D03*
X101750000Y-20250000D03*
X101750000Y-23250000D03*
X101750000Y-26250000D03*
X101750000Y-29250000D03*
X101750000Y-32250000D03*
X101750000Y-35250000D03*
X101750000Y-38250000D03*
X101750000Y-41250000D03*
X101750000Y-44250000D03*
X101750000Y-47250000D03*
X101750000Y-50250000D03*
X101750000Y-53250000D03*
X101750000Y-56250000D03*
X101750000Y-59250000D03*
X103000000Y-17239830D03*
X103000000Y-20239830D03*
X103000000Y-23239830D03*
X103000000Y-26239830D03*
X103000000Y-29239830D03*
X103000000Y-32239830D03*
X103000000Y-35239830D03*
X103000000Y-38239830D03*
X103000000Y-41239830D03*
X103000000Y-44239830D03*
X103000000Y-47239830D03*
X103000000Y-50239830D03*
X103000000Y-53239830D03*
X103000000Y-56239830D03*
X103000000Y-59239830D03*
X104200000Y-16000000D03*
X104200000Y-19000000D03*
X104200000Y-22000000D03*
X104200000Y-25000000D03*
X104200000Y-28000000D03*
X104200000Y-31000000D03*
X104200000Y-34000000D03*
X104200000Y-37000000D03*
X104200000Y-40000000D03*
X104200000Y-43000000D03*
X104200000Y-46000000D03*
X104200000Y-49000000D03*
X104200000Y-52000000D03*
X104200000Y-55000000D03*
X104200000Y-58000000D03*
X104750000Y-17250000D03*
X104750000Y-20250000D03*
X104750000Y-23250000D03*
X104750000Y-26250000D03*
X104750000Y-29250000D03*
X104750000Y-32250000D03*
X104750000Y-35250000D03*
X104750000Y-38250000D03*
X104750000Y-41250000D03*
X104750000Y-44250000D03*
X104750000Y-47250000D03*
X104750000Y-50250000D03*
X104750000Y-53250000D03*
X104750000Y-56250000D03*
X104750000Y-59250000D03*
X106000000Y-17239830D03*
X106000000Y-20239830D03*
X106000000Y-23239830D03*
X106000000Y-26239830D03*
X106000000Y-29239830D03*
X106000000Y-32239830D03*
X106000000Y-35239830D03*
X106000000Y-38239830D03*
X106000000Y-41239830D03*
X106000000Y-44239830D03*
X106000000Y-47239830D03*
X106000000Y-50239830D03*
X106000000Y-53239830D03*
X106000000Y-56239830D03*
X106000000Y-59239830D03*
X107200000Y-16000000D03*
X107200000Y-19000000D03*
X107200000Y-22000000D03*
X107200000Y-25000000D03*
X107200000Y-28000000D03*
X107200000Y-31000000D03*
X107200000Y-34000000D03*
X107200000Y-37000000D03*
X107200000Y-40000000D03*
X107200000Y-43000000D03*
X107200000Y-46000000D03*
X107200000Y-49000000D03*
X107200000Y-52000000D03*
X107200000Y-55000000D03*
X107200000Y-58000000D03*
X107750000Y-17250000D03*
X107750000Y-20250000D03*
X107750000Y-23250000D03*
X107750000Y-26250000D03*
X107750000Y-29250000D03*
X107750000Y-32250000D03*
X107750000Y-35250000D03*
X107750000Y-38250000D03*
X107750000Y-41250000D03*
X107750000Y-44250000D03*
X107750000Y-47250000D03*
X107750000Y-50250000D03*
X107750000Y-53250000D03*
X107750000Y-56250000D03*
X107750000Y-59250000D03*
X109000000Y-17239830D03*
X109000000Y-20239830D03*
X109000000Y-23239830D03*
X109000000Y-26239830D03*
X109000000Y-29239830D03*
X109000000Y-32239830D03*
X109000000Y-35239830D03*
X109000000Y-38239830D03*
X109000000Y-41239830D03*
X109000000Y-44239830D03*
X109000000Y-47239830D03*
X109000000Y-50239830D03*
X109000000Y-53239830D03*
X109000000Y-56239830D03*
X109000000Y-59239830D03*
D11*
%TO.C,U5*%
X20750000Y-37300000D03*
X20750000Y-38300000D03*
X20750000Y-39300000D03*
X22050000Y-37300000D03*
X22050000Y-38300000D03*
X22050000Y-39300000D03*
%TD*%
D12*
X12500000Y-12500000D03*
X12500000Y-13500000D03*
X12500000Y-14500000D03*
X12500000Y-15500000D03*
X12500000Y-16500000D03*
X12500000Y-17500000D03*
X12500000Y-18500000D03*
X12500000Y-19500000D03*
X12500000Y-20500000D03*
X12500000Y-21500000D03*
X12500000Y-22500000D03*
X12500000Y-23500000D03*
X12500000Y-24500000D03*
X12500000Y-25500000D03*
X12500000Y-31500000D03*
X12500000Y-32500000D03*
X12500000Y-33500000D03*
X12500000Y-34500000D03*
X12500000Y-35500000D03*
X12500000Y-36500000D03*
X12500000Y-37500000D03*
X12500000Y-45500000D03*
X12500000Y-46500000D03*
X12500000Y-47500000D03*
X12500000Y-48500000D03*
X12500000Y-49500000D03*
X12500000Y-50500000D03*
X12500000Y-51500000D03*
X12500000Y-52500000D03*
X12500000Y-53500000D03*
X12500000Y-54500000D03*
X12500000Y-55500000D03*
X12500000Y-56500000D03*
X12500000Y-57500000D03*
X12500000Y-58500000D03*
X12500000Y-59500000D03*
X12500000Y-60500000D03*
X12500000Y-61500000D03*
X13500000Y-61500000D03*
X14100000Y-50500000D03*
X14100000Y-52400000D03*
X14500000Y-61500000D03*
X14900000Y-50500000D03*
X14900000Y-52400000D03*
X15500000Y-61500000D03*
X16000000Y-34000000D03*
X16500000Y-61500000D03*
X17200000Y-40800000D03*
X17500000Y-61500000D03*
X18000000Y-41100000D03*
X18500000Y-61500000D03*
X19500000Y-61500000D03*
X20200000Y-47100000D03*
X20200000Y-47900000D03*
X20500000Y-12500000D03*
X20500000Y-61500000D03*
X20900000Y-42600000D03*
X21500000Y-12500000D03*
X21500000Y-61500000D03*
X21900000Y-42300000D03*
X21900000Y-45500000D03*
X21900000Y-46900000D03*
X21900000Y-47600000D03*
X21900000Y-48300000D03*
X22500000Y-12500000D03*
X22500000Y-61500000D03*
X22600000Y-50500000D03*
X22600000Y-51500000D03*
X22600000Y-52500000D03*
X23000000Y-51000000D03*
X23000000Y-52000000D03*
X23400000Y-50500000D03*
X23400000Y-51500000D03*
X23400000Y-52500000D03*
X23500000Y-12500000D03*
X23500000Y-61500000D03*
X23800000Y-51000000D03*
X23800000Y-52000000D03*
X24200000Y-50500000D03*
X24200000Y-51500000D03*
X24500000Y-12500000D03*
X24500000Y-61500000D03*
X24600000Y-51000000D03*
X25000000Y-50500000D03*
X25000000Y-51500000D03*
X25400000Y-30500000D03*
X25400000Y-51000000D03*
X25500000Y-12500000D03*
X25500000Y-61500000D03*
X26500000Y-12500000D03*
X26500000Y-61500000D03*
X27500000Y-12500000D03*
X27500000Y-61500000D03*
X28300000Y-34600000D03*
X28300000Y-35300000D03*
X28500000Y-12500000D03*
X28500000Y-40300000D03*
X28500000Y-41000000D03*
X28500000Y-41700000D03*
X28500000Y-42400000D03*
X28500000Y-43100000D03*
X28500000Y-43800000D03*
X28500000Y-44500000D03*
X28500000Y-45200000D03*
X28500000Y-45900000D03*
X28500000Y-46600000D03*
X28500000Y-47300000D03*
X28500000Y-48000000D03*
X28500000Y-48700000D03*
X28500000Y-49400000D03*
X28500000Y-61500000D03*
X29500000Y-12500000D03*
X29500000Y-61500000D03*
X30500000Y-12500000D03*
X30500000Y-37400000D03*
X30500000Y-38100000D03*
X30500000Y-61500000D03*
X31500000Y-12500000D03*
X31500000Y-61500000D03*
X32400000Y-15600000D03*
X32500000Y-61500000D03*
X32600000Y-12600000D03*
X33500000Y-61500000D03*
X34500000Y-61500000D03*
X34600000Y-25200000D03*
X35300000Y-14700000D03*
X35500000Y-61500000D03*
X36500000Y-61500000D03*
X37500000Y-61500000D03*
X38500000Y-61500000D03*
X39500000Y-61500000D03*
X40500000Y-12500000D03*
X40500000Y-61500000D03*
X41500000Y-12500000D03*
X41500000Y-61500000D03*
X42500000Y-12500000D03*
X42500000Y-61500000D03*
X43500000Y-12500000D03*
X43500000Y-61500000D03*
X44500000Y-12500000D03*
X44500000Y-61500000D03*
X45500000Y-12500000D03*
X45500000Y-61500000D03*
X46500000Y-12500000D03*
X46500000Y-61500000D03*
X47500000Y-12500000D03*
X47500000Y-61500000D03*
X48500000Y-12500000D03*
X48500000Y-61500000D03*
X49500000Y-12500000D03*
X49500000Y-61500000D03*
X50500000Y-12500000D03*
X50500000Y-61500000D03*
X51500000Y-12500000D03*
X51500000Y-61500000D03*
X52500000Y-12500000D03*
X52500000Y-61500000D03*
X53500000Y-12500000D03*
X53500000Y-61500000D03*
X54500000Y-12500000D03*
X54500000Y-61500000D03*
X55500000Y-12500000D03*
X55500000Y-61500000D03*
X56500000Y-12500000D03*
X56500000Y-61500000D03*
X57500000Y-12500000D03*
X57500000Y-61500000D03*
X58500000Y-12500000D03*
X58500000Y-61500000D03*
X59500000Y-12500000D03*
X59500000Y-61500000D03*
X60500000Y-12500000D03*
X60500000Y-61500000D03*
X61500000Y-12500000D03*
X61500000Y-61500000D03*
X62500000Y-12500000D03*
X62500000Y-61500000D03*
X63500000Y-12500000D03*
X63500000Y-61500000D03*
X64500000Y-12500000D03*
X64500000Y-61500000D03*
X65500000Y-12500000D03*
X65500000Y-61500000D03*
X66500000Y-12500000D03*
X66500000Y-61500000D03*
X67500000Y-12500000D03*
X67500000Y-61500000D03*
X68500000Y-12500000D03*
X68500000Y-61500000D03*
X69500000Y-12500000D03*
X69500000Y-61500000D03*
X70500000Y-12500000D03*
X70500000Y-61500000D03*
X71500000Y-12500000D03*
X71500000Y-61500000D03*
X72500000Y-12500000D03*
X72500000Y-61500000D03*
X73500000Y-12500000D03*
X73500000Y-61500000D03*
X74500000Y-12500000D03*
X74500000Y-61500000D03*
X75500000Y-12500000D03*
X75500000Y-61500000D03*
X76500000Y-12500000D03*
X76500000Y-61500000D03*
X77500000Y-12500000D03*
X77500000Y-61500000D03*
X78500000Y-12500000D03*
X78500000Y-61500000D03*
X79500000Y-12500000D03*
X79500000Y-61500000D03*
X80500000Y-12500000D03*
X80500000Y-61500000D03*
X81500000Y-12500000D03*
X81500000Y-61500000D03*
X82500000Y-12500000D03*
X82500000Y-61500000D03*
X83500000Y-12500000D03*
X83500000Y-61500000D03*
X84500000Y-12500000D03*
X84500000Y-61500000D03*
X85500000Y-12500000D03*
X85500000Y-61500000D03*
X86500000Y-12500000D03*
X86500000Y-61500000D03*
X87500000Y-12500000D03*
X87500000Y-61500000D03*
X88500000Y-12500000D03*
X88500000Y-61500000D03*
X89500000Y-12500000D03*
X89500000Y-61500000D03*
X90500000Y-12500000D03*
X90500000Y-61500000D03*
X91500000Y-12500000D03*
X91500000Y-61500000D03*
X92500000Y-12500000D03*
X92500000Y-61500000D03*
X93500000Y-12500000D03*
X93500000Y-61500000D03*
X94500000Y-12500000D03*
X94500000Y-61500000D03*
X95500000Y-12500000D03*
X95500000Y-61500000D03*
X96500000Y-12500000D03*
X96500000Y-61500000D03*
X97500000Y-12500000D03*
X97500000Y-61500000D03*
X98500000Y-12500000D03*
X98500000Y-61500000D03*
X99500000Y-12500000D03*
X99500000Y-61500000D03*
X100500000Y-12500000D03*
X100500000Y-61500000D03*
X101500000Y-12500000D03*
X101500000Y-61500000D03*
X102500000Y-12500000D03*
X102500000Y-61500000D03*
X103500000Y-12500000D03*
X103500000Y-61500000D03*
X104500000Y-12500000D03*
X104500000Y-61500000D03*
X105500000Y-12500000D03*
X105500000Y-61500000D03*
X106500000Y-12500000D03*
X106500000Y-61500000D03*
X107500000Y-12500000D03*
X107500000Y-61500000D03*
X108500000Y-12500000D03*
X108500000Y-61500000D03*
X109500000Y-12500000D03*
X109500000Y-61500000D03*
X110500000Y-12500000D03*
X110500000Y-61500000D03*
X111500000Y-12500000D03*
X111500000Y-13500000D03*
X111500000Y-14500000D03*
X111500000Y-15500000D03*
X111500000Y-16500000D03*
X111500000Y-17500000D03*
X111500000Y-18500000D03*
X111500000Y-19500000D03*
X111500000Y-20500000D03*
X111500000Y-21500000D03*
X111500000Y-22500000D03*
X111500000Y-23500000D03*
X111500000Y-24500000D03*
X111500000Y-25500000D03*
X111500000Y-26500000D03*
X111500000Y-27500000D03*
X111500000Y-28500000D03*
X111500000Y-29500000D03*
X111500000Y-30500000D03*
X111500000Y-31500000D03*
X111500000Y-32500000D03*
X111500000Y-33500000D03*
X111500000Y-34500000D03*
X111500000Y-35500000D03*
X111500000Y-36500000D03*
X111500000Y-37500000D03*
X111500000Y-38500000D03*
X111500000Y-39500000D03*
X111500000Y-40500000D03*
X111500000Y-41500000D03*
X111500000Y-42500000D03*
X111500000Y-43500000D03*
X111500000Y-44500000D03*
X111500000Y-45500000D03*
X111500000Y-46500000D03*
X111500000Y-47500000D03*
X111500000Y-48500000D03*
X111500000Y-49500000D03*
X111500000Y-50500000D03*
X111500000Y-51500000D03*
X111500000Y-52500000D03*
X111500000Y-53500000D03*
X111500000Y-54500000D03*
X111500000Y-55500000D03*
X111500000Y-56500000D03*
X111500000Y-57500000D03*
X111500000Y-58500000D03*
X111500000Y-59500000D03*
X111500000Y-60500000D03*
X111500000Y-61500000D03*
D13*
%TO.C,J2*%
X25180000Y-55895000D03*
D14*
X25180000Y-60075000D03*
D13*
X33820000Y-55895000D03*
D14*
X33820000Y-60075000D03*
D15*
%TO.C,J3*%
X16230000Y-59500000D03*
X18770000Y-59500000D03*
M02*
