%TF.GenerationSoftware,KiCad,Pcbnew,(5.99.0-12974-ge12f9a194d)*%
%TF.CreationDate,2021-11-26T19:34:27-08:00*%
%TF.ProjectId,LED_Addrs,4c45445f-4164-4647-9273-2e6b69636164,rev?*%
%TF.SameCoordinates,Original*%
%TF.FileFunction,Paste,Bot*%
%TF.FilePolarity,Positive*%
%FSLAX46Y46*%
G04 Gerber Fmt 4.6, Leading zero omitted, Abs format (unit mm)*
G04 Created by KiCad (PCBNEW (5.99.0-12974-ge12f9a194d)) date 2021-11-26 19:34:27*
%MOMM*%
%LPD*%
G01*
G04 APERTURE LIST*
G04 Aperture macros list*
%AMRoundRect*
0 Rectangle with rounded corners*
0 $1 Rounding radius*
0 $2 $3 $4 $5 $6 $7 $8 $9 X,Y pos of 4 corners*
0 Add a 4 corners polygon primitive as box body*
4,1,4,$2,$3,$4,$5,$6,$7,$8,$9,$2,$3,0*
0 Add four circle primitives for the rounded corners*
1,1,$1+$1,$2,$3*
1,1,$1+$1,$4,$5*
1,1,$1+$1,$6,$7*
1,1,$1+$1,$8,$9*
0 Add four rect primitives between the rounded corners*
20,1,$1+$1,$2,$3,$4,$5,0*
20,1,$1+$1,$4,$5,$6,$7,0*
20,1,$1+$1,$6,$7,$8,$9,0*
20,1,$1+$1,$8,$9,$2,$3,0*%
G04 Aperture macros list end*
%ADD10RoundRect,0.155000X0.212500X0.155000X-0.212500X0.155000X-0.212500X-0.155000X0.212500X-0.155000X0*%
%ADD11RoundRect,0.150000X-0.150000X0.587500X-0.150000X-0.587500X0.150000X-0.587500X0.150000X0.587500X0*%
%ADD12RoundRect,0.250000X1.100000X-0.325000X1.100000X0.325000X-1.100000X0.325000X-1.100000X-0.325000X0*%
%ADD13RoundRect,0.250000X-1.100000X0.325000X-1.100000X-0.325000X1.100000X-0.325000X1.100000X0.325000X0*%
%ADD14R,3.429000X2.413000*%
%ADD15RoundRect,0.250000X0.475000X-0.250000X0.475000X0.250000X-0.475000X0.250000X-0.475000X-0.250000X0*%
%ADD16RoundRect,0.240000X0.240000X0.385000X-0.240000X0.385000X-0.240000X-0.385000X0.240000X-0.385000X0*%
%ADD17RoundRect,0.150000X0.825000X0.150000X-0.825000X0.150000X-0.825000X-0.150000X0.825000X-0.150000X0*%
%ADD18R,0.750000X2.100000*%
%ADD19RoundRect,0.150000X-0.150000X0.650000X-0.150000X-0.650000X0.150000X-0.650000X0.150000X0.650000X0*%
%ADD20R,3.175000X4.950000*%
%ADD21RoundRect,0.250000X0.250000X0.475000X-0.250000X0.475000X-0.250000X-0.475000X0.250000X-0.475000X0*%
G04 APERTURE END LIST*
D10*
%TO.C,C33*%
X58567500Y-19000000D03*
X57432500Y-19000000D03*
%TD*%
%TO.C,C32*%
X55567500Y-19000000D03*
X54432500Y-19000000D03*
%TD*%
%TO.C,C312*%
X70567500Y-52000000D03*
X69432500Y-52000000D03*
%TD*%
%TO.C,C314*%
X76567500Y-52000000D03*
X75432500Y-52000000D03*
%TD*%
%TO.C,C82*%
X55567500Y-25000000D03*
X54432500Y-25000000D03*
%TD*%
%TO.C,C308*%
X58567500Y-52000000D03*
X57432500Y-52000000D03*
%TD*%
%TO.C,C109*%
X61567500Y-28000000D03*
X60432500Y-28000000D03*
%TD*%
%TO.C,C38*%
X73567500Y-19000000D03*
X72432500Y-19000000D03*
%TD*%
%TO.C,C256*%
X52567500Y-46000000D03*
X51432500Y-46000000D03*
%TD*%
%TO.C,C354*%
X46567500Y-58000000D03*
X45432500Y-58000000D03*
%TD*%
%TO.C,C322*%
X100567500Y-52000000D03*
X99432500Y-52000000D03*
%TD*%
%TO.C,C261*%
X67567500Y-46000000D03*
X66432500Y-46000000D03*
%TD*%
%TO.C,C162*%
X70567500Y-34000000D03*
X69432500Y-34000000D03*
%TD*%
%TO.C,C105*%
X49567500Y-28000000D03*
X48432500Y-28000000D03*
%TD*%
%TO.C,C176*%
X37567500Y-37000000D03*
X36432500Y-37000000D03*
%TD*%
%TO.C,C27*%
X40567500Y-19000000D03*
X39432500Y-19000000D03*
%TD*%
%TO.C,C51*%
X37567500Y-22000000D03*
X36432500Y-22000000D03*
%TD*%
%TO.C,C313*%
X73567500Y-52000000D03*
X72432500Y-52000000D03*
%TD*%
%TO.C,C235*%
X64567500Y-43000000D03*
X63432500Y-43000000D03*
%TD*%
%TO.C,C150*%
X109567500Y-31000000D03*
X108432500Y-31000000D03*
%TD*%
%TO.C,C274*%
X106567500Y-46000000D03*
X105432500Y-46000000D03*
%TD*%
%TO.C,C318*%
X88567500Y-52000000D03*
X87432500Y-52000000D03*
%TD*%
%TO.C,C132*%
X55567500Y-31000000D03*
X54432500Y-31000000D03*
%TD*%
%TO.C,C158*%
X58567500Y-34000000D03*
X57432500Y-34000000D03*
%TD*%
%TO.C,C77*%
X40567500Y-25000000D03*
X39432500Y-25000000D03*
%TD*%
%TO.C,C209*%
X61567500Y-40000000D03*
X60432500Y-40000000D03*
%TD*%
%TO.C,C304*%
X46567500Y-52000000D03*
X45432500Y-52000000D03*
%TD*%
%TO.C,C4*%
X46567500Y-16000000D03*
X45432500Y-16000000D03*
%TD*%
%TO.C,C46*%
X97567500Y-19000000D03*
X96432500Y-19000000D03*
%TD*%
%TO.C,C260*%
X64567500Y-46000000D03*
X63432500Y-46000000D03*
%TD*%
%TO.C,C231*%
X52567500Y-43000000D03*
X51432500Y-43000000D03*
%TD*%
%TO.C,C273*%
X103567500Y-46000000D03*
X102432500Y-46000000D03*
%TD*%
%TO.C,C206*%
X52567500Y-40000000D03*
X51432500Y-40000000D03*
%TD*%
%TO.C,C142*%
X85567500Y-31000000D03*
X84432500Y-31000000D03*
%TD*%
%TO.C,C123*%
X103567500Y-28000000D03*
X102432500Y-28000000D03*
%TD*%
%TO.C,C361*%
X67567500Y-58000000D03*
X66432500Y-58000000D03*
%TD*%
%TO.C,C349*%
X106567500Y-55000000D03*
X105432500Y-55000000D03*
%TD*%
%TO.C,C244*%
X91567500Y-43000000D03*
X90432500Y-43000000D03*
%TD*%
%TO.C,C351*%
X37567500Y-58000000D03*
X36432500Y-58000000D03*
%TD*%
%TO.C,C267*%
X85567500Y-46000000D03*
X84432500Y-46000000D03*
%TD*%
%TO.C,C341*%
X82567500Y-55000000D03*
X81432500Y-55000000D03*
%TD*%
%TO.C,C112*%
X70567500Y-28000000D03*
X69432500Y-28000000D03*
%TD*%
%TO.C,C355*%
X49567500Y-58000000D03*
X48432500Y-58000000D03*
%TD*%
%TO.C,C356*%
X52567500Y-58000000D03*
X51432500Y-58000000D03*
%TD*%
%TO.C,C43*%
X88567500Y-19000000D03*
X87432500Y-19000000D03*
%TD*%
%TO.C,C66*%
X82567500Y-22000000D03*
X81432500Y-22000000D03*
%TD*%
%TO.C,C288*%
X73567500Y-49000000D03*
X72432500Y-49000000D03*
%TD*%
%TO.C,C242*%
X85567500Y-43000000D03*
X84432500Y-43000000D03*
%TD*%
%TO.C,C113*%
X73567500Y-28000000D03*
X72432500Y-28000000D03*
%TD*%
%TO.C,C212*%
X70567500Y-40000000D03*
X69432500Y-40000000D03*
%TD*%
%TO.C,C16*%
X82567500Y-16000000D03*
X81432500Y-16000000D03*
%TD*%
%TO.C,C346*%
X97567500Y-55000000D03*
X96432500Y-55000000D03*
%TD*%
%TO.C,C172*%
X100567500Y-34000000D03*
X99432500Y-34000000D03*
%TD*%
%TO.C,C373*%
X103567500Y-58000000D03*
X102432500Y-58000000D03*
%TD*%
%TO.C,C337*%
X70567500Y-55000000D03*
X69432500Y-55000000D03*
%TD*%
%TO.C,C357*%
X55567500Y-58000000D03*
X54432500Y-58000000D03*
%TD*%
%TO.C,C52*%
X40567500Y-22000000D03*
X39432500Y-22000000D03*
%TD*%
%TO.C,C262*%
X70567500Y-46000000D03*
X69432500Y-46000000D03*
%TD*%
%TO.C,C173*%
X103567500Y-34000000D03*
X102432500Y-34000000D03*
%TD*%
%TO.C,C220*%
X94567500Y-40000000D03*
X93432500Y-40000000D03*
%TD*%
%TO.C,C136*%
X67567500Y-31000000D03*
X66432500Y-31000000D03*
%TD*%
D11*
%TO.C,Q2*%
X14050000Y-37562500D03*
X15950000Y-37562500D03*
X15000000Y-39437500D03*
%TD*%
D12*
%TO.C,C400*%
X13900000Y-33175000D03*
X13900000Y-30225000D03*
%TD*%
D10*
%TO.C,C40*%
X79567500Y-19000000D03*
X78432500Y-19000000D03*
%TD*%
%TO.C,C148*%
X103567500Y-31000000D03*
X102432500Y-31000000D03*
%TD*%
%TO.C,C54*%
X46567500Y-22000000D03*
X45432500Y-22000000D03*
%TD*%
%TO.C,C343*%
X88567500Y-55000000D03*
X87432500Y-55000000D03*
%TD*%
%TO.C,C297*%
X100567500Y-49000000D03*
X99432500Y-49000000D03*
%TD*%
%TO.C,C271*%
X97567500Y-46000000D03*
X96432500Y-46000000D03*
%TD*%
%TO.C,C281*%
X52567500Y-49000000D03*
X51432500Y-49000000D03*
%TD*%
%TO.C,C100*%
X109567500Y-25000000D03*
X108432500Y-25000000D03*
%TD*%
%TO.C,C348*%
X103567500Y-55000000D03*
X102432500Y-55000000D03*
%TD*%
%TO.C,C73*%
X103567500Y-22000000D03*
X102432500Y-22000000D03*
%TD*%
%TO.C,C189*%
X76567500Y-37000000D03*
X75432500Y-37000000D03*
%TD*%
%TO.C,C58*%
X58567500Y-22000000D03*
X57432500Y-22000000D03*
%TD*%
%TO.C,C339*%
X76567500Y-55000000D03*
X75432500Y-55000000D03*
%TD*%
%TO.C,C61*%
X67567500Y-22000000D03*
X66432500Y-22000000D03*
%TD*%
%TO.C,C3*%
X43567500Y-16000000D03*
X42432500Y-16000000D03*
%TD*%
%TO.C,C35*%
X64567500Y-19000000D03*
X63432500Y-19000000D03*
%TD*%
%TO.C,C350*%
X109567500Y-55000000D03*
X108432500Y-55000000D03*
%TD*%
%TO.C,C2*%
X40567500Y-16000000D03*
X39432500Y-16000000D03*
%TD*%
%TO.C,C143*%
X88567500Y-31000000D03*
X87432500Y-31000000D03*
%TD*%
%TO.C,C98*%
X103567500Y-25000000D03*
X102432500Y-25000000D03*
%TD*%
%TO.C,C146*%
X97567500Y-31000000D03*
X96432500Y-31000000D03*
%TD*%
%TO.C,C181*%
X52567500Y-37000000D03*
X51432500Y-37000000D03*
%TD*%
%TO.C,C275*%
X109567500Y-46000000D03*
X108432500Y-46000000D03*
%TD*%
%TO.C,C208*%
X58567500Y-40000000D03*
X57432500Y-40000000D03*
%TD*%
%TO.C,C266*%
X82567500Y-46000000D03*
X81432500Y-46000000D03*
%TD*%
%TO.C,C175*%
X109567500Y-34000000D03*
X108432500Y-34000000D03*
%TD*%
%TO.C,C195*%
X94567500Y-37000000D03*
X93432500Y-37000000D03*
%TD*%
%TO.C,C316*%
X82567500Y-52000000D03*
X81432500Y-52000000D03*
%TD*%
%TO.C,C12*%
X70567500Y-16000000D03*
X69432500Y-16000000D03*
%TD*%
%TO.C,C26*%
X37567500Y-19000000D03*
X36432500Y-19000000D03*
%TD*%
%TO.C,C31*%
X52567500Y-19000000D03*
X51432500Y-19000000D03*
%TD*%
%TO.C,C215*%
X79567500Y-40000000D03*
X78432500Y-40000000D03*
%TD*%
%TO.C,C34*%
X61567500Y-19000000D03*
X60432500Y-19000000D03*
%TD*%
%TO.C,C365*%
X79567500Y-58000000D03*
X78432500Y-58000000D03*
%TD*%
%TO.C,C305*%
X49567500Y-52000000D03*
X48432500Y-52000000D03*
%TD*%
%TO.C,C229*%
X46567500Y-43000000D03*
X45432500Y-43000000D03*
%TD*%
%TO.C,C366*%
X82567500Y-58000000D03*
X81432500Y-58000000D03*
%TD*%
%TO.C,C137*%
X70567500Y-31000000D03*
X69432500Y-31000000D03*
%TD*%
%TO.C,C94*%
X91567500Y-25000000D03*
X90432500Y-25000000D03*
%TD*%
%TO.C,C236*%
X67567500Y-43000000D03*
X66432500Y-43000000D03*
%TD*%
%TO.C,C319*%
X91567500Y-52000000D03*
X90432500Y-52000000D03*
%TD*%
%TO.C,C114*%
X76567500Y-28000000D03*
X75432500Y-28000000D03*
%TD*%
%TO.C,C194*%
X91567500Y-37000000D03*
X90432500Y-37000000D03*
%TD*%
%TO.C,C295*%
X94567500Y-49000000D03*
X93432500Y-49000000D03*
%TD*%
%TO.C,C126*%
X37567500Y-31000000D03*
X36432500Y-31000000D03*
%TD*%
%TO.C,C207*%
X55567500Y-40000000D03*
X54432500Y-40000000D03*
%TD*%
%TO.C,C317*%
X85567500Y-52000000D03*
X84432500Y-52000000D03*
%TD*%
%TO.C,C226*%
X37567500Y-43000000D03*
X36432500Y-43000000D03*
%TD*%
%TO.C,C165*%
X79567500Y-34000000D03*
X78432500Y-34000000D03*
%TD*%
%TO.C,C49*%
X106567500Y-19000000D03*
X105432500Y-19000000D03*
%TD*%
%TO.C,C42*%
X85567500Y-19000000D03*
X84432500Y-19000000D03*
%TD*%
%TO.C,C115*%
X79567500Y-28000000D03*
X78432500Y-28000000D03*
%TD*%
%TO.C,C128*%
X43567500Y-31000000D03*
X42432500Y-31000000D03*
%TD*%
%TO.C,C99*%
X106567500Y-25000000D03*
X105432500Y-25000000D03*
%TD*%
%TO.C,C291*%
X82567500Y-49000000D03*
X81432500Y-49000000D03*
%TD*%
%TO.C,C246*%
X97567500Y-43000000D03*
X96432500Y-43000000D03*
%TD*%
%TO.C,C311*%
X67567500Y-52000000D03*
X66432500Y-52000000D03*
%TD*%
%TO.C,C21*%
X97567500Y-16000000D03*
X96432500Y-16000000D03*
%TD*%
%TO.C,C270*%
X94567500Y-46000000D03*
X93432500Y-46000000D03*
%TD*%
%TO.C,C169*%
X91567500Y-34000000D03*
X90432500Y-34000000D03*
%TD*%
%TO.C,C306*%
X52567500Y-52000000D03*
X51432500Y-52000000D03*
%TD*%
%TO.C,C338*%
X73567500Y-55000000D03*
X72432500Y-55000000D03*
%TD*%
%TO.C,C76*%
X37567500Y-25000000D03*
X36432500Y-25000000D03*
%TD*%
%TO.C,C299*%
X106567500Y-49000000D03*
X105432500Y-49000000D03*
%TD*%
%TO.C,C138*%
X73567500Y-31000000D03*
X72432500Y-31000000D03*
%TD*%
%TO.C,C168*%
X88567500Y-34000000D03*
X87432500Y-34000000D03*
%TD*%
%TO.C,C210*%
X64567500Y-40000000D03*
X63432500Y-40000000D03*
%TD*%
%TO.C,C201*%
X37567500Y-40000000D03*
X36432500Y-40000000D03*
%TD*%
%TO.C,C180*%
X49567500Y-37000000D03*
X48432500Y-37000000D03*
%TD*%
%TO.C,C1*%
X37567500Y-16000000D03*
X36432500Y-16000000D03*
%TD*%
%TO.C,C309*%
X61567500Y-52000000D03*
X60432500Y-52000000D03*
%TD*%
%TO.C,C217*%
X85567500Y-40000000D03*
X84432500Y-40000000D03*
%TD*%
%TO.C,C106*%
X52567500Y-28000000D03*
X51432500Y-28000000D03*
%TD*%
%TO.C,C193*%
X88567500Y-37000000D03*
X87432500Y-37000000D03*
%TD*%
%TO.C,C221*%
X97567500Y-40000000D03*
X96432500Y-40000000D03*
%TD*%
%TO.C,C364*%
X76567500Y-58000000D03*
X75432500Y-58000000D03*
%TD*%
%TO.C,C368*%
X88567500Y-58000000D03*
X87432500Y-58000000D03*
%TD*%
%TO.C,C131*%
X52567500Y-31000000D03*
X51432500Y-31000000D03*
%TD*%
%TO.C,C240*%
X79567500Y-43000000D03*
X78432500Y-43000000D03*
%TD*%
D13*
%TO.C,C399*%
X13900000Y-25725000D03*
X13900000Y-28675000D03*
%TD*%
D10*
%TO.C,C154*%
X46567500Y-34000000D03*
X45432500Y-34000000D03*
%TD*%
%TO.C,C205*%
X49567500Y-40000000D03*
X48432500Y-40000000D03*
%TD*%
%TO.C,C84*%
X61567500Y-25000000D03*
X60432500Y-25000000D03*
%TD*%
%TO.C,C230*%
X49567500Y-43000000D03*
X48432500Y-43000000D03*
%TD*%
%TO.C,C360*%
X64567500Y-58000000D03*
X63432500Y-58000000D03*
%TD*%
%TO.C,C179*%
X46567500Y-37000000D03*
X45432500Y-37000000D03*
%TD*%
%TO.C,C39*%
X76567500Y-19000000D03*
X75432500Y-19000000D03*
%TD*%
%TO.C,C80*%
X49567500Y-25000000D03*
X48432500Y-25000000D03*
%TD*%
%TO.C,C332*%
X55567500Y-55000000D03*
X54432500Y-55000000D03*
%TD*%
%TO.C,C370*%
X94567500Y-58000000D03*
X93432500Y-58000000D03*
%TD*%
%TO.C,C68*%
X88567500Y-22000000D03*
X87432500Y-22000000D03*
%TD*%
%TO.C,C334*%
X61567500Y-55000000D03*
X60432500Y-55000000D03*
%TD*%
%TO.C,C90*%
X79567500Y-25000000D03*
X78432500Y-25000000D03*
%TD*%
%TO.C,C285*%
X64567500Y-49000000D03*
X63432500Y-49000000D03*
%TD*%
%TO.C,C324*%
X106567500Y-52000000D03*
X105432500Y-52000000D03*
%TD*%
%TO.C,C255*%
X49567500Y-46000000D03*
X48432500Y-46000000D03*
%TD*%
%TO.C,C294*%
X91567500Y-49000000D03*
X90432500Y-49000000D03*
%TD*%
%TO.C,C37*%
X70567500Y-19000000D03*
X69432500Y-19000000D03*
%TD*%
%TO.C,C86*%
X67567500Y-25000000D03*
X66432500Y-25000000D03*
%TD*%
%TO.C,C280*%
X49567500Y-49000000D03*
X48432500Y-49000000D03*
%TD*%
%TO.C,C11*%
X67567500Y-16000000D03*
X66432500Y-16000000D03*
%TD*%
%TO.C,C92*%
X85567500Y-25000000D03*
X84432500Y-25000000D03*
%TD*%
%TO.C,C374*%
X106567500Y-58000000D03*
X105432500Y-58000000D03*
%TD*%
%TO.C,C185*%
X64567500Y-37000000D03*
X63432500Y-37000000D03*
%TD*%
%TO.C,C258*%
X58567500Y-46000000D03*
X57432500Y-46000000D03*
%TD*%
%TO.C,C225*%
X109567500Y-40000000D03*
X108432500Y-40000000D03*
%TD*%
%TO.C,C248*%
X103567500Y-43000000D03*
X102432500Y-43000000D03*
%TD*%
%TO.C,C170*%
X94567500Y-34000000D03*
X93432500Y-34000000D03*
%TD*%
%TO.C,C20*%
X94567500Y-16000000D03*
X93432500Y-16000000D03*
%TD*%
%TO.C,C269*%
X91567500Y-46000000D03*
X90432500Y-46000000D03*
%TD*%
%TO.C,C177*%
X40567500Y-37000000D03*
X39432500Y-37000000D03*
%TD*%
%TO.C,C249*%
X106567500Y-43000000D03*
X105432500Y-43000000D03*
%TD*%
%TO.C,C87*%
X70567500Y-25000000D03*
X69432500Y-25000000D03*
%TD*%
%TO.C,C284*%
X61567500Y-49000000D03*
X60432500Y-49000000D03*
%TD*%
%TO.C,C83*%
X58567500Y-25000000D03*
X57432500Y-25000000D03*
%TD*%
%TO.C,C129*%
X46567500Y-31000000D03*
X45432500Y-31000000D03*
%TD*%
%TO.C,C289*%
X76567500Y-49000000D03*
X75432500Y-49000000D03*
%TD*%
D14*
%TO.C,L1*%
X19200000Y-34221000D03*
X19200000Y-28379000D03*
%TD*%
D10*
%TO.C,C300*%
X109567500Y-49000000D03*
X108432500Y-49000000D03*
%TD*%
%TO.C,C330*%
X49567500Y-55000000D03*
X48432500Y-55000000D03*
%TD*%
%TO.C,C293*%
X88567500Y-49000000D03*
X87432500Y-49000000D03*
%TD*%
%TO.C,C96*%
X97567500Y-25000000D03*
X96432500Y-25000000D03*
%TD*%
%TO.C,C239*%
X76567500Y-43000000D03*
X75432500Y-43000000D03*
%TD*%
%TO.C,C224*%
X106567500Y-40000000D03*
X105432500Y-40000000D03*
%TD*%
D15*
%TO.C,C402*%
X23400000Y-55450000D03*
X23400000Y-53550000D03*
%TD*%
D10*
%TO.C,C9*%
X61567500Y-16000000D03*
X60432500Y-16000000D03*
%TD*%
%TO.C,C197*%
X100567500Y-37000000D03*
X99432500Y-37000000D03*
%TD*%
%TO.C,C328*%
X43567500Y-55000000D03*
X42432500Y-55000000D03*
%TD*%
%TO.C,C110*%
X64567500Y-28000000D03*
X63432500Y-28000000D03*
%TD*%
%TO.C,C144*%
X91567500Y-31000000D03*
X90432500Y-31000000D03*
%TD*%
%TO.C,C95*%
X94567500Y-25000000D03*
X93432500Y-25000000D03*
%TD*%
%TO.C,C301*%
X37567500Y-52000000D03*
X36432500Y-52000000D03*
%TD*%
%TO.C,C141*%
X82567500Y-31000000D03*
X81432500Y-31000000D03*
%TD*%
%TO.C,C196*%
X97567500Y-37000000D03*
X96432500Y-37000000D03*
%TD*%
%TO.C,C60*%
X64567500Y-22000000D03*
X63432500Y-22000000D03*
%TD*%
%TO.C,C227*%
X40567500Y-43000000D03*
X39432500Y-43000000D03*
%TD*%
%TO.C,C296*%
X97567500Y-49000000D03*
X96432500Y-49000000D03*
%TD*%
%TO.C,C243*%
X88567500Y-43000000D03*
X87432500Y-43000000D03*
%TD*%
%TO.C,C153*%
X43567500Y-34000000D03*
X42432500Y-34000000D03*
%TD*%
%TO.C,C335*%
X64567500Y-55000000D03*
X63432500Y-55000000D03*
%TD*%
%TO.C,C268*%
X88567500Y-46000000D03*
X87432500Y-46000000D03*
%TD*%
%TO.C,C67*%
X85567500Y-22000000D03*
X84432500Y-22000000D03*
%TD*%
%TO.C,C187*%
X70567500Y-37000000D03*
X69432500Y-37000000D03*
%TD*%
%TO.C,C65*%
X79567500Y-22000000D03*
X78432500Y-22000000D03*
%TD*%
D16*
%TO.C,U5*%
X21970000Y-39050000D03*
X21970000Y-37550000D03*
X20830000Y-37550000D03*
X20830000Y-39050000D03*
D17*
X23875000Y-36395000D03*
X23875000Y-37665000D03*
X23875000Y-38935000D03*
X23875000Y-40205000D03*
X18925000Y-40205000D03*
X18925000Y-38935000D03*
X18925000Y-37665000D03*
X18925000Y-36395000D03*
%TD*%
D10*
%TO.C,C340*%
X79567500Y-55000000D03*
X78432500Y-55000000D03*
%TD*%
%TO.C,C93*%
X88567500Y-25000000D03*
X87432500Y-25000000D03*
%TD*%
%TO.C,C199*%
X106567500Y-37000000D03*
X105432500Y-37000000D03*
%TD*%
%TO.C,C252*%
X40567500Y-46000000D03*
X39432500Y-46000000D03*
%TD*%
%TO.C,C125*%
X109567500Y-28000000D03*
X108432500Y-28000000D03*
%TD*%
%TO.C,C163*%
X73567500Y-34000000D03*
X72432500Y-34000000D03*
%TD*%
%TO.C,C241*%
X82567500Y-43000000D03*
X81432500Y-43000000D03*
%TD*%
%TO.C,C315*%
X79567500Y-52000000D03*
X78432500Y-52000000D03*
%TD*%
%TO.C,C8*%
X58567500Y-16000000D03*
X57432500Y-16000000D03*
%TD*%
%TO.C,C247*%
X100567500Y-43000000D03*
X99432500Y-43000000D03*
%TD*%
%TO.C,C171*%
X97567500Y-34000000D03*
X96432500Y-34000000D03*
%TD*%
%TO.C,C97*%
X100567500Y-25000000D03*
X99432500Y-25000000D03*
%TD*%
%TO.C,C57*%
X55567500Y-22000000D03*
X54432500Y-22000000D03*
%TD*%
%TO.C,C219*%
X91567500Y-40000000D03*
X90432500Y-40000000D03*
%TD*%
%TO.C,C10*%
X64567500Y-16000000D03*
X63432500Y-16000000D03*
%TD*%
%TO.C,C192*%
X85567500Y-37000000D03*
X84432500Y-37000000D03*
%TD*%
%TO.C,C237*%
X70567500Y-43000000D03*
X69432500Y-43000000D03*
%TD*%
%TO.C,C120*%
X94567500Y-28000000D03*
X93432500Y-28000000D03*
%TD*%
%TO.C,C22*%
X100567500Y-16000000D03*
X99432500Y-16000000D03*
%TD*%
%TO.C,C147*%
X100567500Y-31000000D03*
X99432500Y-31000000D03*
%TD*%
%TO.C,C160*%
X64567500Y-34000000D03*
X63432500Y-34000000D03*
%TD*%
%TO.C,C362*%
X70567500Y-58000000D03*
X69432500Y-58000000D03*
%TD*%
%TO.C,C303*%
X43567500Y-52000000D03*
X42432500Y-52000000D03*
%TD*%
%TO.C,C336*%
X67567500Y-55000000D03*
X66432500Y-55000000D03*
%TD*%
%TO.C,C329*%
X46567500Y-55000000D03*
X45432500Y-55000000D03*
%TD*%
%TO.C,C191*%
X82567500Y-37000000D03*
X81432500Y-37000000D03*
%TD*%
%TO.C,C104*%
X46567500Y-28000000D03*
X45432500Y-28000000D03*
%TD*%
%TO.C,C228*%
X43567500Y-43000000D03*
X42432500Y-43000000D03*
%TD*%
%TO.C,C184*%
X61567500Y-37000000D03*
X60432500Y-37000000D03*
%TD*%
%TO.C,C69*%
X91567500Y-22000000D03*
X90432500Y-22000000D03*
%TD*%
%TO.C,C372*%
X100567500Y-58000000D03*
X99432500Y-58000000D03*
%TD*%
%TO.C,C85*%
X64567500Y-25000000D03*
X63432500Y-25000000D03*
%TD*%
%TO.C,C70*%
X94567500Y-22000000D03*
X93432500Y-22000000D03*
%TD*%
%TO.C,C74*%
X106567500Y-22000000D03*
X105432500Y-22000000D03*
%TD*%
%TO.C,C278*%
X43567500Y-49000000D03*
X42432500Y-49000000D03*
%TD*%
%TO.C,C50*%
X109567500Y-19000000D03*
X108432500Y-19000000D03*
%TD*%
%TO.C,C78*%
X43567500Y-25000000D03*
X42432500Y-25000000D03*
%TD*%
%TO.C,C164*%
X76567500Y-34000000D03*
X75432500Y-34000000D03*
%TD*%
%TO.C,C108*%
X58567500Y-28000000D03*
X57432500Y-28000000D03*
%TD*%
%TO.C,C375*%
X109567500Y-58000000D03*
X108432500Y-58000000D03*
%TD*%
%TO.C,C151*%
X37567500Y-34000000D03*
X36432500Y-34000000D03*
%TD*%
%TO.C,C325*%
X109567500Y-52000000D03*
X108432500Y-52000000D03*
%TD*%
%TO.C,C64*%
X76567500Y-22000000D03*
X75432500Y-22000000D03*
%TD*%
%TO.C,C88*%
X73567500Y-25000000D03*
X72432500Y-25000000D03*
%TD*%
%TO.C,C121*%
X97567500Y-28000000D03*
X96432500Y-28000000D03*
%TD*%
%TO.C,C19*%
X91567500Y-16000000D03*
X90432500Y-16000000D03*
%TD*%
%TO.C,C63*%
X73567500Y-22000000D03*
X72432500Y-22000000D03*
%TD*%
%TO.C,C222*%
X100567500Y-40000000D03*
X99432500Y-40000000D03*
%TD*%
%TO.C,C178*%
X43567500Y-37000000D03*
X42432500Y-37000000D03*
%TD*%
%TO.C,C345*%
X94567500Y-55000000D03*
X93432500Y-55000000D03*
%TD*%
%TO.C,C251*%
X37567500Y-46000000D03*
X36432500Y-46000000D03*
%TD*%
%TO.C,C30*%
X49567500Y-19000000D03*
X48432500Y-19000000D03*
%TD*%
%TO.C,C282*%
X55567500Y-49000000D03*
X54432500Y-49000000D03*
%TD*%
%TO.C,C71*%
X97567500Y-22000000D03*
X96432500Y-22000000D03*
%TD*%
%TO.C,C133*%
X58567500Y-31000000D03*
X57432500Y-31000000D03*
%TD*%
%TO.C,C182*%
X55567500Y-37000000D03*
X54432500Y-37000000D03*
%TD*%
%TO.C,C292*%
X85567500Y-49000000D03*
X84432500Y-49000000D03*
%TD*%
%TO.C,C320*%
X94567500Y-52000000D03*
X93432500Y-52000000D03*
%TD*%
%TO.C,C102*%
X40567500Y-28000000D03*
X39432500Y-28000000D03*
%TD*%
%TO.C,C139*%
X76567500Y-31000000D03*
X75432500Y-31000000D03*
%TD*%
%TO.C,C174*%
X106567500Y-34000000D03*
X105432500Y-34000000D03*
%TD*%
%TO.C,C36*%
X67567500Y-19000000D03*
X66432500Y-19000000D03*
%TD*%
%TO.C,C259*%
X61567500Y-46000000D03*
X60432500Y-46000000D03*
%TD*%
%TO.C,C214*%
X76567500Y-40000000D03*
X75432500Y-40000000D03*
%TD*%
%TO.C,C204*%
X46567500Y-40000000D03*
X45432500Y-40000000D03*
%TD*%
%TO.C,C326*%
X37567500Y-55000000D03*
X36432500Y-55000000D03*
%TD*%
%TO.C,C53*%
X43567500Y-22000000D03*
X42432500Y-22000000D03*
%TD*%
%TO.C,C166*%
X82567500Y-34000000D03*
X81432500Y-34000000D03*
%TD*%
%TO.C,C29*%
X46567500Y-19000000D03*
X45432500Y-19000000D03*
%TD*%
%TO.C,C359*%
X61567500Y-58000000D03*
X60432500Y-58000000D03*
%TD*%
%TO.C,C101*%
X37567500Y-28000000D03*
X36432500Y-28000000D03*
%TD*%
%TO.C,C272*%
X100567500Y-46000000D03*
X99432500Y-46000000D03*
%TD*%
%TO.C,C250*%
X109567500Y-43000000D03*
X108432500Y-43000000D03*
%TD*%
%TO.C,C310*%
X64567500Y-52000000D03*
X63432500Y-52000000D03*
%TD*%
%TO.C,C253*%
X43567500Y-46000000D03*
X42432500Y-46000000D03*
%TD*%
%TO.C,C79*%
X46567500Y-25000000D03*
X45432500Y-25000000D03*
%TD*%
%TO.C,C155*%
X49567500Y-34000000D03*
X48432500Y-34000000D03*
%TD*%
%TO.C,C353*%
X43567500Y-58000000D03*
X42432500Y-58000000D03*
%TD*%
%TO.C,C6*%
X52567500Y-16000000D03*
X51432500Y-16000000D03*
%TD*%
%TO.C,C287*%
X70567500Y-49000000D03*
X69432500Y-49000000D03*
%TD*%
%TO.C,C135*%
X64567500Y-31000000D03*
X63432500Y-31000000D03*
%TD*%
%TO.C,C202*%
X40567500Y-40000000D03*
X39432500Y-40000000D03*
%TD*%
%TO.C,C161*%
X67567500Y-34000000D03*
X66432500Y-34000000D03*
%TD*%
D18*
%TO.C,J1*%
X31540000Y-14200000D03*
X31540000Y-17800000D03*
X30270000Y-14200000D03*
X30270000Y-17800000D03*
X29000000Y-14200000D03*
X29000000Y-17800000D03*
X27730000Y-14200000D03*
X27730000Y-17800000D03*
X26460000Y-14200000D03*
X26460000Y-17800000D03*
%TD*%
D10*
%TO.C,C198*%
X103567500Y-37000000D03*
X102432500Y-37000000D03*
%TD*%
%TO.C,C44*%
X91567500Y-19000000D03*
X90432500Y-19000000D03*
%TD*%
D19*
%TO.C,U4*%
X30195000Y-41200000D03*
X31465000Y-41200000D03*
X32735000Y-41200000D03*
X34005000Y-41200000D03*
X34005000Y-48400000D03*
X32735000Y-48400000D03*
X31465000Y-48400000D03*
X30195000Y-48400000D03*
%TD*%
D20*
%TO.C,L2*%
X14992500Y-47000000D03*
X24007500Y-47000000D03*
%TD*%
D10*
%TO.C,C327*%
X40567500Y-55000000D03*
X39432500Y-55000000D03*
%TD*%
%TO.C,C352*%
X40567500Y-58000000D03*
X39432500Y-58000000D03*
%TD*%
%TO.C,C233*%
X58567500Y-43000000D03*
X57432500Y-43000000D03*
%TD*%
%TO.C,C24*%
X106567500Y-16000000D03*
X105432500Y-16000000D03*
%TD*%
%TO.C,C213*%
X73567500Y-40000000D03*
X72432500Y-40000000D03*
%TD*%
%TO.C,C122*%
X100567500Y-28000000D03*
X99432500Y-28000000D03*
%TD*%
D21*
%TO.C,C403*%
X28350000Y-50600000D03*
X26450000Y-50600000D03*
%TD*%
D10*
%TO.C,C203*%
X43567500Y-40000000D03*
X42432500Y-40000000D03*
%TD*%
%TO.C,C190*%
X79567500Y-37000000D03*
X78432500Y-37000000D03*
%TD*%
%TO.C,C369*%
X91567500Y-58000000D03*
X90432500Y-58000000D03*
%TD*%
%TO.C,C342*%
X85567500Y-55000000D03*
X84432500Y-55000000D03*
%TD*%
%TO.C,C263*%
X73567500Y-46000000D03*
X72432500Y-46000000D03*
%TD*%
%TO.C,C152*%
X40567500Y-34000000D03*
X39432500Y-34000000D03*
%TD*%
%TO.C,C56*%
X52567500Y-22000000D03*
X51432500Y-22000000D03*
%TD*%
%TO.C,C216*%
X82567500Y-40000000D03*
X81432500Y-40000000D03*
%TD*%
%TO.C,C186*%
X67567500Y-37000000D03*
X66432500Y-37000000D03*
%TD*%
%TO.C,C157*%
X55567500Y-34000000D03*
X54432500Y-34000000D03*
%TD*%
%TO.C,C290*%
X79567500Y-49000000D03*
X78432500Y-49000000D03*
%TD*%
%TO.C,C286*%
X67567500Y-49000000D03*
X66432500Y-49000000D03*
%TD*%
%TO.C,C367*%
X85567500Y-58000000D03*
X84432500Y-58000000D03*
%TD*%
%TO.C,C81*%
X52567500Y-25000000D03*
X51432500Y-25000000D03*
%TD*%
%TO.C,C254*%
X46567500Y-46000000D03*
X45432500Y-46000000D03*
%TD*%
%TO.C,C25*%
X109567500Y-16000000D03*
X108432500Y-16000000D03*
%TD*%
%TO.C,C283*%
X58567500Y-49000000D03*
X57432500Y-49000000D03*
%TD*%
%TO.C,C307*%
X55567500Y-52000000D03*
X54432500Y-52000000D03*
%TD*%
%TO.C,C333*%
X58567500Y-55000000D03*
X57432500Y-55000000D03*
%TD*%
%TO.C,C200*%
X109567500Y-37000000D03*
X108432500Y-37000000D03*
%TD*%
%TO.C,C117*%
X85567500Y-28000000D03*
X84432500Y-28000000D03*
%TD*%
%TO.C,C149*%
X106567500Y-31000000D03*
X105432500Y-31000000D03*
%TD*%
%TO.C,C363*%
X73567500Y-58000000D03*
X72432500Y-58000000D03*
%TD*%
%TO.C,C183*%
X58567500Y-37000000D03*
X57432500Y-37000000D03*
%TD*%
%TO.C,C358*%
X58567500Y-58000000D03*
X57432500Y-58000000D03*
%TD*%
%TO.C,C89*%
X76567500Y-25000000D03*
X75432500Y-25000000D03*
%TD*%
%TO.C,C14*%
X76567500Y-16000000D03*
X75432500Y-16000000D03*
%TD*%
%TO.C,C118*%
X88567500Y-28000000D03*
X87432500Y-28000000D03*
%TD*%
%TO.C,C103*%
X43567500Y-28000000D03*
X42432500Y-28000000D03*
%TD*%
%TO.C,C264*%
X76567500Y-46000000D03*
X75432500Y-46000000D03*
%TD*%
%TO.C,C245*%
X94567500Y-43000000D03*
X93432500Y-43000000D03*
%TD*%
%TO.C,C119*%
X91567500Y-28000000D03*
X90432500Y-28000000D03*
%TD*%
%TO.C,C347*%
X100567500Y-55000000D03*
X99432500Y-55000000D03*
%TD*%
%TO.C,C321*%
X97567500Y-52000000D03*
X96432500Y-52000000D03*
%TD*%
%TO.C,C234*%
X61567500Y-43000000D03*
X60432500Y-43000000D03*
%TD*%
%TO.C,C323*%
X103567500Y-52000000D03*
X102432500Y-52000000D03*
%TD*%
%TO.C,C159*%
X61567500Y-34000000D03*
X60432500Y-34000000D03*
%TD*%
%TO.C,C156*%
X52567500Y-34000000D03*
X51432500Y-34000000D03*
%TD*%
%TO.C,C238*%
X73567500Y-43000000D03*
X72432500Y-43000000D03*
%TD*%
%TO.C,C188*%
X73567500Y-37000000D03*
X72432500Y-37000000D03*
%TD*%
%TO.C,C145*%
X94567500Y-31000000D03*
X93432500Y-31000000D03*
%TD*%
%TO.C,C47*%
X100567500Y-19000000D03*
X99432500Y-19000000D03*
%TD*%
%TO.C,C223*%
X103567500Y-40000000D03*
X102432500Y-40000000D03*
%TD*%
%TO.C,C111*%
X67567500Y-28000000D03*
X66432500Y-28000000D03*
%TD*%
%TO.C,C13*%
X73567500Y-16000000D03*
X72432500Y-16000000D03*
%TD*%
%TO.C,C7*%
X55567500Y-16000000D03*
X54432500Y-16000000D03*
%TD*%
%TO.C,C18*%
X88567500Y-16000000D03*
X87432500Y-16000000D03*
%TD*%
%TO.C,C41*%
X82567500Y-19000000D03*
X81432500Y-19000000D03*
%TD*%
%TO.C,C298*%
X103567500Y-49000000D03*
X102432500Y-49000000D03*
%TD*%
%TO.C,C124*%
X106567500Y-28000000D03*
X105432500Y-28000000D03*
%TD*%
%TO.C,C23*%
X103567500Y-16000000D03*
X102432500Y-16000000D03*
%TD*%
%TO.C,C5*%
X49567500Y-16000000D03*
X48432500Y-16000000D03*
%TD*%
%TO.C,C107*%
X55567500Y-28000000D03*
X54432500Y-28000000D03*
%TD*%
%TO.C,C59*%
X61567500Y-22000000D03*
X60432500Y-22000000D03*
%TD*%
%TO.C,C45*%
X94567500Y-19000000D03*
X93432500Y-19000000D03*
%TD*%
%TO.C,C211*%
X67567500Y-40000000D03*
X66432500Y-40000000D03*
%TD*%
%TO.C,C28*%
X43567500Y-19000000D03*
X42432500Y-19000000D03*
%TD*%
%TO.C,C127*%
X40567500Y-31000000D03*
X39432500Y-31000000D03*
%TD*%
%TO.C,C277*%
X40567500Y-49000000D03*
X39432500Y-49000000D03*
%TD*%
%TO.C,C91*%
X82567500Y-25000000D03*
X81432500Y-25000000D03*
%TD*%
%TO.C,C371*%
X97567500Y-58000000D03*
X96432500Y-58000000D03*
%TD*%
%TO.C,C72*%
X100567500Y-22000000D03*
X99432500Y-22000000D03*
%TD*%
%TO.C,C257*%
X55567500Y-46000000D03*
X54432500Y-46000000D03*
%TD*%
%TO.C,C15*%
X79567500Y-16000000D03*
X78432500Y-16000000D03*
%TD*%
%TO.C,C116*%
X82567500Y-28000000D03*
X81432500Y-28000000D03*
%TD*%
%TO.C,C344*%
X91567500Y-55000000D03*
X90432500Y-55000000D03*
%TD*%
%TO.C,C75*%
X109567500Y-22000000D03*
X108432500Y-22000000D03*
%TD*%
%TO.C,C62*%
X70567500Y-22000000D03*
X69432500Y-22000000D03*
%TD*%
%TO.C,C232*%
X55567500Y-43000000D03*
X54432500Y-43000000D03*
%TD*%
%TO.C,C167*%
X85567500Y-34000000D03*
X84432500Y-34000000D03*
%TD*%
%TO.C,C134*%
X61567500Y-31000000D03*
X60432500Y-31000000D03*
%TD*%
%TO.C,C302*%
X40567500Y-52000000D03*
X39432500Y-52000000D03*
%TD*%
%TO.C,C265*%
X79567500Y-46000000D03*
X78432500Y-46000000D03*
%TD*%
%TO.C,C276*%
X37567500Y-49000000D03*
X36432500Y-49000000D03*
%TD*%
%TO.C,C55*%
X49567500Y-22000000D03*
X48432500Y-22000000D03*
%TD*%
%TO.C,C331*%
X52567500Y-55000000D03*
X51432500Y-55000000D03*
%TD*%
%TO.C,C17*%
X85567500Y-16000000D03*
X84432500Y-16000000D03*
%TD*%
%TO.C,C48*%
X103567500Y-19000000D03*
X102432500Y-19000000D03*
%TD*%
%TO.C,C218*%
X88567500Y-40000000D03*
X87432500Y-40000000D03*
%TD*%
%TO.C,C279*%
X46567500Y-49000000D03*
X45432500Y-49000000D03*
%TD*%
%TO.C,C140*%
X79567500Y-31000000D03*
X78432500Y-31000000D03*
%TD*%
%TO.C,C130*%
X49567500Y-31000000D03*
X48432500Y-31000000D03*
%TD*%
M02*
