M48
; DRILL file {KiCad (5.99.0-12974-ge12f9a194d)} date 2021 November 21, Sunday 23:45:16
; FORMAT={-:-/ absolute / inch / decimal}
; #@! TF.CreationDate,2021-11-21T23:45:16-08:00
; #@! TF.GenerationSoftware,Kicad,Pcbnew,(5.99.0-12974-ge12f9a194d)
; #@! TF.FileFunction,Plated,1,4,PTH
FMAT,2
INCH
; #@! TA.AperFunction,Plated,PTH,ViaDrill
T1C0.0079
; #@! TA.AperFunction,Plated,PTH,ComponentDrill
T2C0.0079
; #@! TA.AperFunction,Plated,PTH,ViaDrill
T3C0.0138
; #@! TA.AperFunction,Plated,PTH,ComponentDrill
T4C0.0236
; #@! TA.AperFunction,Plated,PTH,ComponentDrill
T5C0.0433
%
G90
G05
T1
X0.4921Y-1.0669
X0.4921Y-1.0984
X0.4921Y-1.1299
X0.4921Y-1.1614
X0.4921Y-1.1929
X0.5039Y-1.0827
X0.5039Y-1.1142
X0.5039Y-1.1457
X0.5039Y-1.1772
X0.5157Y-1.0669
X0.5157Y-1.0984
X0.5157Y-1.1299
X0.5157Y-1.1614
X0.5157Y-1.1929
X0.5276Y-1.0827
X0.5276Y-1.1142
X0.5276Y-1.1457
X0.5276Y-1.1772
X0.5394Y-1.0669
X0.5394Y-1.0984
X0.5394Y-1.1299
X0.5394Y-1.1614
X0.5394Y-1.1929
X0.5472Y-1.7638
X0.5472Y-1.7953
X0.5472Y-1.8268
X0.5472Y-1.8583
X0.5512Y-0.5315
X0.5512Y-1.0827
X0.5512Y-1.1142
X0.5512Y-1.1457
X0.5512Y-1.1772
X0.5531Y-1.4788
X0.5565Y-1.5433
X0.5591Y-1.7795
X0.5591Y-1.811
X0.5591Y-1.8425
X0.563Y-1.0669
X0.563Y-1.0984
X0.563Y-1.1299
X0.563Y-1.1614
X0.563Y-1.1929
X0.5709Y-1.7638
X0.5709Y-1.7953
X0.5709Y-1.8268
X0.5709Y-1.8583
X0.5748Y-1.0827
X0.5748Y-1.1142
X0.5748Y-1.1457
X0.5748Y-1.1772
X0.5827Y-1.7795
X0.5827Y-1.811
X0.5827Y-1.8425
X0.5866Y-1.0669
X0.5866Y-1.0984
X0.5866Y-1.1299
X0.5866Y-1.1614
X0.5866Y-1.1929
X0.5906Y-1.5527
X0.5945Y-1.7638
X0.5945Y-1.7953
X0.5945Y-1.8268
X0.5945Y-1.8583
X0.5984Y-1.0827
X0.5984Y-1.1142
X0.5984Y-1.1457
X0.5984Y-1.1772
X0.6014Y-1.6569
X0.6063Y-1.7795
X0.6063Y-1.811
X0.6063Y-1.8425
X0.6102Y-0.5315
X0.6126Y-1.6379
X0.6181Y-1.7638
X0.6181Y-1.7953
X0.6181Y-1.8268
X0.6181Y-1.8583
X0.626Y-1.5236
X0.6299Y-1.7795
X0.6299Y-1.811
X0.6299Y-1.8425
X0.6693Y-0.5315
X0.685Y-1.3543
X0.685Y-1.3858
X0.685Y-1.4173
X0.689Y-1.7638
X0.6969Y-1.3701
X0.6969Y-1.4016
X0.7087Y-1.3543
X0.7087Y-1.3858
X0.7087Y-1.4173
X0.7205Y-1.3386
X0.7205Y-1.3701
X0.7205Y-1.4016
X0.7205Y-1.4331
X0.7283Y-0.5315
X0.7323Y-1.3228
X0.7323Y-1.3543
X0.7323Y-1.3858
X0.7323Y-1.4173
X0.7441Y-1.3386
X0.7441Y-1.3701
X0.7441Y-1.4016
X0.7441Y-1.4331
X0.7441Y-1.607
X0.7451Y-1.5329
X0.7451Y-1.5787
X0.748Y-1.7323
X0.7559Y-1.3228
X0.7559Y-1.3543
X0.7559Y-1.3858
X0.7559Y-1.4173
X0.7638Y-1.0315
X0.7677Y-1.3071
X0.7677Y-1.3386
X0.7677Y-1.3701
X0.7677Y-1.4016
X0.7677Y-1.4331
X0.7717Y-1.9409
X0.7717Y-1.9724
X0.7717Y-2.0039
X0.7717Y-2.0354
X0.7717Y-2.0669
X0.7795Y-1.3228
X0.7795Y-1.3543
X0.7795Y-1.3858
X0.7795Y-1.4173
X0.7835Y-1.8307
X0.7835Y-1.9567
X0.7835Y-1.9882
X0.7835Y-2.0197
X0.7835Y-2.0512
X0.7874Y-1.0079
X0.7913Y-1.3386
X0.7913Y-1.3701
X0.7913Y-1.4016
X0.7953Y-1.9409
X0.7953Y-1.9724
X0.7953Y-2.0039
X0.7953Y-2.0354
X0.7953Y-2.0669
X0.7995Y-1.6027
X0.8031Y-1.3543
X0.8031Y-1.3858
X0.8031Y-1.4173
X0.8071Y-1.9567
X0.8071Y-1.9882
X0.8071Y-2.0197
X0.8071Y-2.0512
X0.815Y-1.3701
X0.815Y-1.4016
X0.8189Y-1.9409
X0.8189Y-1.9724
X0.8189Y-2.0039
X0.8189Y-2.0354
X0.8189Y-2.0669
X0.8268Y-1.3543
X0.8268Y-1.3858
X0.8268Y-1.4173
X0.8268Y-1.6024
X0.8307Y-1.9567
X0.8307Y-1.9882
X0.8307Y-2.0197
X0.8307Y-2.0512
X0.8425Y-1.9409
X0.8425Y-1.9724
X0.8425Y-2.0039
X0.8425Y-2.0354
X0.8425Y-2.0669
X0.8543Y-1.0866
X0.8701Y-1.0118
X0.8898Y-1.7874
X0.8898Y-1.8189
X0.8898Y-1.8504
X0.8898Y-1.8819
X0.8898Y-1.9134
X0.8898Y-1.9449
X0.9016Y-1.8031
X0.9016Y-1.8346
X0.9016Y-1.8661
X0.9016Y-1.8976
X0.9016Y-1.9291
X0.9134Y-1.7874
X0.9134Y-1.8189
X0.9134Y-1.8504
X0.9134Y-1.8819
X0.9134Y-1.9134
X0.9134Y-1.9449
X0.9252Y-1.8031
X0.9252Y-1.8346
X0.9252Y-1.8661
X0.9252Y-1.8976
X0.9252Y-1.9291
X0.937Y-1.7874
X0.937Y-1.8189
X0.937Y-1.8504
X0.937Y-1.8819
X0.937Y-1.9134
X0.937Y-1.9449
X0.94Y-1.4329
X0.9488Y-1.8031
X0.9488Y-1.8346
X0.9488Y-1.8661
X0.9488Y-1.8976
X0.9488Y-1.9291
X0.9528Y-1.2008
X0.9606Y-1.7874
X0.9606Y-1.8189
X0.9606Y-1.8504
X0.9606Y-1.8819
X0.9606Y-1.9134
X0.9606Y-1.9449
X0.9724Y-1.8031
X0.9724Y-1.8346
X0.9724Y-1.8661
X0.9724Y-1.8976
X0.9724Y-1.9291
X0.9843Y-1.7874
X0.9843Y-1.8189
X0.9843Y-1.8504
X0.9843Y-1.8819
X0.9843Y-1.9134
X0.9843Y-1.9449
X0.9961Y-1.8031
X0.9961Y-1.8346
X0.9961Y-1.8661
X0.9961Y-1.8976
X0.9961Y-1.9291
X1.0079Y-1.7874
X1.0079Y-1.8189
X1.0079Y-1.8504
X1.0079Y-1.8819
X1.0079Y-1.9134
X1.0079Y-1.9449
X1.0197Y-2.1102
X1.0551Y-1.4764
X1.0551Y-1.5079
X1.0551Y-1.5394
X1.0669Y-1.4606
X1.0669Y-1.4921
X1.0669Y-1.5236
X1.0669Y-2.2874
X1.0787Y-1.4449
X1.0787Y-1.4764
X1.0787Y-1.5079
X1.0787Y-1.5394
X1.0906Y-1.4606
X1.0906Y-1.4921
X1.0906Y-1.5236
X1.1024Y-1.4449
X1.1024Y-1.4764
X1.1024Y-1.5079
X1.1024Y-1.5394
X1.1102Y-0.8031
X1.1142Y-1.4606
X1.1142Y-1.4921
X1.1142Y-1.5236
X1.122Y-0.8228
X1.126Y-1.4449
X1.126Y-1.4764
X1.126Y-1.5079
X1.126Y-1.5394
X1.1339Y-1.0512
X1.1378Y-1.4606
X1.1378Y-1.4921
X1.1378Y-1.5236
X1.1586Y-1.2105
X1.1654Y-1.1732
X1.1888Y-1.622
X1.1888Y-1.9055
X1.2061Y-2.0315
X1.2061Y-2.0709
X1.2388Y-1.622
X1.2388Y-1.9055
X1.248Y-2.1063
X1.2638Y-1.1417
X1.2717Y-1.8031
X1.2874Y-1.8465
X1.2888Y-1.622
X1.2919Y-1.1745
X1.311Y-1.1142
X1.3346Y-1.1102
X1.3425Y-1.3465
X1.3425Y-1.3661
X1.4075Y-0.6791
X1.4075Y-0.7972
X1.4075Y-0.9154
X1.4075Y-1.0335
X1.4075Y-1.1516
X1.4075Y-1.2697
X1.4075Y-1.3878
X1.4075Y-1.5059
X1.4075Y-1.624
X1.4075Y-1.7421
X1.4075Y-1.8602
X1.4075Y-1.9783
X1.4075Y-2.0965
X1.4075Y-2.2146
X1.4075Y-2.3327
X1.4567Y-0.6787
X1.4567Y-0.7968
X1.4567Y-0.915
X1.4567Y-1.0331
X1.4567Y-1.1512
X1.4567Y-1.2693
X1.4567Y-1.3874
X1.4567Y-1.5055
X1.4567Y-1.6236
X1.4567Y-1.7417
X1.4567Y-1.8598
X1.4567Y-1.9779
X1.4567Y-2.0961
X1.4567Y-2.2142
X1.4567Y-2.3323
X1.5039Y-0.6299
X1.5039Y-0.748
X1.5039Y-0.8661
X1.5039Y-0.9843
X1.5039Y-1.1024
X1.5039Y-1.2205
X1.5039Y-1.3386
X1.5039Y-1.4567
X1.5039Y-1.5748
X1.5039Y-1.6929
X1.5039Y-1.811
X1.5039Y-1.9291
X1.5039Y-2.0472
X1.5039Y-2.1654
X1.5039Y-2.2835
X1.5256Y-0.6791
X1.5256Y-0.7972
X1.5256Y-0.9154
X1.5256Y-1.0335
X1.5256Y-1.1516
X1.5256Y-1.2697
X1.5256Y-1.3878
X1.5256Y-1.5059
X1.5256Y-1.624
X1.5256Y-1.7421
X1.5256Y-1.8602
X1.5256Y-1.9783
X1.5256Y-2.0965
X1.5256Y-2.2146
X1.5256Y-2.3327
X1.5748Y-0.6787
X1.5748Y-0.7968
X1.5748Y-0.915
X1.5748Y-1.0331
X1.5748Y-1.1512
X1.5748Y-1.2693
X1.5748Y-1.3874
X1.5748Y-1.5055
X1.5748Y-1.6236
X1.5748Y-1.7417
X1.5748Y-1.8598
X1.5748Y-1.9779
X1.5748Y-2.0961
X1.5748Y-2.2142
X1.5748Y-2.3323
X1.622Y-0.6299
X1.622Y-0.748
X1.622Y-0.8661
X1.622Y-0.9843
X1.622Y-1.1024
X1.622Y-1.2205
X1.622Y-1.3386
X1.622Y-1.4567
X1.622Y-1.5748
X1.622Y-1.6929
X1.622Y-1.811
X1.622Y-1.9291
X1.622Y-2.0472
X1.622Y-2.1654
X1.622Y-2.2835
X1.6437Y-0.6791
X1.6437Y-0.7972
X1.6437Y-0.9154
X1.6437Y-1.0335
X1.6437Y-1.1516
X1.6437Y-1.2697
X1.6437Y-1.3878
X1.6437Y-1.5059
X1.6437Y-1.624
X1.6437Y-1.7421
X1.6437Y-1.8602
X1.6437Y-1.9783
X1.6437Y-2.0965
X1.6437Y-2.2146
X1.6437Y-2.3327
X1.6929Y-0.6787
X1.6929Y-0.7968
X1.6929Y-0.915
X1.6929Y-1.0331
X1.6929Y-1.1512
X1.6929Y-1.2693
X1.6929Y-1.3874
X1.6929Y-1.5055
X1.6929Y-1.6236
X1.6929Y-1.7417
X1.6929Y-1.8598
X1.6929Y-1.9779
X1.6929Y-2.0961
X1.6929Y-2.2142
X1.6929Y-2.3323
X1.7402Y-0.6299
X1.7402Y-0.748
X1.7402Y-0.8661
X1.7402Y-0.9843
X1.7402Y-1.1024
X1.7402Y-1.2205
X1.7402Y-1.3386
X1.7402Y-1.4567
X1.7402Y-1.5748
X1.7402Y-1.6929
X1.7402Y-1.811
X1.7402Y-1.9291
X1.7402Y-2.0472
X1.7402Y-2.1654
X1.7402Y-2.2835
X1.7618Y-0.6791
X1.7618Y-0.7972
X1.7618Y-0.9154
X1.7618Y-1.0335
X1.7618Y-1.1516
X1.7618Y-1.2697
X1.7618Y-1.3878
X1.7618Y-1.5059
X1.7618Y-1.624
X1.7618Y-1.7421
X1.7618Y-1.8602
X1.7618Y-1.9783
X1.7618Y-2.0965
X1.7618Y-2.2146
X1.7618Y-2.3327
X1.811Y-0.6787
X1.811Y-0.7968
X1.811Y-0.915
X1.811Y-1.0331
X1.811Y-1.1512
X1.811Y-1.2693
X1.811Y-1.3874
X1.811Y-1.5055
X1.811Y-1.6236
X1.811Y-1.7417
X1.811Y-1.8598
X1.811Y-1.9779
X1.811Y-2.0961
X1.811Y-2.2142
X1.811Y-2.3323
X1.8583Y-0.6299
X1.8583Y-0.748
X1.8583Y-0.8661
X1.8583Y-0.9843
X1.8583Y-1.1024
X1.8583Y-1.2205
X1.8583Y-1.3386
X1.8583Y-1.4567
X1.8583Y-1.5748
X1.8583Y-1.6929
X1.8583Y-1.811
X1.8583Y-1.9291
X1.8583Y-2.0472
X1.8583Y-2.1654
X1.8583Y-2.2835
X1.8799Y-0.6791
X1.8799Y-0.7972
X1.8799Y-0.9154
X1.8799Y-1.0335
X1.8799Y-1.1516
X1.8799Y-1.2697
X1.8799Y-1.3878
X1.8799Y-1.5059
X1.8799Y-1.624
X1.8799Y-1.7421
X1.8799Y-1.8602
X1.8799Y-1.9783
X1.8799Y-2.0965
X1.8799Y-2.2146
X1.8799Y-2.3327
X1.9291Y-0.6787
X1.9291Y-0.7968
X1.9291Y-0.915
X1.9291Y-1.0331
X1.9291Y-1.1512
X1.9291Y-1.2693
X1.9291Y-1.3874
X1.9291Y-1.5055
X1.9291Y-1.6236
X1.9291Y-1.7417
X1.9291Y-1.8598
X1.9291Y-1.9779
X1.9291Y-2.0961
X1.9291Y-2.2142
X1.9291Y-2.3323
X1.9764Y-0.6299
X1.9764Y-0.748
X1.9764Y-0.8661
X1.9764Y-0.9843
X1.9764Y-1.1024
X1.9764Y-1.2205
X1.9764Y-1.3386
X1.9764Y-1.4567
X1.9764Y-1.5748
X1.9764Y-1.6929
X1.9764Y-1.811
X1.9764Y-1.9291
X1.9764Y-2.0472
X1.9764Y-2.1654
X1.9764Y-2.2835
X1.998Y-0.6791
X1.998Y-0.7972
X1.998Y-0.9154
X1.998Y-1.0335
X1.998Y-1.1516
X1.998Y-1.2697
X1.998Y-1.3878
X1.998Y-1.5059
X1.998Y-1.624
X1.998Y-1.7421
X1.998Y-1.8602
X1.998Y-1.9783
X1.998Y-2.0965
X1.998Y-2.2146
X1.998Y-2.3327
X2.0472Y-0.6787
X2.0472Y-0.7968
X2.0472Y-0.915
X2.0472Y-1.0331
X2.0472Y-1.1512
X2.0472Y-1.2693
X2.0472Y-1.3874
X2.0472Y-1.5055
X2.0472Y-1.6236
X2.0472Y-1.7417
X2.0472Y-1.8598
X2.0472Y-1.9779
X2.0472Y-2.0961
X2.0472Y-2.2142
X2.0472Y-2.3323
X2.0945Y-0.6299
X2.0945Y-0.748
X2.0945Y-0.8661
X2.0945Y-0.9843
X2.0945Y-1.1024
X2.0945Y-1.2205
X2.0945Y-1.3386
X2.0945Y-1.4567
X2.0945Y-1.5748
X2.0945Y-1.6929
X2.0945Y-1.811
X2.0945Y-1.9291
X2.0945Y-2.0472
X2.0945Y-2.1654
X2.0945Y-2.2835
X2.1161Y-0.6791
X2.1161Y-0.7972
X2.1161Y-0.9154
X2.1161Y-1.0335
X2.1161Y-1.1516
X2.1161Y-1.2697
X2.1161Y-1.3878
X2.1161Y-1.5059
X2.1161Y-1.624
X2.1161Y-1.7421
X2.1161Y-1.8602
X2.1161Y-1.9783
X2.1161Y-2.0965
X2.1161Y-2.2146
X2.1161Y-2.3327
X2.1654Y-0.6787
X2.1654Y-0.7968
X2.1654Y-0.915
X2.1654Y-1.0331
X2.1654Y-1.1512
X2.1654Y-1.2693
X2.1654Y-1.3874
X2.1654Y-1.5055
X2.1654Y-1.6236
X2.1654Y-1.7417
X2.1654Y-1.8598
X2.1654Y-1.9779
X2.1654Y-2.0961
X2.1654Y-2.2142
X2.1654Y-2.3323
X2.2126Y-0.6299
X2.2126Y-0.748
X2.2126Y-0.8661
X2.2126Y-0.9843
X2.2126Y-1.1024
X2.2126Y-1.2205
X2.2126Y-1.3386
X2.2126Y-1.4567
X2.2126Y-1.5748
X2.2126Y-1.6929
X2.2126Y-1.811
X2.2126Y-1.9291
X2.2126Y-2.0472
X2.2126Y-2.1654
X2.2126Y-2.2835
X2.2343Y-0.6791
X2.2343Y-0.7972
X2.2343Y-0.9154
X2.2343Y-1.0335
X2.2343Y-1.1516
X2.2343Y-1.2697
X2.2343Y-1.3878
X2.2343Y-1.5059
X2.2343Y-1.624
X2.2343Y-1.7421
X2.2343Y-1.8602
X2.2343Y-1.9783
X2.2343Y-2.0965
X2.2343Y-2.2146
X2.2343Y-2.3327
X2.2835Y-0.6787
X2.2835Y-0.7968
X2.2835Y-0.915
X2.2835Y-1.0331
X2.2835Y-1.1512
X2.2835Y-1.2693
X2.2835Y-1.3874
X2.2835Y-1.5055
X2.2835Y-1.6236
X2.2835Y-1.7417
X2.2835Y-1.8598
X2.2835Y-1.9779
X2.2835Y-2.0961
X2.2835Y-2.2142
X2.2835Y-2.3323
X2.3307Y-0.6299
X2.3307Y-0.748
X2.3307Y-0.8661
X2.3307Y-0.9843
X2.3307Y-1.1024
X2.3307Y-1.2205
X2.3307Y-1.3386
X2.3307Y-1.4567
X2.3307Y-1.5748
X2.3307Y-1.6929
X2.3307Y-1.811
X2.3307Y-1.9291
X2.3307Y-2.0472
X2.3307Y-2.1654
X2.3307Y-2.2835
X2.3524Y-0.6791
X2.3524Y-0.7972
X2.3524Y-0.9154
X2.3524Y-1.0335
X2.3524Y-1.1516
X2.3524Y-1.2697
X2.3524Y-1.3878
X2.3524Y-1.5059
X2.3524Y-1.624
X2.3524Y-1.7421
X2.3524Y-1.8602
X2.3524Y-1.9783
X2.3524Y-2.0965
X2.3524Y-2.2146
X2.3524Y-2.3327
X2.4016Y-0.6787
X2.4016Y-0.7968
X2.4016Y-0.915
X2.4016Y-1.0331
X2.4016Y-1.1512
X2.4016Y-1.2693
X2.4016Y-1.3874
X2.4016Y-1.5055
X2.4016Y-1.6236
X2.4016Y-1.7417
X2.4016Y-1.8598
X2.4016Y-1.9779
X2.4016Y-2.0961
X2.4016Y-2.2142
X2.4016Y-2.3323
X2.4488Y-0.6299
X2.4488Y-0.748
X2.4488Y-0.8661
X2.4488Y-0.9843
X2.4488Y-1.1024
X2.4488Y-1.2205
X2.4488Y-1.3386
X2.4488Y-1.4567
X2.4488Y-1.5748
X2.4488Y-1.6929
X2.4488Y-1.811
X2.4488Y-1.9291
X2.4488Y-2.0472
X2.4488Y-2.1654
X2.4488Y-2.2835
X2.4705Y-0.6791
X2.4705Y-0.7972
X2.4705Y-0.9154
X2.4705Y-1.0335
X2.4705Y-1.1516
X2.4705Y-1.2697
X2.4705Y-1.3878
X2.4705Y-1.5059
X2.4705Y-1.624
X2.4705Y-1.7421
X2.4705Y-1.8602
X2.4705Y-1.9783
X2.4705Y-2.0965
X2.4705Y-2.2146
X2.4705Y-2.3327
X2.5197Y-0.6787
X2.5197Y-0.7968
X2.5197Y-0.915
X2.5197Y-1.0331
X2.5197Y-1.1512
X2.5197Y-1.2693
X2.5197Y-1.3874
X2.5197Y-1.5055
X2.5197Y-1.6236
X2.5197Y-1.7417
X2.5197Y-1.8598
X2.5197Y-1.9779
X2.5197Y-2.0961
X2.5197Y-2.2142
X2.5197Y-2.3323
X2.5669Y-0.6299
X2.5669Y-0.748
X2.5669Y-0.8661
X2.5669Y-0.9843
X2.5669Y-1.1024
X2.5669Y-1.2205
X2.5669Y-1.3386
X2.5669Y-1.4567
X2.5669Y-1.5748
X2.5669Y-1.6929
X2.5669Y-1.811
X2.5669Y-1.9291
X2.5669Y-2.0472
X2.5669Y-2.1654
X2.5669Y-2.2835
X2.5886Y-0.6791
X2.5886Y-0.7972
X2.5886Y-0.9154
X2.5886Y-1.0335
X2.5886Y-1.1516
X2.5886Y-1.2697
X2.5886Y-1.3878
X2.5886Y-1.5059
X2.5886Y-1.624
X2.5886Y-1.7421
X2.5886Y-1.8602
X2.5886Y-1.9783
X2.5886Y-2.0965
X2.5886Y-2.2146
X2.5886Y-2.3327
X2.6378Y-0.6787
X2.6378Y-0.7968
X2.6378Y-0.915
X2.6378Y-1.0331
X2.6378Y-1.1512
X2.6378Y-1.2693
X2.6378Y-1.3874
X2.6378Y-1.5055
X2.6378Y-1.6236
X2.6378Y-1.7417
X2.6378Y-1.8598
X2.6378Y-1.9779
X2.6378Y-2.0961
X2.6378Y-2.2142
X2.6378Y-2.3323
X2.685Y-0.6299
X2.685Y-0.748
X2.685Y-0.8661
X2.685Y-0.9843
X2.685Y-1.1024
X2.685Y-1.2205
X2.685Y-1.3386
X2.685Y-1.4567
X2.685Y-1.5748
X2.685Y-1.6929
X2.685Y-1.811
X2.685Y-1.9291
X2.685Y-2.0472
X2.685Y-2.1654
X2.685Y-2.2835
X2.7067Y-0.6791
X2.7067Y-0.7972
X2.7067Y-0.9154
X2.7067Y-1.0335
X2.7067Y-1.1516
X2.7067Y-1.2697
X2.7067Y-1.3878
X2.7067Y-1.5059
X2.7067Y-1.624
X2.7067Y-1.7421
X2.7067Y-1.8602
X2.7067Y-1.9783
X2.7067Y-2.0965
X2.7067Y-2.2146
X2.7067Y-2.3327
X2.7559Y-0.6787
X2.7559Y-0.7968
X2.7559Y-0.915
X2.7559Y-1.0331
X2.7559Y-1.1512
X2.7559Y-1.2693
X2.7559Y-1.3874
X2.7559Y-1.5055
X2.7559Y-1.6236
X2.7559Y-1.7417
X2.7559Y-1.8598
X2.7559Y-1.9779
X2.7559Y-2.0961
X2.7559Y-2.2142
X2.7559Y-2.3323
X2.8031Y-0.6299
X2.8031Y-0.748
X2.8031Y-0.8661
X2.8031Y-0.9843
X2.8031Y-1.1024
X2.8031Y-1.2205
X2.8031Y-1.3386
X2.8031Y-1.4567
X2.8031Y-1.5748
X2.8031Y-1.6929
X2.8031Y-1.811
X2.8031Y-1.9291
X2.8031Y-2.0472
X2.8031Y-2.1654
X2.8031Y-2.2835
X2.8248Y-0.6791
X2.8248Y-0.7972
X2.8248Y-0.9154
X2.8248Y-1.0335
X2.8248Y-1.1516
X2.8248Y-1.2697
X2.8248Y-1.3878
X2.8248Y-1.5059
X2.8248Y-1.624
X2.8248Y-1.7421
X2.8248Y-1.8602
X2.8248Y-1.9783
X2.8248Y-2.0965
X2.8248Y-2.2146
X2.8248Y-2.3327
X2.874Y-0.6787
X2.874Y-0.7968
X2.874Y-0.915
X2.874Y-1.0331
X2.874Y-1.1512
X2.874Y-1.2693
X2.874Y-1.3874
X2.874Y-1.5055
X2.874Y-1.6236
X2.874Y-1.7417
X2.874Y-1.8598
X2.874Y-1.9779
X2.874Y-2.0961
X2.874Y-2.2142
X2.874Y-2.3323
X2.9213Y-0.6299
X2.9213Y-0.748
X2.9213Y-0.8661
X2.9213Y-0.9843
X2.9213Y-1.1024
X2.9213Y-1.2205
X2.9213Y-1.3386
X2.9213Y-1.4567
X2.9213Y-1.5748
X2.9213Y-1.6929
X2.9213Y-1.811
X2.9213Y-1.9291
X2.9213Y-2.0472
X2.9213Y-2.1654
X2.9213Y-2.2835
X2.9429Y-0.6791
X2.9429Y-0.7972
X2.9429Y-0.9154
X2.9429Y-1.0335
X2.9429Y-1.1516
X2.9429Y-1.2697
X2.9429Y-1.3878
X2.9429Y-1.5059
X2.9429Y-1.624
X2.9429Y-1.7421
X2.9429Y-1.8602
X2.9429Y-1.9783
X2.9429Y-2.0965
X2.9429Y-2.2146
X2.9429Y-2.3327
X2.9921Y-0.6787
X2.9921Y-0.7968
X2.9921Y-0.915
X2.9921Y-1.0331
X2.9921Y-1.1512
X2.9921Y-1.2693
X2.9921Y-1.3874
X2.9921Y-1.5055
X2.9921Y-1.6236
X2.9921Y-1.7417
X2.9921Y-1.8598
X2.9921Y-1.9779
X2.9921Y-2.0961
X2.9921Y-2.2142
X2.9921Y-2.3323
X3.0394Y-0.6299
X3.0394Y-0.748
X3.0394Y-0.8661
X3.0394Y-0.9843
X3.0394Y-1.1024
X3.0394Y-1.2205
X3.0394Y-1.3386
X3.0394Y-1.4567
X3.0394Y-1.5748
X3.0394Y-1.6929
X3.0394Y-1.811
X3.0394Y-1.9291
X3.0394Y-2.0472
X3.0394Y-2.1654
X3.0394Y-2.2835
X3.061Y-0.6791
X3.061Y-0.7972
X3.061Y-0.9154
X3.061Y-1.0335
X3.061Y-1.1516
X3.061Y-1.2697
X3.061Y-1.3878
X3.061Y-1.5059
X3.061Y-1.624
X3.061Y-1.7421
X3.061Y-1.8602
X3.061Y-1.9783
X3.061Y-2.0965
X3.061Y-2.2146
X3.061Y-2.3327
X3.1102Y-0.6787
X3.1102Y-0.7968
X3.1102Y-0.915
X3.1102Y-1.0331
X3.1102Y-1.1512
X3.1102Y-1.2693
X3.1102Y-1.3874
X3.1102Y-1.5055
X3.1102Y-1.6236
X3.1102Y-1.7417
X3.1102Y-1.8598
X3.1102Y-1.9779
X3.1102Y-2.0961
X3.1102Y-2.2142
X3.1102Y-2.3323
X3.1575Y-0.6299
X3.1575Y-0.748
X3.1575Y-0.8661
X3.1575Y-0.9843
X3.1575Y-1.1024
X3.1575Y-1.2205
X3.1575Y-1.3386
X3.1575Y-1.4567
X3.1575Y-1.5748
X3.1575Y-1.6929
X3.1575Y-1.811
X3.1575Y-1.9291
X3.1575Y-2.0472
X3.1575Y-2.1654
X3.1575Y-2.2835
X3.1791Y-0.6791
X3.1791Y-0.7972
X3.1791Y-0.9154
X3.1791Y-1.0335
X3.1791Y-1.1516
X3.1791Y-1.2697
X3.1791Y-1.3878
X3.1791Y-1.5059
X3.1791Y-1.624
X3.1791Y-1.7421
X3.1791Y-1.8602
X3.1791Y-1.9783
X3.1791Y-2.0965
X3.1791Y-2.2146
X3.1791Y-2.3327
X3.2283Y-0.6787
X3.2283Y-0.7968
X3.2283Y-0.915
X3.2283Y-1.0331
X3.2283Y-1.1512
X3.2283Y-1.2693
X3.2283Y-1.3874
X3.2283Y-1.5055
X3.2283Y-1.6236
X3.2283Y-1.7417
X3.2283Y-1.8598
X3.2283Y-1.9779
X3.2283Y-2.0961
X3.2283Y-2.2142
X3.2283Y-2.3323
X3.2756Y-0.6299
X3.2756Y-0.748
X3.2756Y-0.8661
X3.2756Y-0.9843
X3.2756Y-1.1024
X3.2756Y-1.2205
X3.2756Y-1.3386
X3.2756Y-1.4567
X3.2756Y-1.5748
X3.2756Y-1.6929
X3.2756Y-1.811
X3.2756Y-1.9291
X3.2756Y-2.0472
X3.2756Y-2.1654
X3.2756Y-2.2835
X3.2972Y-0.6791
X3.2972Y-0.7972
X3.2972Y-0.9154
X3.2972Y-1.0335
X3.2972Y-1.1516
X3.2972Y-1.2697
X3.2972Y-1.3878
X3.2972Y-1.5059
X3.2972Y-1.624
X3.2972Y-1.7421
X3.2972Y-1.8602
X3.2972Y-1.9783
X3.2972Y-2.0965
X3.2972Y-2.2146
X3.2972Y-2.3327
X3.3465Y-0.6787
X3.3465Y-0.7968
X3.3465Y-0.915
X3.3465Y-1.0331
X3.3465Y-1.1512
X3.3465Y-1.2693
X3.3465Y-1.3874
X3.3465Y-1.5055
X3.3465Y-1.6236
X3.3465Y-1.7417
X3.3465Y-1.8598
X3.3465Y-1.9779
X3.3465Y-2.0961
X3.3465Y-2.2142
X3.3465Y-2.3323
X3.3937Y-0.6299
X3.3937Y-0.748
X3.3937Y-0.8661
X3.3937Y-0.9843
X3.3937Y-1.1024
X3.3937Y-1.2205
X3.3937Y-1.3386
X3.3937Y-1.4567
X3.3937Y-1.5748
X3.3937Y-1.6929
X3.3937Y-1.811
X3.3937Y-1.9291
X3.3937Y-2.0472
X3.3937Y-2.1654
X3.3937Y-2.2835
X3.4154Y-0.6791
X3.4154Y-0.7972
X3.4154Y-0.9154
X3.4154Y-1.0335
X3.4154Y-1.1516
X3.4154Y-1.2697
X3.4154Y-1.3878
X3.4154Y-1.5059
X3.4154Y-1.624
X3.4154Y-1.7421
X3.4154Y-1.8602
X3.4154Y-1.9783
X3.4154Y-2.0965
X3.4154Y-2.2146
X3.4154Y-2.3327
X3.4646Y-0.6787
X3.4646Y-0.7968
X3.4646Y-0.915
X3.4646Y-1.0331
X3.4646Y-1.1512
X3.4646Y-1.2693
X3.4646Y-1.3874
X3.4646Y-1.5055
X3.4646Y-1.6236
X3.4646Y-1.7417
X3.4646Y-1.8598
X3.4646Y-1.9779
X3.4646Y-2.0961
X3.4646Y-2.2142
X3.4646Y-2.3323
X3.5118Y-0.6299
X3.5118Y-0.748
X3.5118Y-0.8661
X3.5118Y-0.9843
X3.5118Y-1.1024
X3.5118Y-1.2205
X3.5118Y-1.3386
X3.5118Y-1.4567
X3.5118Y-1.5748
X3.5118Y-1.6929
X3.5118Y-1.811
X3.5118Y-1.9291
X3.5118Y-2.0472
X3.5118Y-2.1654
X3.5118Y-2.2835
X3.5335Y-0.6791
X3.5335Y-0.7972
X3.5335Y-0.9154
X3.5335Y-1.0335
X3.5335Y-1.1516
X3.5335Y-1.2697
X3.5335Y-1.3878
X3.5335Y-1.5059
X3.5335Y-1.624
X3.5335Y-1.7421
X3.5335Y-1.8602
X3.5335Y-1.9783
X3.5335Y-2.0965
X3.5335Y-2.2146
X3.5335Y-2.3327
X3.5827Y-0.6787
X3.5827Y-0.7968
X3.5827Y-0.915
X3.5827Y-1.0331
X3.5827Y-1.1512
X3.5827Y-1.2693
X3.5827Y-1.3874
X3.5827Y-1.5055
X3.5827Y-1.6236
X3.5827Y-1.7417
X3.5827Y-1.8598
X3.5827Y-1.9779
X3.5827Y-2.0961
X3.5827Y-2.2142
X3.5827Y-2.3323
X3.6299Y-0.6299
X3.6299Y-0.748
X3.6299Y-0.8661
X3.6299Y-0.9843
X3.6299Y-1.1024
X3.6299Y-1.2205
X3.6299Y-1.3386
X3.6299Y-1.4567
X3.6299Y-1.5748
X3.6299Y-1.6929
X3.6299Y-1.811
X3.6299Y-1.9291
X3.6299Y-2.0472
X3.6299Y-2.1654
X3.6299Y-2.2835
X3.6516Y-0.6791
X3.6516Y-0.7972
X3.6516Y-0.9154
X3.6516Y-1.0335
X3.6516Y-1.1516
X3.6516Y-1.2697
X3.6516Y-1.3878
X3.6516Y-1.5059
X3.6516Y-1.624
X3.6516Y-1.7421
X3.6516Y-1.8602
X3.6516Y-1.9783
X3.6516Y-2.0965
X3.6516Y-2.2146
X3.6516Y-2.3327
X3.7008Y-0.6787
X3.7008Y-0.7968
X3.7008Y-0.915
X3.7008Y-1.0331
X3.7008Y-1.1512
X3.7008Y-1.2693
X3.7008Y-1.3874
X3.7008Y-1.5055
X3.7008Y-1.6236
X3.7008Y-1.7417
X3.7008Y-1.8598
X3.7008Y-1.9779
X3.7008Y-2.0961
X3.7008Y-2.2142
X3.7008Y-2.3323
X3.748Y-0.6299
X3.748Y-0.748
X3.748Y-0.8661
X3.748Y-0.9843
X3.748Y-1.1024
X3.748Y-1.2205
X3.748Y-1.3386
X3.748Y-1.4567
X3.748Y-1.5748
X3.748Y-1.6929
X3.748Y-1.811
X3.748Y-1.9291
X3.748Y-2.0472
X3.748Y-2.1654
X3.748Y-2.2835
X3.7697Y-0.6791
X3.7697Y-0.7972
X3.7697Y-0.9154
X3.7697Y-1.0335
X3.7697Y-1.1516
X3.7697Y-1.2697
X3.7697Y-1.3878
X3.7697Y-1.5059
X3.7697Y-1.624
X3.7697Y-1.7421
X3.7697Y-1.8602
X3.7697Y-1.9783
X3.7697Y-2.0965
X3.7697Y-2.2146
X3.7697Y-2.3327
X3.8189Y-0.6787
X3.8189Y-0.7968
X3.8189Y-0.915
X3.8189Y-1.0331
X3.8189Y-1.1512
X3.8189Y-1.2693
X3.8189Y-1.3874
X3.8189Y-1.5055
X3.8189Y-1.6236
X3.8189Y-1.7417
X3.8189Y-1.8598
X3.8189Y-1.9779
X3.8189Y-2.0961
X3.8189Y-2.2142
X3.8189Y-2.3323
X3.8661Y-0.6299
X3.8661Y-0.748
X3.8661Y-0.8661
X3.8661Y-0.9843
X3.8661Y-1.1024
X3.8661Y-1.2205
X3.8661Y-1.3386
X3.8661Y-1.4567
X3.8661Y-1.5748
X3.8661Y-1.6929
X3.8661Y-1.811
X3.8661Y-1.9291
X3.8661Y-2.0472
X3.8661Y-2.1654
X3.8661Y-2.2835
X3.8878Y-0.6791
X3.8878Y-0.7972
X3.8878Y-0.9154
X3.8878Y-1.0335
X3.8878Y-1.1516
X3.8878Y-1.2697
X3.8878Y-1.3878
X3.8878Y-1.5059
X3.8878Y-1.624
X3.8878Y-1.7421
X3.8878Y-1.8602
X3.8878Y-1.9783
X3.8878Y-2.0965
X3.8878Y-2.2146
X3.8878Y-2.3327
X3.937Y-0.6787
X3.937Y-0.7968
X3.937Y-0.915
X3.937Y-1.0331
X3.937Y-1.1512
X3.937Y-1.2693
X3.937Y-1.3874
X3.937Y-1.5055
X3.937Y-1.6236
X3.937Y-1.7417
X3.937Y-1.8598
X3.937Y-1.9779
X3.937Y-2.0961
X3.937Y-2.2142
X3.937Y-2.3323
X3.9843Y-0.6299
X3.9843Y-0.748
X3.9843Y-0.8661
X3.9843Y-0.9843
X3.9843Y-1.1024
X3.9843Y-1.2205
X3.9843Y-1.3386
X3.9843Y-1.4567
X3.9843Y-1.5748
X3.9843Y-1.6929
X3.9843Y-1.811
X3.9843Y-1.9291
X3.9843Y-2.0472
X3.9843Y-2.1654
X3.9843Y-2.2835
X4.0059Y-0.6791
X4.0059Y-0.7972
X4.0059Y-0.9154
X4.0059Y-1.0335
X4.0059Y-1.1516
X4.0059Y-1.2697
X4.0059Y-1.3878
X4.0059Y-1.5059
X4.0059Y-1.624
X4.0059Y-1.7421
X4.0059Y-1.8602
X4.0059Y-1.9783
X4.0059Y-2.0965
X4.0059Y-2.2146
X4.0059Y-2.3327
X4.0551Y-0.6787
X4.0551Y-0.7968
X4.0551Y-0.915
X4.0551Y-1.0331
X4.0551Y-1.1512
X4.0551Y-1.2693
X4.0551Y-1.3874
X4.0551Y-1.5055
X4.0551Y-1.6236
X4.0551Y-1.7417
X4.0551Y-1.8598
X4.0551Y-1.9779
X4.0551Y-2.0961
X4.0551Y-2.2142
X4.0551Y-2.3323
X4.1024Y-0.6299
X4.1024Y-0.748
X4.1024Y-0.8661
X4.1024Y-0.9843
X4.1024Y-1.1024
X4.1024Y-1.2205
X4.1024Y-1.3386
X4.1024Y-1.4567
X4.1024Y-1.5748
X4.1024Y-1.6929
X4.1024Y-1.811
X4.1024Y-1.9291
X4.1024Y-2.0472
X4.1024Y-2.1654
X4.1024Y-2.2835
X4.124Y-0.6791
X4.124Y-0.7972
X4.124Y-0.9154
X4.124Y-1.0335
X4.124Y-1.1516
X4.124Y-1.2697
X4.124Y-1.3878
X4.124Y-1.5059
X4.124Y-1.624
X4.124Y-1.7421
X4.124Y-1.8602
X4.124Y-1.9783
X4.124Y-2.0965
X4.124Y-2.2146
X4.124Y-2.3327
X4.1732Y-0.6787
X4.1732Y-0.7968
X4.1732Y-0.915
X4.1732Y-1.0331
X4.1732Y-1.1512
X4.1732Y-1.2693
X4.1732Y-1.3874
X4.1732Y-1.5055
X4.1732Y-1.6236
X4.1732Y-1.7417
X4.1732Y-1.8598
X4.1732Y-1.9779
X4.1732Y-2.0961
X4.1732Y-2.2142
X4.1732Y-2.3323
X4.2205Y-0.6299
X4.2205Y-0.748
X4.2205Y-0.8661
X4.2205Y-0.9843
X4.2205Y-1.1024
X4.2205Y-1.2205
X4.2205Y-1.3386
X4.2205Y-1.4567
X4.2205Y-1.5748
X4.2205Y-1.6929
X4.2205Y-1.811
X4.2205Y-1.9291
X4.2205Y-2.0472
X4.2205Y-2.1654
X4.2205Y-2.2835
X4.2421Y-0.6791
X4.2421Y-0.7972
X4.2421Y-0.9154
X4.2421Y-1.0335
X4.2421Y-1.1516
X4.2421Y-1.2697
X4.2421Y-1.3878
X4.2421Y-1.5059
X4.2421Y-1.624
X4.2421Y-1.7421
X4.2421Y-1.8602
X4.2421Y-1.9783
X4.2421Y-2.0965
X4.2421Y-2.2146
X4.2421Y-2.3327
X4.2913Y-0.6787
X4.2913Y-0.7968
X4.2913Y-0.915
X4.2913Y-1.0331
X4.2913Y-1.1512
X4.2913Y-1.2693
X4.2913Y-1.3874
X4.2913Y-1.5055
X4.2913Y-1.6236
X4.2913Y-1.7417
X4.2913Y-1.8598
X4.2913Y-1.9779
X4.2913Y-2.0961
X4.2913Y-2.2142
X4.2913Y-2.3323
T2
X0.8169Y-1.4685
X0.8169Y-1.5079
X0.8169Y-1.5472
X0.8681Y-1.4685
X0.8681Y-1.5079
X0.8681Y-1.5472
T3
X0.4921Y-0.4921
X0.4921Y-0.5315
X0.4921Y-0.5709
X0.4921Y-0.6102
X0.4921Y-0.6496
X0.4921Y-0.689
X0.4921Y-0.7283
X0.4921Y-0.7677
X0.4921Y-0.8071
X0.4921Y-0.8465
X0.4921Y-0.8858
X0.4921Y-0.9252
X0.4921Y-0.9646
X0.4921Y-1.0039
X0.4921Y-1.2402
X0.4921Y-1.2795
X0.4921Y-1.3189
X0.4921Y-1.3583
X0.4921Y-1.3976
X0.4921Y-1.437
X0.4921Y-1.4764
X0.4921Y-1.7913
X0.4921Y-1.8307
X0.4921Y-1.8701
X0.4921Y-1.9094
X0.4921Y-1.9488
X0.4921Y-1.9882
X0.4921Y-2.0276
X0.4921Y-2.0669
X0.4921Y-2.1063
X0.4921Y-2.1457
X0.4921Y-2.185
X0.4921Y-2.2244
X0.4921Y-2.2638
X0.4921Y-2.3031
X0.4921Y-2.3425
X0.4921Y-2.3819
X0.4921Y-2.4213
X0.5315Y-2.4213
X0.5551Y-1.9882
X0.5551Y-2.063
X0.5709Y-2.4213
X0.5866Y-1.9882
X0.5866Y-2.063
X0.6102Y-2.4213
X0.6299Y-1.3386
X0.6496Y-2.4213
X0.6772Y-1.6063
X0.689Y-2.4213
X0.7087Y-1.6181
X0.7283Y-2.4213
X0.7638Y-0.7874
X0.7677Y-2.4213
X0.7953Y-1.8543
X0.7953Y-1.8858
X0.8071Y-0.4921
X0.8071Y-2.4213
X0.8228Y-1.6772
X0.8465Y-0.4921
X0.8465Y-2.4213
X0.8622Y-1.6654
X0.8622Y-1.7913
X0.8622Y-1.8465
X0.8622Y-1.874
X0.8622Y-1.9016
X0.8858Y-0.4921
X0.8858Y-2.4213
X0.8898Y-1.9882
X0.8898Y-2.0276
X0.8898Y-2.0669
X0.9055Y-2.0079
X0.9055Y-2.0472
X0.9134Y-0.8937
X0.9213Y-1.9882
X0.9213Y-2.0276
X0.9213Y-2.0669
X0.9252Y-0.4921
X0.9252Y-2.4213
X0.937Y-2.0079
X0.937Y-2.0472
X0.9528Y-0.8622
X0.9528Y-0.8937
X0.9528Y-0.9252
X0.9528Y-1.9882
X0.9528Y-2.0276
X0.9646Y-0.4921
X0.9646Y-2.4213
X0.9685Y-2.0079
X0.9843Y-1.9882
X0.9843Y-2.0276
X0.9921Y-0.8307
X0.9921Y-0.8622
X0.9921Y-0.9252
X0.9921Y-0.9567
X0.9961Y-0.7559
X1.0Y-1.2008
X1.0Y-2.0079
X1.0039Y-0.4921
X1.0039Y-2.4213
X1.0315Y-0.8622
X1.0315Y-0.8937
X1.0315Y-0.9252
X1.0433Y-0.4921
X1.0433Y-2.4213
X1.0709Y-0.8937
X1.0748Y-0.6378
X1.0827Y-0.4921
X1.0827Y-2.4213
X1.1142Y-1.3622
X1.1142Y-1.3898
X1.122Y-0.4921
X1.122Y-1.5866
X1.122Y-1.6142
X1.122Y-1.6417
X1.122Y-1.6693
X1.122Y-1.6969
X1.122Y-1.7244
X1.122Y-1.752
X1.122Y-1.7795
X1.122Y-1.8071
X1.122Y-1.8346
X1.122Y-1.8622
X1.122Y-1.8898
X1.122Y-1.9173
X1.122Y-1.9449
X1.122Y-2.4213
X1.1614Y-0.4921
X1.1614Y-2.4213
X1.1654Y-1.0354
X1.1654Y-1.063
X1.1917Y-0.7008
X1.2008Y-0.4921
X1.2008Y-1.4724
X1.2008Y-1.5
X1.2008Y-2.4213
X1.2283Y-0.7913
X1.2402Y-0.4921
X1.2402Y-2.4213
X1.2756Y-0.6142
X1.2795Y-2.4213
X1.2835Y-0.4961
X1.3189Y-2.4213
X1.3583Y-2.4213
X1.3622Y-0.9921
X1.3898Y-0.5787
X1.3976Y-2.4213
X1.437Y-2.4213
X1.4764Y-2.4213
X1.5157Y-2.4213
X1.5551Y-2.4213
X1.5945Y-0.4921
X1.5945Y-2.4213
X1.6339Y-0.4921
X1.6339Y-2.4213
X1.6732Y-0.4921
X1.6732Y-2.4213
X1.7126Y-0.4921
X1.7126Y-2.4213
X1.752Y-0.4921
X1.752Y-2.4213
X1.7913Y-0.4921
X1.7913Y-2.4213
X1.8307Y-0.4921
X1.8307Y-2.4213
X1.8701Y-0.4921
X1.8701Y-2.4213
X1.9094Y-0.4921
X1.9094Y-2.4213
X1.9488Y-0.4921
X1.9488Y-2.4213
X1.9882Y-0.4921
X1.9882Y-2.4213
X2.0276Y-0.4921
X2.0276Y-2.4213
X2.0669Y-0.4921
X2.0669Y-2.4213
X2.1063Y-0.4921
X2.1063Y-2.4213
X2.1457Y-0.4921
X2.1457Y-2.4213
X2.185Y-0.4921
X2.185Y-2.4213
X2.2244Y-0.4921
X2.2244Y-2.4213
X2.2638Y-0.4921
X2.2638Y-2.4213
X2.3031Y-0.4921
X2.3031Y-2.4213
X2.3425Y-0.4921
X2.3425Y-2.4213
X2.3819Y-0.4921
X2.3819Y-2.4213
X2.4213Y-0.4921
X2.4213Y-2.4213
X2.4606Y-0.4921
X2.4606Y-2.4213
X2.5Y-0.4921
X2.5Y-2.4213
X2.5394Y-0.4921
X2.5394Y-2.4213
X2.5787Y-0.4921
X2.5787Y-2.4213
X2.6181Y-0.4921
X2.6181Y-2.4213
X2.6575Y-0.4921
X2.6575Y-2.4213
X2.6969Y-0.4921
X2.6969Y-2.4213
X2.7362Y-0.4921
X2.7362Y-2.4213
X2.7756Y-0.4921
X2.7756Y-2.4213
X2.815Y-0.4921
X2.815Y-2.4213
X2.8543Y-0.4921
X2.8543Y-2.4213
X2.8937Y-0.4921
X2.8937Y-2.4213
X2.9331Y-0.4921
X2.9331Y-2.4213
X2.9724Y-0.4921
X2.9724Y-2.4213
X3.0118Y-0.4921
X3.0118Y-2.4213
X3.0512Y-0.4921
X3.0512Y-2.4213
X3.0906Y-0.4921
X3.0906Y-2.4213
X3.1299Y-0.4921
X3.1299Y-2.4213
X3.1693Y-0.4921
X3.1693Y-2.4213
X3.2087Y-0.4921
X3.2087Y-2.4213
X3.248Y-0.4921
X3.248Y-2.4213
X3.2874Y-0.4921
X3.2874Y-2.4213
X3.3268Y-0.4921
X3.3268Y-2.4213
X3.3661Y-0.4921
X3.3661Y-2.4213
X3.4055Y-0.4921
X3.4055Y-2.4213
X3.4449Y-0.4921
X3.4449Y-2.4213
X3.4843Y-0.4921
X3.4843Y-2.4213
X3.5236Y-0.4921
X3.5236Y-2.4213
X3.563Y-0.4921
X3.563Y-2.4213
X3.6024Y-0.4921
X3.6024Y-2.4213
X3.6417Y-0.4921
X3.6417Y-2.4213
X3.6811Y-0.4921
X3.6811Y-2.4213
X3.7205Y-0.4921
X3.7205Y-2.4213
X3.7598Y-0.4921
X3.7598Y-2.4213
X3.7992Y-0.4921
X3.7992Y-2.4213
X3.8386Y-0.4921
X3.8386Y-2.4213
X3.878Y-0.4921
X3.878Y-2.4213
X3.9173Y-0.4921
X3.9173Y-2.4213
X3.9567Y-0.4921
X3.9567Y-2.4213
X3.9961Y-0.4921
X3.9961Y-2.4213
X4.0354Y-0.4921
X4.0354Y-2.4213
X4.0748Y-0.4921
X4.0748Y-2.4213
X4.1142Y-0.4921
X4.1142Y-2.4213
X4.1535Y-0.4921
X4.1535Y-2.4213
X4.1929Y-0.4921
X4.1929Y-2.4213
X4.2323Y-0.4921
X4.2323Y-2.4213
X4.2717Y-0.4921
X4.2717Y-2.4213
X4.311Y-0.4921
X4.311Y-2.4213
X4.3504Y-0.4921
X4.3504Y-2.4213
X4.3898Y-0.4921
X4.3898Y-0.5315
X4.3898Y-0.5709
X4.3898Y-0.6102
X4.3898Y-0.6496
X4.3898Y-0.689
X4.3898Y-0.7283
X4.3898Y-0.7677
X4.3898Y-0.8071
X4.3898Y-0.8465
X4.3898Y-0.8858
X4.3898Y-0.9252
X4.3898Y-0.9646
X4.3898Y-1.0039
X4.3898Y-1.0433
X4.3898Y-1.0827
X4.3898Y-1.122
X4.3898Y-1.1614
X4.3898Y-1.2008
X4.3898Y-1.2402
X4.3898Y-1.2795
X4.3898Y-1.3189
X4.3898Y-1.3583
X4.3898Y-1.3976
X4.3898Y-1.437
X4.3898Y-1.4764
X4.3898Y-1.5157
X4.3898Y-1.5551
X4.3898Y-1.5945
X4.3898Y-1.6339
X4.3898Y-1.6732
X4.3898Y-1.7126
X4.3898Y-1.752
X4.3898Y-1.7913
X4.3898Y-1.8307
X4.3898Y-1.8701
X4.3898Y-1.9094
X4.3898Y-1.9488
X4.3898Y-1.9882
X4.3898Y-2.0276
X4.3898Y-2.0669
X4.3898Y-2.1063
X4.3898Y-2.1457
X4.3898Y-2.185
X4.3898Y-2.2244
X4.3898Y-2.2638
X4.3898Y-2.3031
X4.3898Y-2.3425
X4.3898Y-2.3819
X4.3898Y-2.4213
T5
X0.639Y-2.3425
X0.739Y-2.3425
T4
G00X0.9913Y-2.1789
M15
G01X0.9913Y-2.2222
M16
G05
G00X0.9913Y-2.3533
M15
G01X0.9913Y-2.377
M16
G05
G00X1.3315Y-2.1789
M15
G01X1.3315Y-2.2222
M16
G05
G00X1.3315Y-2.3533
M15
G01X1.3315Y-2.377
M16
G05
T0
M30
