%TF.GenerationSoftware,KiCad,Pcbnew,(5.99.0-12974-ge12f9a194d)*%
%TF.CreationDate,2021-11-26T19:34:27-08:00*%
%TF.ProjectId,LED_Addrs,4c45445f-4164-4647-9273-2e6b69636164,rev?*%
%TF.SameCoordinates,Original*%
%TF.FileFunction,Legend,Bot*%
%TF.FilePolarity,Positive*%
%FSLAX46Y46*%
G04 Gerber Fmt 4.6, Leading zero omitted, Abs format (unit mm)*
G04 Created by KiCad (PCBNEW (5.99.0-12974-ge12f9a194d)) date 2021-11-26 19:34:27*
%MOMM*%
%LPD*%
G01*
G04 APERTURE LIST*
G04 Aperture macros list*
%AMRoundRect*
0 Rectangle with rounded corners*
0 $1 Rounding radius*
0 $2 $3 $4 $5 $6 $7 $8 $9 X,Y pos of 4 corners*
0 Add a 4 corners polygon primitive as box body*
4,1,4,$2,$3,$4,$5,$6,$7,$8,$9,$2,$3,0*
0 Add four circle primitives for the rounded corners*
1,1,$1+$1,$2,$3*
1,1,$1+$1,$4,$5*
1,1,$1+$1,$6,$7*
1,1,$1+$1,$8,$9*
0 Add four rect primitives between the rounded corners*
20,1,$1+$1,$2,$3,$4,$5,0*
20,1,$1+$1,$4,$5,$6,$7,0*
20,1,$1+$1,$6,$7,$8,$9,0*
20,1,$1+$1,$8,$9,$2,$3,0*%
G04 Aperture macros list end*
%ADD10C,0.120000*%
%ADD11C,0.650000*%
%ADD12O,1.000000X2.100000*%
%ADD13O,1.000000X1.600000*%
%ADD14R,2.100000X2.100000*%
%ADD15C,2.100000*%
%ADD16RoundRect,0.155000X0.212500X0.155000X-0.212500X0.155000X-0.212500X-0.155000X0.212500X-0.155000X0*%
%ADD17RoundRect,0.150000X-0.150000X0.587500X-0.150000X-0.587500X0.150000X-0.587500X0.150000X0.587500X0*%
%ADD18RoundRect,0.250000X1.100000X-0.325000X1.100000X0.325000X-1.100000X0.325000X-1.100000X-0.325000X0*%
%ADD19RoundRect,0.250000X-1.100000X0.325000X-1.100000X-0.325000X1.100000X-0.325000X1.100000X0.325000X0*%
%ADD20R,3.429000X2.413000*%
%ADD21RoundRect,0.250000X0.475000X-0.250000X0.475000X0.250000X-0.475000X0.250000X-0.475000X-0.250000X0*%
%ADD22RoundRect,0.150000X0.825000X0.150000X-0.825000X0.150000X-0.825000X-0.150000X0.825000X-0.150000X0*%
%ADD23R,2.290000X3.000000*%
%ADD24R,0.750000X2.100000*%
%ADD25RoundRect,0.150000X-0.150000X0.650000X-0.150000X-0.650000X0.150000X-0.650000X0.150000X0.650000X0*%
%ADD26R,3.175000X4.950000*%
%ADD27RoundRect,0.250000X0.250000X0.475000X-0.250000X0.475000X-0.250000X-0.475000X0.250000X-0.475000X0*%
G04 APERTURE END LIST*
D10*
%TO.C,C33*%
X58115835Y-18640000D02*
X57884165Y-18640000D01*
X58115835Y-19360000D02*
X57884165Y-19360000D01*
%TO.C,C32*%
X55115835Y-18640000D02*
X54884165Y-18640000D01*
X55115835Y-19360000D02*
X54884165Y-19360000D01*
%TO.C,C312*%
X70115835Y-51640000D02*
X69884165Y-51640000D01*
X70115835Y-52360000D02*
X69884165Y-52360000D01*
%TO.C,C314*%
X76115835Y-52360000D02*
X75884165Y-52360000D01*
X76115835Y-51640000D02*
X75884165Y-51640000D01*
%TO.C,C82*%
X55115835Y-24640000D02*
X54884165Y-24640000D01*
X55115835Y-25360000D02*
X54884165Y-25360000D01*
%TO.C,C308*%
X58115835Y-52360000D02*
X57884165Y-52360000D01*
X58115835Y-51640000D02*
X57884165Y-51640000D01*
%TO.C,C109*%
X61115835Y-27640000D02*
X60884165Y-27640000D01*
X61115835Y-28360000D02*
X60884165Y-28360000D01*
%TO.C,C38*%
X73115835Y-18640000D02*
X72884165Y-18640000D01*
X73115835Y-19360000D02*
X72884165Y-19360000D01*
%TO.C,C256*%
X52115835Y-45640000D02*
X51884165Y-45640000D01*
X52115835Y-46360000D02*
X51884165Y-46360000D01*
%TO.C,C354*%
X46115835Y-57640000D02*
X45884165Y-57640000D01*
X46115835Y-58360000D02*
X45884165Y-58360000D01*
%TO.C,C322*%
X100115835Y-52360000D02*
X99884165Y-52360000D01*
X100115835Y-51640000D02*
X99884165Y-51640000D01*
%TO.C,C261*%
X67115835Y-45640000D02*
X66884165Y-45640000D01*
X67115835Y-46360000D02*
X66884165Y-46360000D01*
%TO.C,C162*%
X70115835Y-34360000D02*
X69884165Y-34360000D01*
X70115835Y-33640000D02*
X69884165Y-33640000D01*
%TO.C,C105*%
X49115835Y-28360000D02*
X48884165Y-28360000D01*
X49115835Y-27640000D02*
X48884165Y-27640000D01*
%TO.C,C176*%
X37115835Y-37360000D02*
X36884165Y-37360000D01*
X37115835Y-36640000D02*
X36884165Y-36640000D01*
%TO.C,C27*%
X40115835Y-18640000D02*
X39884165Y-18640000D01*
X40115835Y-19360000D02*
X39884165Y-19360000D01*
%TO.C,C51*%
X37115835Y-22360000D02*
X36884165Y-22360000D01*
X37115835Y-21640000D02*
X36884165Y-21640000D01*
%TO.C,C313*%
X73115835Y-51640000D02*
X72884165Y-51640000D01*
X73115835Y-52360000D02*
X72884165Y-52360000D01*
%TO.C,C235*%
X64115835Y-43360000D02*
X63884165Y-43360000D01*
X64115835Y-42640000D02*
X63884165Y-42640000D01*
%TO.C,C150*%
X109115835Y-30640000D02*
X108884165Y-30640000D01*
X109115835Y-31360000D02*
X108884165Y-31360000D01*
%TO.C,C274*%
X106115835Y-45640000D02*
X105884165Y-45640000D01*
X106115835Y-46360000D02*
X105884165Y-46360000D01*
%TO.C,C318*%
X88115835Y-51640000D02*
X87884165Y-51640000D01*
X88115835Y-52360000D02*
X87884165Y-52360000D01*
%TO.C,C132*%
X55115835Y-30640000D02*
X54884165Y-30640000D01*
X55115835Y-31360000D02*
X54884165Y-31360000D01*
%TO.C,C158*%
X58115835Y-33640000D02*
X57884165Y-33640000D01*
X58115835Y-34360000D02*
X57884165Y-34360000D01*
%TO.C,C77*%
X40115835Y-24640000D02*
X39884165Y-24640000D01*
X40115835Y-25360000D02*
X39884165Y-25360000D01*
%TO.C,C209*%
X61115835Y-39640000D02*
X60884165Y-39640000D01*
X61115835Y-40360000D02*
X60884165Y-40360000D01*
%TO.C,C304*%
X46115835Y-52360000D02*
X45884165Y-52360000D01*
X46115835Y-51640000D02*
X45884165Y-51640000D01*
%TO.C,C4*%
X46115835Y-15640000D02*
X45884165Y-15640000D01*
X46115835Y-16360000D02*
X45884165Y-16360000D01*
%TO.C,C46*%
X97115835Y-18640000D02*
X96884165Y-18640000D01*
X97115835Y-19360000D02*
X96884165Y-19360000D01*
%TO.C,C260*%
X64115835Y-45640000D02*
X63884165Y-45640000D01*
X64115835Y-46360000D02*
X63884165Y-46360000D01*
%TO.C,C231*%
X52115835Y-43360000D02*
X51884165Y-43360000D01*
X52115835Y-42640000D02*
X51884165Y-42640000D01*
%TO.C,C273*%
X103115835Y-46360000D02*
X102884165Y-46360000D01*
X103115835Y-45640000D02*
X102884165Y-45640000D01*
%TO.C,C206*%
X52115835Y-39640000D02*
X51884165Y-39640000D01*
X52115835Y-40360000D02*
X51884165Y-40360000D01*
%TO.C,C142*%
X85115835Y-31360000D02*
X84884165Y-31360000D01*
X85115835Y-30640000D02*
X84884165Y-30640000D01*
%TO.C,C123*%
X103115835Y-27640000D02*
X102884165Y-27640000D01*
X103115835Y-28360000D02*
X102884165Y-28360000D01*
%TO.C,C361*%
X67115835Y-58360000D02*
X66884165Y-58360000D01*
X67115835Y-57640000D02*
X66884165Y-57640000D01*
%TO.C,C349*%
X106115835Y-55360000D02*
X105884165Y-55360000D01*
X106115835Y-54640000D02*
X105884165Y-54640000D01*
%TO.C,C244*%
X91115835Y-42640000D02*
X90884165Y-42640000D01*
X91115835Y-43360000D02*
X90884165Y-43360000D01*
%TO.C,C351*%
X37115835Y-57640000D02*
X36884165Y-57640000D01*
X37115835Y-58360000D02*
X36884165Y-58360000D01*
%TO.C,C267*%
X85115835Y-46360000D02*
X84884165Y-46360000D01*
X85115835Y-45640000D02*
X84884165Y-45640000D01*
%TO.C,C341*%
X82115835Y-55360000D02*
X81884165Y-55360000D01*
X82115835Y-54640000D02*
X81884165Y-54640000D01*
%TO.C,C112*%
X70115835Y-27640000D02*
X69884165Y-27640000D01*
X70115835Y-28360000D02*
X69884165Y-28360000D01*
%TO.C,C355*%
X49115835Y-57640000D02*
X48884165Y-57640000D01*
X49115835Y-58360000D02*
X48884165Y-58360000D01*
%TO.C,C356*%
X52115835Y-57640000D02*
X51884165Y-57640000D01*
X52115835Y-58360000D02*
X51884165Y-58360000D01*
%TO.C,C43*%
X88115835Y-18640000D02*
X87884165Y-18640000D01*
X88115835Y-19360000D02*
X87884165Y-19360000D01*
%TO.C,C66*%
X82115835Y-21640000D02*
X81884165Y-21640000D01*
X82115835Y-22360000D02*
X81884165Y-22360000D01*
%TO.C,C288*%
X73115835Y-49360000D02*
X72884165Y-49360000D01*
X73115835Y-48640000D02*
X72884165Y-48640000D01*
%TO.C,C242*%
X85115835Y-42640000D02*
X84884165Y-42640000D01*
X85115835Y-43360000D02*
X84884165Y-43360000D01*
%TO.C,C113*%
X73115835Y-27640000D02*
X72884165Y-27640000D01*
X73115835Y-28360000D02*
X72884165Y-28360000D01*
%TO.C,C212*%
X70115835Y-40360000D02*
X69884165Y-40360000D01*
X70115835Y-39640000D02*
X69884165Y-39640000D01*
%TO.C,C16*%
X82115835Y-16360000D02*
X81884165Y-16360000D01*
X82115835Y-15640000D02*
X81884165Y-15640000D01*
%TO.C,C346*%
X97115835Y-54640000D02*
X96884165Y-54640000D01*
X97115835Y-55360000D02*
X96884165Y-55360000D01*
%TO.C,C172*%
X100115835Y-34360000D02*
X99884165Y-34360000D01*
X100115835Y-33640000D02*
X99884165Y-33640000D01*
%TO.C,C373*%
X103115835Y-58360000D02*
X102884165Y-58360000D01*
X103115835Y-57640000D02*
X102884165Y-57640000D01*
%TO.C,C337*%
X70115835Y-54640000D02*
X69884165Y-54640000D01*
X70115835Y-55360000D02*
X69884165Y-55360000D01*
%TO.C,C357*%
X55115835Y-58360000D02*
X54884165Y-58360000D01*
X55115835Y-57640000D02*
X54884165Y-57640000D01*
%TO.C,C52*%
X40115835Y-22360000D02*
X39884165Y-22360000D01*
X40115835Y-21640000D02*
X39884165Y-21640000D01*
%TO.C,C262*%
X70115835Y-45640000D02*
X69884165Y-45640000D01*
X70115835Y-46360000D02*
X69884165Y-46360000D01*
%TO.C,C173*%
X103115835Y-34360000D02*
X102884165Y-34360000D01*
X103115835Y-33640000D02*
X102884165Y-33640000D01*
%TO.C,C220*%
X94115835Y-40360000D02*
X93884165Y-40360000D01*
X94115835Y-39640000D02*
X93884165Y-39640000D01*
%TO.C,C136*%
X67115835Y-30640000D02*
X66884165Y-30640000D01*
X67115835Y-31360000D02*
X66884165Y-31360000D01*
%TO.C,Q2*%
X16560000Y-38500000D02*
X16560000Y-39150000D01*
X13440000Y-38500000D02*
X13440000Y-36825000D01*
X13440000Y-38500000D02*
X13440000Y-39150000D01*
X16560000Y-38500000D02*
X16560000Y-37850000D01*
%TO.C,C400*%
X15260000Y-32411252D02*
X15260000Y-30988748D01*
X12540000Y-32411252D02*
X12540000Y-30988748D01*
%TO.C,C40*%
X79115835Y-19360000D02*
X78884165Y-19360000D01*
X79115835Y-18640000D02*
X78884165Y-18640000D01*
%TO.C,C148*%
X103115835Y-30640000D02*
X102884165Y-30640000D01*
X103115835Y-31360000D02*
X102884165Y-31360000D01*
%TO.C,C54*%
X46115835Y-21640000D02*
X45884165Y-21640000D01*
X46115835Y-22360000D02*
X45884165Y-22360000D01*
%TO.C,C343*%
X88115835Y-54640000D02*
X87884165Y-54640000D01*
X88115835Y-55360000D02*
X87884165Y-55360000D01*
%TO.C,C297*%
X100115835Y-49360000D02*
X99884165Y-49360000D01*
X100115835Y-48640000D02*
X99884165Y-48640000D01*
%TO.C,C271*%
X97115835Y-45640000D02*
X96884165Y-45640000D01*
X97115835Y-46360000D02*
X96884165Y-46360000D01*
%TO.C,C281*%
X52115835Y-49360000D02*
X51884165Y-49360000D01*
X52115835Y-48640000D02*
X51884165Y-48640000D01*
%TO.C,C100*%
X109115835Y-24640000D02*
X108884165Y-24640000D01*
X109115835Y-25360000D02*
X108884165Y-25360000D01*
%TO.C,C348*%
X103115835Y-54640000D02*
X102884165Y-54640000D01*
X103115835Y-55360000D02*
X102884165Y-55360000D01*
%TO.C,C73*%
X103115835Y-21640000D02*
X102884165Y-21640000D01*
X103115835Y-22360000D02*
X102884165Y-22360000D01*
%TO.C,C189*%
X76115835Y-37360000D02*
X75884165Y-37360000D01*
X76115835Y-36640000D02*
X75884165Y-36640000D01*
%TO.C,C58*%
X58115835Y-21640000D02*
X57884165Y-21640000D01*
X58115835Y-22360000D02*
X57884165Y-22360000D01*
%TO.C,C339*%
X76115835Y-54640000D02*
X75884165Y-54640000D01*
X76115835Y-55360000D02*
X75884165Y-55360000D01*
%TO.C,C61*%
X67115835Y-21640000D02*
X66884165Y-21640000D01*
X67115835Y-22360000D02*
X66884165Y-22360000D01*
%TO.C,C3*%
X43115835Y-15640000D02*
X42884165Y-15640000D01*
X43115835Y-16360000D02*
X42884165Y-16360000D01*
%TO.C,C35*%
X64115835Y-19360000D02*
X63884165Y-19360000D01*
X64115835Y-18640000D02*
X63884165Y-18640000D01*
%TO.C,C350*%
X109115835Y-55360000D02*
X108884165Y-55360000D01*
X109115835Y-54640000D02*
X108884165Y-54640000D01*
%TO.C,C2*%
X40115835Y-16360000D02*
X39884165Y-16360000D01*
X40115835Y-15640000D02*
X39884165Y-15640000D01*
%TO.C,C143*%
X88115835Y-31360000D02*
X87884165Y-31360000D01*
X88115835Y-30640000D02*
X87884165Y-30640000D01*
%TO.C,C98*%
X103115835Y-24640000D02*
X102884165Y-24640000D01*
X103115835Y-25360000D02*
X102884165Y-25360000D01*
%TO.C,C146*%
X97115835Y-31360000D02*
X96884165Y-31360000D01*
X97115835Y-30640000D02*
X96884165Y-30640000D01*
%TO.C,C181*%
X52115835Y-37360000D02*
X51884165Y-37360000D01*
X52115835Y-36640000D02*
X51884165Y-36640000D01*
%TO.C,C275*%
X109115835Y-45640000D02*
X108884165Y-45640000D01*
X109115835Y-46360000D02*
X108884165Y-46360000D01*
%TO.C,C208*%
X58115835Y-39640000D02*
X57884165Y-39640000D01*
X58115835Y-40360000D02*
X57884165Y-40360000D01*
%TO.C,C266*%
X82115835Y-46360000D02*
X81884165Y-46360000D01*
X82115835Y-45640000D02*
X81884165Y-45640000D01*
%TO.C,C175*%
X109115835Y-34360000D02*
X108884165Y-34360000D01*
X109115835Y-33640000D02*
X108884165Y-33640000D01*
%TO.C,C195*%
X94115835Y-36640000D02*
X93884165Y-36640000D01*
X94115835Y-37360000D02*
X93884165Y-37360000D01*
%TO.C,C316*%
X82115835Y-51640000D02*
X81884165Y-51640000D01*
X82115835Y-52360000D02*
X81884165Y-52360000D01*
%TO.C,C12*%
X70115835Y-16360000D02*
X69884165Y-16360000D01*
X70115835Y-15640000D02*
X69884165Y-15640000D01*
%TO.C,C26*%
X37115835Y-19360000D02*
X36884165Y-19360000D01*
X37115835Y-18640000D02*
X36884165Y-18640000D01*
%TO.C,C31*%
X52115835Y-19360000D02*
X51884165Y-19360000D01*
X52115835Y-18640000D02*
X51884165Y-18640000D01*
%TO.C,C215*%
X79115835Y-39640000D02*
X78884165Y-39640000D01*
X79115835Y-40360000D02*
X78884165Y-40360000D01*
%TO.C,C34*%
X61115835Y-18640000D02*
X60884165Y-18640000D01*
X61115835Y-19360000D02*
X60884165Y-19360000D01*
%TO.C,C365*%
X79115835Y-58360000D02*
X78884165Y-58360000D01*
X79115835Y-57640000D02*
X78884165Y-57640000D01*
%TO.C,C305*%
X49115835Y-52360000D02*
X48884165Y-52360000D01*
X49115835Y-51640000D02*
X48884165Y-51640000D01*
%TO.C,C229*%
X46115835Y-43360000D02*
X45884165Y-43360000D01*
X46115835Y-42640000D02*
X45884165Y-42640000D01*
%TO.C,C366*%
X82115835Y-57640000D02*
X81884165Y-57640000D01*
X82115835Y-58360000D02*
X81884165Y-58360000D01*
%TO.C,C137*%
X70115835Y-31360000D02*
X69884165Y-31360000D01*
X70115835Y-30640000D02*
X69884165Y-30640000D01*
%TO.C,C94*%
X91115835Y-25360000D02*
X90884165Y-25360000D01*
X91115835Y-24640000D02*
X90884165Y-24640000D01*
%TO.C,C236*%
X67115835Y-43360000D02*
X66884165Y-43360000D01*
X67115835Y-42640000D02*
X66884165Y-42640000D01*
%TO.C,C319*%
X91115835Y-51640000D02*
X90884165Y-51640000D01*
X91115835Y-52360000D02*
X90884165Y-52360000D01*
%TO.C,C114*%
X76115835Y-28360000D02*
X75884165Y-28360000D01*
X76115835Y-27640000D02*
X75884165Y-27640000D01*
%TO.C,C194*%
X91115835Y-37360000D02*
X90884165Y-37360000D01*
X91115835Y-36640000D02*
X90884165Y-36640000D01*
%TO.C,C295*%
X94115835Y-49360000D02*
X93884165Y-49360000D01*
X94115835Y-48640000D02*
X93884165Y-48640000D01*
%TO.C,C126*%
X37115835Y-31360000D02*
X36884165Y-31360000D01*
X37115835Y-30640000D02*
X36884165Y-30640000D01*
%TO.C,C207*%
X55115835Y-39640000D02*
X54884165Y-39640000D01*
X55115835Y-40360000D02*
X54884165Y-40360000D01*
%TO.C,C317*%
X85115835Y-51640000D02*
X84884165Y-51640000D01*
X85115835Y-52360000D02*
X84884165Y-52360000D01*
%TO.C,C226*%
X37115835Y-43360000D02*
X36884165Y-43360000D01*
X37115835Y-42640000D02*
X36884165Y-42640000D01*
%TO.C,C165*%
X79115835Y-34360000D02*
X78884165Y-34360000D01*
X79115835Y-33640000D02*
X78884165Y-33640000D01*
%TO.C,C49*%
X106115835Y-19360000D02*
X105884165Y-19360000D01*
X106115835Y-18640000D02*
X105884165Y-18640000D01*
%TO.C,C42*%
X85115835Y-19360000D02*
X84884165Y-19360000D01*
X85115835Y-18640000D02*
X84884165Y-18640000D01*
%TO.C,C115*%
X79115835Y-27640000D02*
X78884165Y-27640000D01*
X79115835Y-28360000D02*
X78884165Y-28360000D01*
%TO.C,C128*%
X43115835Y-31360000D02*
X42884165Y-31360000D01*
X43115835Y-30640000D02*
X42884165Y-30640000D01*
%TO.C,C99*%
X106115835Y-25360000D02*
X105884165Y-25360000D01*
X106115835Y-24640000D02*
X105884165Y-24640000D01*
%TO.C,C291*%
X82115835Y-48640000D02*
X81884165Y-48640000D01*
X82115835Y-49360000D02*
X81884165Y-49360000D01*
%TO.C,C246*%
X97115835Y-43360000D02*
X96884165Y-43360000D01*
X97115835Y-42640000D02*
X96884165Y-42640000D01*
%TO.C,C311*%
X67115835Y-52360000D02*
X66884165Y-52360000D01*
X67115835Y-51640000D02*
X66884165Y-51640000D01*
%TO.C,C21*%
X97115835Y-15640000D02*
X96884165Y-15640000D01*
X97115835Y-16360000D02*
X96884165Y-16360000D01*
%TO.C,C270*%
X94115835Y-45640000D02*
X93884165Y-45640000D01*
X94115835Y-46360000D02*
X93884165Y-46360000D01*
%TO.C,C169*%
X91115835Y-34360000D02*
X90884165Y-34360000D01*
X91115835Y-33640000D02*
X90884165Y-33640000D01*
%TO.C,C306*%
X52115835Y-52360000D02*
X51884165Y-52360000D01*
X52115835Y-51640000D02*
X51884165Y-51640000D01*
%TO.C,C338*%
X73115835Y-55360000D02*
X72884165Y-55360000D01*
X73115835Y-54640000D02*
X72884165Y-54640000D01*
%TO.C,C76*%
X37115835Y-24640000D02*
X36884165Y-24640000D01*
X37115835Y-25360000D02*
X36884165Y-25360000D01*
%TO.C,C299*%
X106115835Y-49360000D02*
X105884165Y-49360000D01*
X106115835Y-48640000D02*
X105884165Y-48640000D01*
%TO.C,C138*%
X73115835Y-30640000D02*
X72884165Y-30640000D01*
X73115835Y-31360000D02*
X72884165Y-31360000D01*
%TO.C,C168*%
X88115835Y-33640000D02*
X87884165Y-33640000D01*
X88115835Y-34360000D02*
X87884165Y-34360000D01*
%TO.C,C210*%
X64115835Y-39640000D02*
X63884165Y-39640000D01*
X64115835Y-40360000D02*
X63884165Y-40360000D01*
%TO.C,C201*%
X37115835Y-39640000D02*
X36884165Y-39640000D01*
X37115835Y-40360000D02*
X36884165Y-40360000D01*
%TO.C,C180*%
X49115835Y-37360000D02*
X48884165Y-37360000D01*
X49115835Y-36640000D02*
X48884165Y-36640000D01*
%TO.C,C1*%
X37115835Y-16360000D02*
X36884165Y-16360000D01*
X37115835Y-15640000D02*
X36884165Y-15640000D01*
%TO.C,C309*%
X61115835Y-52360000D02*
X60884165Y-52360000D01*
X61115835Y-51640000D02*
X60884165Y-51640000D01*
%TO.C,C217*%
X85115835Y-39640000D02*
X84884165Y-39640000D01*
X85115835Y-40360000D02*
X84884165Y-40360000D01*
%TO.C,C106*%
X52115835Y-28360000D02*
X51884165Y-28360000D01*
X52115835Y-27640000D02*
X51884165Y-27640000D01*
%TO.C,C193*%
X88115835Y-36640000D02*
X87884165Y-36640000D01*
X88115835Y-37360000D02*
X87884165Y-37360000D01*
%TO.C,C221*%
X97115835Y-39640000D02*
X96884165Y-39640000D01*
X97115835Y-40360000D02*
X96884165Y-40360000D01*
%TO.C,C364*%
X76115835Y-57640000D02*
X75884165Y-57640000D01*
X76115835Y-58360000D02*
X75884165Y-58360000D01*
%TO.C,C368*%
X88115835Y-58360000D02*
X87884165Y-58360000D01*
X88115835Y-57640000D02*
X87884165Y-57640000D01*
%TO.C,C131*%
X52115835Y-30640000D02*
X51884165Y-30640000D01*
X52115835Y-31360000D02*
X51884165Y-31360000D01*
%TO.C,C240*%
X79115835Y-42640000D02*
X78884165Y-42640000D01*
X79115835Y-43360000D02*
X78884165Y-43360000D01*
%TO.C,C399*%
X12540000Y-26488748D02*
X12540000Y-27911252D01*
X15260000Y-26488748D02*
X15260000Y-27911252D01*
%TO.C,C154*%
X46115835Y-33640000D02*
X45884165Y-33640000D01*
X46115835Y-34360000D02*
X45884165Y-34360000D01*
%TO.C,C205*%
X49115835Y-39640000D02*
X48884165Y-39640000D01*
X49115835Y-40360000D02*
X48884165Y-40360000D01*
%TO.C,C84*%
X61115835Y-24640000D02*
X60884165Y-24640000D01*
X61115835Y-25360000D02*
X60884165Y-25360000D01*
%TO.C,C230*%
X49115835Y-43360000D02*
X48884165Y-43360000D01*
X49115835Y-42640000D02*
X48884165Y-42640000D01*
%TO.C,C360*%
X64115835Y-57640000D02*
X63884165Y-57640000D01*
X64115835Y-58360000D02*
X63884165Y-58360000D01*
%TO.C,C179*%
X46115835Y-36640000D02*
X45884165Y-36640000D01*
X46115835Y-37360000D02*
X45884165Y-37360000D01*
%TO.C,C39*%
X76115835Y-18640000D02*
X75884165Y-18640000D01*
X76115835Y-19360000D02*
X75884165Y-19360000D01*
%TO.C,C80*%
X49115835Y-24640000D02*
X48884165Y-24640000D01*
X49115835Y-25360000D02*
X48884165Y-25360000D01*
%TO.C,C332*%
X55115835Y-54640000D02*
X54884165Y-54640000D01*
X55115835Y-55360000D02*
X54884165Y-55360000D01*
%TO.C,C370*%
X94115835Y-57640000D02*
X93884165Y-57640000D01*
X94115835Y-58360000D02*
X93884165Y-58360000D01*
%TO.C,C68*%
X88115835Y-21640000D02*
X87884165Y-21640000D01*
X88115835Y-22360000D02*
X87884165Y-22360000D01*
%TO.C,C334*%
X61115835Y-55360000D02*
X60884165Y-55360000D01*
X61115835Y-54640000D02*
X60884165Y-54640000D01*
%TO.C,C90*%
X79115835Y-25360000D02*
X78884165Y-25360000D01*
X79115835Y-24640000D02*
X78884165Y-24640000D01*
%TO.C,C285*%
X64115835Y-49360000D02*
X63884165Y-49360000D01*
X64115835Y-48640000D02*
X63884165Y-48640000D01*
%TO.C,C324*%
X106115835Y-51640000D02*
X105884165Y-51640000D01*
X106115835Y-52360000D02*
X105884165Y-52360000D01*
%TO.C,C255*%
X49115835Y-45640000D02*
X48884165Y-45640000D01*
X49115835Y-46360000D02*
X48884165Y-46360000D01*
%TO.C,C294*%
X91115835Y-49360000D02*
X90884165Y-49360000D01*
X91115835Y-48640000D02*
X90884165Y-48640000D01*
%TO.C,C37*%
X70115835Y-19360000D02*
X69884165Y-19360000D01*
X70115835Y-18640000D02*
X69884165Y-18640000D01*
%TO.C,C86*%
X67115835Y-25360000D02*
X66884165Y-25360000D01*
X67115835Y-24640000D02*
X66884165Y-24640000D01*
%TO.C,C280*%
X49115835Y-48640000D02*
X48884165Y-48640000D01*
X49115835Y-49360000D02*
X48884165Y-49360000D01*
%TO.C,C11*%
X67115835Y-16360000D02*
X66884165Y-16360000D01*
X67115835Y-15640000D02*
X66884165Y-15640000D01*
%TO.C,C92*%
X85115835Y-25360000D02*
X84884165Y-25360000D01*
X85115835Y-24640000D02*
X84884165Y-24640000D01*
%TO.C,C374*%
X106115835Y-57640000D02*
X105884165Y-57640000D01*
X106115835Y-58360000D02*
X105884165Y-58360000D01*
%TO.C,C185*%
X64115835Y-36640000D02*
X63884165Y-36640000D01*
X64115835Y-37360000D02*
X63884165Y-37360000D01*
%TO.C,C258*%
X58115835Y-45640000D02*
X57884165Y-45640000D01*
X58115835Y-46360000D02*
X57884165Y-46360000D01*
%TO.C,C225*%
X109115835Y-39640000D02*
X108884165Y-39640000D01*
X109115835Y-40360000D02*
X108884165Y-40360000D01*
%TO.C,C248*%
X103115835Y-42640000D02*
X102884165Y-42640000D01*
X103115835Y-43360000D02*
X102884165Y-43360000D01*
%TO.C,C170*%
X94115835Y-33640000D02*
X93884165Y-33640000D01*
X94115835Y-34360000D02*
X93884165Y-34360000D01*
%TO.C,C20*%
X94115835Y-15640000D02*
X93884165Y-15640000D01*
X94115835Y-16360000D02*
X93884165Y-16360000D01*
%TO.C,C269*%
X91115835Y-46360000D02*
X90884165Y-46360000D01*
X91115835Y-45640000D02*
X90884165Y-45640000D01*
%TO.C,C177*%
X40115835Y-36640000D02*
X39884165Y-36640000D01*
X40115835Y-37360000D02*
X39884165Y-37360000D01*
%TO.C,C249*%
X106115835Y-42640000D02*
X105884165Y-42640000D01*
X106115835Y-43360000D02*
X105884165Y-43360000D01*
%TO.C,C87*%
X70115835Y-24640000D02*
X69884165Y-24640000D01*
X70115835Y-25360000D02*
X69884165Y-25360000D01*
%TO.C,C284*%
X61115835Y-49360000D02*
X60884165Y-49360000D01*
X61115835Y-48640000D02*
X60884165Y-48640000D01*
%TO.C,C83*%
X58115835Y-25360000D02*
X57884165Y-25360000D01*
X58115835Y-24640000D02*
X57884165Y-24640000D01*
%TO.C,C129*%
X46115835Y-31360000D02*
X45884165Y-31360000D01*
X46115835Y-30640000D02*
X45884165Y-30640000D01*
%TO.C,C289*%
X76115835Y-49360000D02*
X75884165Y-49360000D01*
X76115835Y-48640000D02*
X75884165Y-48640000D01*
%TO.C,L1*%
X22475000Y-34575000D02*
X22475000Y-28025000D01*
X15925000Y-34575000D02*
X15925000Y-28025000D01*
X17185500Y-34575000D02*
X15925000Y-34575000D01*
X21214500Y-34575000D02*
X22475000Y-34575000D01*
X15925000Y-28025000D02*
X17185500Y-28025000D01*
X22475000Y-28025000D02*
X21214500Y-28025000D01*
%TO.C,C300*%
X109115835Y-48640000D02*
X108884165Y-48640000D01*
X109115835Y-49360000D02*
X108884165Y-49360000D01*
%TO.C,C330*%
X49115835Y-55360000D02*
X48884165Y-55360000D01*
X49115835Y-54640000D02*
X48884165Y-54640000D01*
%TO.C,C293*%
X88115835Y-49360000D02*
X87884165Y-49360000D01*
X88115835Y-48640000D02*
X87884165Y-48640000D01*
%TO.C,C96*%
X97115835Y-24640000D02*
X96884165Y-24640000D01*
X97115835Y-25360000D02*
X96884165Y-25360000D01*
%TO.C,C239*%
X76115835Y-42640000D02*
X75884165Y-42640000D01*
X76115835Y-43360000D02*
X75884165Y-43360000D01*
%TO.C,C224*%
X106115835Y-40360000D02*
X105884165Y-40360000D01*
X106115835Y-39640000D02*
X105884165Y-39640000D01*
%TO.C,C402*%
X22665000Y-54761252D02*
X22665000Y-54238748D01*
X24135000Y-54761252D02*
X24135000Y-54238748D01*
%TO.C,C9*%
X61115835Y-16360000D02*
X60884165Y-16360000D01*
X61115835Y-15640000D02*
X60884165Y-15640000D01*
%TO.C,C197*%
X100115835Y-36640000D02*
X99884165Y-36640000D01*
X100115835Y-37360000D02*
X99884165Y-37360000D01*
%TO.C,C328*%
X43115835Y-54640000D02*
X42884165Y-54640000D01*
X43115835Y-55360000D02*
X42884165Y-55360000D01*
%TO.C,C110*%
X64115835Y-28360000D02*
X63884165Y-28360000D01*
X64115835Y-27640000D02*
X63884165Y-27640000D01*
%TO.C,C144*%
X91115835Y-30640000D02*
X90884165Y-30640000D01*
X91115835Y-31360000D02*
X90884165Y-31360000D01*
%TO.C,C95*%
X94115835Y-24640000D02*
X93884165Y-24640000D01*
X94115835Y-25360000D02*
X93884165Y-25360000D01*
%TO.C,C301*%
X37115835Y-52360000D02*
X36884165Y-52360000D01*
X37115835Y-51640000D02*
X36884165Y-51640000D01*
%TO.C,C141*%
X82115835Y-30640000D02*
X81884165Y-30640000D01*
X82115835Y-31360000D02*
X81884165Y-31360000D01*
%TO.C,C196*%
X97115835Y-37360000D02*
X96884165Y-37360000D01*
X97115835Y-36640000D02*
X96884165Y-36640000D01*
%TO.C,C60*%
X64115835Y-22360000D02*
X63884165Y-22360000D01*
X64115835Y-21640000D02*
X63884165Y-21640000D01*
%TO.C,C227*%
X40115835Y-43360000D02*
X39884165Y-43360000D01*
X40115835Y-42640000D02*
X39884165Y-42640000D01*
%TO.C,C296*%
X97115835Y-49360000D02*
X96884165Y-49360000D01*
X97115835Y-48640000D02*
X96884165Y-48640000D01*
%TO.C,C243*%
X88115835Y-43360000D02*
X87884165Y-43360000D01*
X88115835Y-42640000D02*
X87884165Y-42640000D01*
%TO.C,C153*%
X43115835Y-33640000D02*
X42884165Y-33640000D01*
X43115835Y-34360000D02*
X42884165Y-34360000D01*
%TO.C,C335*%
X64115835Y-54640000D02*
X63884165Y-54640000D01*
X64115835Y-55360000D02*
X63884165Y-55360000D01*
%TO.C,C268*%
X88115835Y-46360000D02*
X87884165Y-46360000D01*
X88115835Y-45640000D02*
X87884165Y-45640000D01*
%TO.C,C67*%
X85115835Y-21640000D02*
X84884165Y-21640000D01*
X85115835Y-22360000D02*
X84884165Y-22360000D01*
%TO.C,C187*%
X70115835Y-36640000D02*
X69884165Y-36640000D01*
X70115835Y-37360000D02*
X69884165Y-37360000D01*
%TO.C,C65*%
X79115835Y-21640000D02*
X78884165Y-21640000D01*
X79115835Y-22360000D02*
X78884165Y-22360000D01*
%TO.C,U5*%
X21400000Y-40860000D02*
X23350000Y-40860000D01*
X21400000Y-40860000D02*
X19450000Y-40860000D01*
X21400000Y-35740000D02*
X24850000Y-35740000D01*
X21400000Y-35740000D02*
X19450000Y-35740000D01*
%TO.C,C340*%
X79115835Y-55360000D02*
X78884165Y-55360000D01*
X79115835Y-54640000D02*
X78884165Y-54640000D01*
%TO.C,C93*%
X88115835Y-25360000D02*
X87884165Y-25360000D01*
X88115835Y-24640000D02*
X87884165Y-24640000D01*
%TO.C,C199*%
X106115835Y-36640000D02*
X105884165Y-36640000D01*
X106115835Y-37360000D02*
X105884165Y-37360000D01*
%TO.C,C252*%
X40115835Y-45640000D02*
X39884165Y-45640000D01*
X40115835Y-46360000D02*
X39884165Y-46360000D01*
%TO.C,C125*%
X109115835Y-28360000D02*
X108884165Y-28360000D01*
X109115835Y-27640000D02*
X108884165Y-27640000D01*
%TO.C,C163*%
X73115835Y-34360000D02*
X72884165Y-34360000D01*
X73115835Y-33640000D02*
X72884165Y-33640000D01*
%TO.C,C241*%
X82115835Y-43360000D02*
X81884165Y-43360000D01*
X82115835Y-42640000D02*
X81884165Y-42640000D01*
%TO.C,C315*%
X79115835Y-52360000D02*
X78884165Y-52360000D01*
X79115835Y-51640000D02*
X78884165Y-51640000D01*
%TO.C,C8*%
X58115835Y-16360000D02*
X57884165Y-16360000D01*
X58115835Y-15640000D02*
X57884165Y-15640000D01*
%TO.C,C247*%
X100115835Y-42640000D02*
X99884165Y-42640000D01*
X100115835Y-43360000D02*
X99884165Y-43360000D01*
%TO.C,C171*%
X97115835Y-33640000D02*
X96884165Y-33640000D01*
X97115835Y-34360000D02*
X96884165Y-34360000D01*
%TO.C,C97*%
X100115835Y-25360000D02*
X99884165Y-25360000D01*
X100115835Y-24640000D02*
X99884165Y-24640000D01*
%TO.C,C57*%
X55115835Y-22360000D02*
X54884165Y-22360000D01*
X55115835Y-21640000D02*
X54884165Y-21640000D01*
%TO.C,C219*%
X91115835Y-40360000D02*
X90884165Y-40360000D01*
X91115835Y-39640000D02*
X90884165Y-39640000D01*
%TO.C,C10*%
X64115835Y-16360000D02*
X63884165Y-16360000D01*
X64115835Y-15640000D02*
X63884165Y-15640000D01*
%TO.C,C192*%
X85115835Y-36640000D02*
X84884165Y-36640000D01*
X85115835Y-37360000D02*
X84884165Y-37360000D01*
%TO.C,C237*%
X70115835Y-43360000D02*
X69884165Y-43360000D01*
X70115835Y-42640000D02*
X69884165Y-42640000D01*
%TO.C,C120*%
X94115835Y-27640000D02*
X93884165Y-27640000D01*
X94115835Y-28360000D02*
X93884165Y-28360000D01*
%TO.C,C22*%
X100115835Y-15640000D02*
X99884165Y-15640000D01*
X100115835Y-16360000D02*
X99884165Y-16360000D01*
%TO.C,C147*%
X100115835Y-30640000D02*
X99884165Y-30640000D01*
X100115835Y-31360000D02*
X99884165Y-31360000D01*
%TO.C,C160*%
X64115835Y-34360000D02*
X63884165Y-34360000D01*
X64115835Y-33640000D02*
X63884165Y-33640000D01*
%TO.C,C362*%
X70115835Y-57640000D02*
X69884165Y-57640000D01*
X70115835Y-58360000D02*
X69884165Y-58360000D01*
%TO.C,C303*%
X43115835Y-52360000D02*
X42884165Y-52360000D01*
X43115835Y-51640000D02*
X42884165Y-51640000D01*
%TO.C,C336*%
X67115835Y-54640000D02*
X66884165Y-54640000D01*
X67115835Y-55360000D02*
X66884165Y-55360000D01*
%TO.C,C329*%
X46115835Y-55360000D02*
X45884165Y-55360000D01*
X46115835Y-54640000D02*
X45884165Y-54640000D01*
%TO.C,C191*%
X82115835Y-36640000D02*
X81884165Y-36640000D01*
X82115835Y-37360000D02*
X81884165Y-37360000D01*
%TO.C,C104*%
X46115835Y-28360000D02*
X45884165Y-28360000D01*
X46115835Y-27640000D02*
X45884165Y-27640000D01*
%TO.C,C228*%
X43115835Y-42640000D02*
X42884165Y-42640000D01*
X43115835Y-43360000D02*
X42884165Y-43360000D01*
%TO.C,C184*%
X61115835Y-36640000D02*
X60884165Y-36640000D01*
X61115835Y-37360000D02*
X60884165Y-37360000D01*
%TO.C,C69*%
X91115835Y-22360000D02*
X90884165Y-22360000D01*
X91115835Y-21640000D02*
X90884165Y-21640000D01*
%TO.C,C372*%
X100115835Y-58360000D02*
X99884165Y-58360000D01*
X100115835Y-57640000D02*
X99884165Y-57640000D01*
%TO.C,C85*%
X64115835Y-25360000D02*
X63884165Y-25360000D01*
X64115835Y-24640000D02*
X63884165Y-24640000D01*
%TO.C,C70*%
X94115835Y-22360000D02*
X93884165Y-22360000D01*
X94115835Y-21640000D02*
X93884165Y-21640000D01*
%TO.C,C74*%
X106115835Y-21640000D02*
X105884165Y-21640000D01*
X106115835Y-22360000D02*
X105884165Y-22360000D01*
%TO.C,C278*%
X43115835Y-48640000D02*
X42884165Y-48640000D01*
X43115835Y-49360000D02*
X42884165Y-49360000D01*
%TO.C,C50*%
X109115835Y-18640000D02*
X108884165Y-18640000D01*
X109115835Y-19360000D02*
X108884165Y-19360000D01*
%TO.C,C78*%
X43115835Y-25360000D02*
X42884165Y-25360000D01*
X43115835Y-24640000D02*
X42884165Y-24640000D01*
%TO.C,C164*%
X76115835Y-33640000D02*
X75884165Y-33640000D01*
X76115835Y-34360000D02*
X75884165Y-34360000D01*
%TO.C,C108*%
X58115835Y-27640000D02*
X57884165Y-27640000D01*
X58115835Y-28360000D02*
X57884165Y-28360000D01*
%TO.C,C375*%
X109115835Y-58360000D02*
X108884165Y-58360000D01*
X109115835Y-57640000D02*
X108884165Y-57640000D01*
%TO.C,C151*%
X37115835Y-34360000D02*
X36884165Y-34360000D01*
X37115835Y-33640000D02*
X36884165Y-33640000D01*
%TO.C,C325*%
X109115835Y-52360000D02*
X108884165Y-52360000D01*
X109115835Y-51640000D02*
X108884165Y-51640000D01*
%TO.C,C64*%
X76115835Y-22360000D02*
X75884165Y-22360000D01*
X76115835Y-21640000D02*
X75884165Y-21640000D01*
%TO.C,C88*%
X73115835Y-25360000D02*
X72884165Y-25360000D01*
X73115835Y-24640000D02*
X72884165Y-24640000D01*
%TO.C,C121*%
X97115835Y-28360000D02*
X96884165Y-28360000D01*
X97115835Y-27640000D02*
X96884165Y-27640000D01*
%TO.C,C19*%
X91115835Y-16360000D02*
X90884165Y-16360000D01*
X91115835Y-15640000D02*
X90884165Y-15640000D01*
%TO.C,C63*%
X73115835Y-21640000D02*
X72884165Y-21640000D01*
X73115835Y-22360000D02*
X72884165Y-22360000D01*
%TO.C,C222*%
X100115835Y-40360000D02*
X99884165Y-40360000D01*
X100115835Y-39640000D02*
X99884165Y-39640000D01*
%TO.C,C178*%
X43115835Y-36640000D02*
X42884165Y-36640000D01*
X43115835Y-37360000D02*
X42884165Y-37360000D01*
%TO.C,C345*%
X94115835Y-54640000D02*
X93884165Y-54640000D01*
X94115835Y-55360000D02*
X93884165Y-55360000D01*
%TO.C,C251*%
X37115835Y-45640000D02*
X36884165Y-45640000D01*
X37115835Y-46360000D02*
X36884165Y-46360000D01*
%TO.C,C30*%
X49115835Y-18640000D02*
X48884165Y-18640000D01*
X49115835Y-19360000D02*
X48884165Y-19360000D01*
%TO.C,C282*%
X55115835Y-48640000D02*
X54884165Y-48640000D01*
X55115835Y-49360000D02*
X54884165Y-49360000D01*
%TO.C,C71*%
X97115835Y-22360000D02*
X96884165Y-22360000D01*
X97115835Y-21640000D02*
X96884165Y-21640000D01*
%TO.C,C133*%
X58115835Y-31360000D02*
X57884165Y-31360000D01*
X58115835Y-30640000D02*
X57884165Y-30640000D01*
%TO.C,C182*%
X55115835Y-37360000D02*
X54884165Y-37360000D01*
X55115835Y-36640000D02*
X54884165Y-36640000D01*
%TO.C,C292*%
X85115835Y-49360000D02*
X84884165Y-49360000D01*
X85115835Y-48640000D02*
X84884165Y-48640000D01*
%TO.C,C320*%
X94115835Y-52360000D02*
X93884165Y-52360000D01*
X94115835Y-51640000D02*
X93884165Y-51640000D01*
%TO.C,C102*%
X40115835Y-28360000D02*
X39884165Y-28360000D01*
X40115835Y-27640000D02*
X39884165Y-27640000D01*
%TO.C,C139*%
X76115835Y-30640000D02*
X75884165Y-30640000D01*
X76115835Y-31360000D02*
X75884165Y-31360000D01*
%TO.C,C174*%
X106115835Y-33640000D02*
X105884165Y-33640000D01*
X106115835Y-34360000D02*
X105884165Y-34360000D01*
%TO.C,C36*%
X67115835Y-18640000D02*
X66884165Y-18640000D01*
X67115835Y-19360000D02*
X66884165Y-19360000D01*
%TO.C,C259*%
X61115835Y-45640000D02*
X60884165Y-45640000D01*
X61115835Y-46360000D02*
X60884165Y-46360000D01*
%TO.C,C214*%
X76115835Y-39640000D02*
X75884165Y-39640000D01*
X76115835Y-40360000D02*
X75884165Y-40360000D01*
%TO.C,C204*%
X46115835Y-40360000D02*
X45884165Y-40360000D01*
X46115835Y-39640000D02*
X45884165Y-39640000D01*
%TO.C,C326*%
X37115835Y-55360000D02*
X36884165Y-55360000D01*
X37115835Y-54640000D02*
X36884165Y-54640000D01*
%TO.C,C53*%
X43115835Y-22360000D02*
X42884165Y-22360000D01*
X43115835Y-21640000D02*
X42884165Y-21640000D01*
%TO.C,C166*%
X82115835Y-34360000D02*
X81884165Y-34360000D01*
X82115835Y-33640000D02*
X81884165Y-33640000D01*
%TO.C,C29*%
X46115835Y-19360000D02*
X45884165Y-19360000D01*
X46115835Y-18640000D02*
X45884165Y-18640000D01*
%TO.C,C359*%
X61115835Y-57640000D02*
X60884165Y-57640000D01*
X61115835Y-58360000D02*
X60884165Y-58360000D01*
%TO.C,C101*%
X37115835Y-28360000D02*
X36884165Y-28360000D01*
X37115835Y-27640000D02*
X36884165Y-27640000D01*
%TO.C,C272*%
X100115835Y-45640000D02*
X99884165Y-45640000D01*
X100115835Y-46360000D02*
X99884165Y-46360000D01*
%TO.C,C250*%
X109115835Y-43360000D02*
X108884165Y-43360000D01*
X109115835Y-42640000D02*
X108884165Y-42640000D01*
%TO.C,C310*%
X64115835Y-52360000D02*
X63884165Y-52360000D01*
X64115835Y-51640000D02*
X63884165Y-51640000D01*
%TO.C,C253*%
X43115835Y-46360000D02*
X42884165Y-46360000D01*
X43115835Y-45640000D02*
X42884165Y-45640000D01*
%TO.C,C79*%
X46115835Y-24640000D02*
X45884165Y-24640000D01*
X46115835Y-25360000D02*
X45884165Y-25360000D01*
%TO.C,C155*%
X49115835Y-34360000D02*
X48884165Y-34360000D01*
X49115835Y-33640000D02*
X48884165Y-33640000D01*
%TO.C,C353*%
X43115835Y-58360000D02*
X42884165Y-58360000D01*
X43115835Y-57640000D02*
X42884165Y-57640000D01*
%TO.C,C6*%
X52115835Y-15640000D02*
X51884165Y-15640000D01*
X52115835Y-16360000D02*
X51884165Y-16360000D01*
%TO.C,C287*%
X70115835Y-49360000D02*
X69884165Y-49360000D01*
X70115835Y-48640000D02*
X69884165Y-48640000D01*
%TO.C,C135*%
X64115835Y-30640000D02*
X63884165Y-30640000D01*
X64115835Y-31360000D02*
X63884165Y-31360000D01*
%TO.C,C202*%
X40115835Y-40360000D02*
X39884165Y-40360000D01*
X40115835Y-39640000D02*
X39884165Y-39640000D01*
%TO.C,C161*%
X67115835Y-33640000D02*
X66884165Y-33640000D01*
X67115835Y-34360000D02*
X66884165Y-34360000D01*
%TO.C,J1*%
X25825000Y-14670000D02*
X25765000Y-14670000D01*
X32175000Y-14670000D02*
X32175000Y-13210000D01*
X25825000Y-17330000D02*
X25765000Y-17330000D01*
X32235000Y-17330000D02*
X32235000Y-14670000D01*
X32235000Y-17330000D02*
X32175000Y-17330000D01*
X25765000Y-17330000D02*
X25765000Y-14670000D01*
X32235000Y-14670000D02*
X32175000Y-14670000D01*
%TO.C,C198*%
X103115835Y-36640000D02*
X102884165Y-36640000D01*
X103115835Y-37360000D02*
X102884165Y-37360000D01*
%TO.C,C44*%
X91115835Y-19360000D02*
X90884165Y-19360000D01*
X91115835Y-18640000D02*
X90884165Y-18640000D01*
%TO.C,U4*%
X34825000Y-47525000D02*
X34565000Y-47525000D01*
X29375000Y-42075000D02*
X29635000Y-42075000D01*
X29375000Y-44800000D02*
X29375000Y-42075000D01*
X29375000Y-44800000D02*
X29375000Y-47525000D01*
X34825000Y-44800000D02*
X34825000Y-47525000D01*
X34825000Y-44800000D02*
X34825000Y-42075000D01*
X29635000Y-42075000D02*
X29635000Y-40400000D01*
X29375000Y-47525000D02*
X29635000Y-47525000D01*
X34825000Y-42075000D02*
X34565000Y-42075000D01*
%TO.C,L2*%
X14320000Y-41820000D02*
X24680000Y-41820000D01*
X14320000Y-49775000D02*
X14320000Y-52180000D01*
X14320000Y-52180000D02*
X24680000Y-52180000D01*
X24680000Y-41820000D02*
X24680000Y-44225000D01*
X24680000Y-52180000D02*
X24680000Y-49775000D01*
X14320000Y-44225000D02*
X14320000Y-41820000D01*
%TO.C,C327*%
X40115835Y-55360000D02*
X39884165Y-55360000D01*
X40115835Y-54640000D02*
X39884165Y-54640000D01*
%TO.C,C352*%
X40115835Y-57640000D02*
X39884165Y-57640000D01*
X40115835Y-58360000D02*
X39884165Y-58360000D01*
%TO.C,C233*%
X58115835Y-42640000D02*
X57884165Y-42640000D01*
X58115835Y-43360000D02*
X57884165Y-43360000D01*
%TO.C,C24*%
X106115835Y-15640000D02*
X105884165Y-15640000D01*
X106115835Y-16360000D02*
X105884165Y-16360000D01*
%TO.C,C213*%
X73115835Y-40360000D02*
X72884165Y-40360000D01*
X73115835Y-39640000D02*
X72884165Y-39640000D01*
%TO.C,C122*%
X100115835Y-27640000D02*
X99884165Y-27640000D01*
X100115835Y-28360000D02*
X99884165Y-28360000D01*
%TO.C,C403*%
X27661252Y-51335000D02*
X27138748Y-51335000D01*
X27661252Y-49865000D02*
X27138748Y-49865000D01*
%TO.C,C203*%
X43115835Y-39640000D02*
X42884165Y-39640000D01*
X43115835Y-40360000D02*
X42884165Y-40360000D01*
%TO.C,C190*%
X79115835Y-37360000D02*
X78884165Y-37360000D01*
X79115835Y-36640000D02*
X78884165Y-36640000D01*
%TO.C,C369*%
X91115835Y-57640000D02*
X90884165Y-57640000D01*
X91115835Y-58360000D02*
X90884165Y-58360000D01*
%TO.C,C342*%
X85115835Y-54640000D02*
X84884165Y-54640000D01*
X85115835Y-55360000D02*
X84884165Y-55360000D01*
%TO.C,C263*%
X73115835Y-45640000D02*
X72884165Y-45640000D01*
X73115835Y-46360000D02*
X72884165Y-46360000D01*
%TO.C,C152*%
X40115835Y-34360000D02*
X39884165Y-34360000D01*
X40115835Y-33640000D02*
X39884165Y-33640000D01*
%TO.C,C56*%
X52115835Y-22360000D02*
X51884165Y-22360000D01*
X52115835Y-21640000D02*
X51884165Y-21640000D01*
%TO.C,C216*%
X82115835Y-39640000D02*
X81884165Y-39640000D01*
X82115835Y-40360000D02*
X81884165Y-40360000D01*
%TO.C,C186*%
X67115835Y-37360000D02*
X66884165Y-37360000D01*
X67115835Y-36640000D02*
X66884165Y-36640000D01*
%TO.C,C157*%
X55115835Y-34360000D02*
X54884165Y-34360000D01*
X55115835Y-33640000D02*
X54884165Y-33640000D01*
%TO.C,C290*%
X79115835Y-49360000D02*
X78884165Y-49360000D01*
X79115835Y-48640000D02*
X78884165Y-48640000D01*
%TO.C,C286*%
X67115835Y-49360000D02*
X66884165Y-49360000D01*
X67115835Y-48640000D02*
X66884165Y-48640000D01*
%TO.C,C367*%
X85115835Y-58360000D02*
X84884165Y-58360000D01*
X85115835Y-57640000D02*
X84884165Y-57640000D01*
%TO.C,C81*%
X52115835Y-25360000D02*
X51884165Y-25360000D01*
X52115835Y-24640000D02*
X51884165Y-24640000D01*
%TO.C,C254*%
X46115835Y-45640000D02*
X45884165Y-45640000D01*
X46115835Y-46360000D02*
X45884165Y-46360000D01*
%TO.C,C25*%
X109115835Y-16360000D02*
X108884165Y-16360000D01*
X109115835Y-15640000D02*
X108884165Y-15640000D01*
%TO.C,C283*%
X58115835Y-49360000D02*
X57884165Y-49360000D01*
X58115835Y-48640000D02*
X57884165Y-48640000D01*
%TO.C,C307*%
X55115835Y-51640000D02*
X54884165Y-51640000D01*
X55115835Y-52360000D02*
X54884165Y-52360000D01*
%TO.C,C333*%
X58115835Y-54640000D02*
X57884165Y-54640000D01*
X58115835Y-55360000D02*
X57884165Y-55360000D01*
%TO.C,C200*%
X109115835Y-37360000D02*
X108884165Y-37360000D01*
X109115835Y-36640000D02*
X108884165Y-36640000D01*
%TO.C,C117*%
X85115835Y-27640000D02*
X84884165Y-27640000D01*
X85115835Y-28360000D02*
X84884165Y-28360000D01*
%TO.C,C149*%
X106115835Y-31360000D02*
X105884165Y-31360000D01*
X106115835Y-30640000D02*
X105884165Y-30640000D01*
%TO.C,C363*%
X73115835Y-57640000D02*
X72884165Y-57640000D01*
X73115835Y-58360000D02*
X72884165Y-58360000D01*
%TO.C,C183*%
X58115835Y-37360000D02*
X57884165Y-37360000D01*
X58115835Y-36640000D02*
X57884165Y-36640000D01*
%TO.C,C358*%
X58115835Y-58360000D02*
X57884165Y-58360000D01*
X58115835Y-57640000D02*
X57884165Y-57640000D01*
%TO.C,C89*%
X76115835Y-25360000D02*
X75884165Y-25360000D01*
X76115835Y-24640000D02*
X75884165Y-24640000D01*
%TO.C,C14*%
X76115835Y-16360000D02*
X75884165Y-16360000D01*
X76115835Y-15640000D02*
X75884165Y-15640000D01*
%TO.C,C118*%
X88115835Y-27640000D02*
X87884165Y-27640000D01*
X88115835Y-28360000D02*
X87884165Y-28360000D01*
%TO.C,C103*%
X43115835Y-27640000D02*
X42884165Y-27640000D01*
X43115835Y-28360000D02*
X42884165Y-28360000D01*
%TO.C,C264*%
X76115835Y-46360000D02*
X75884165Y-46360000D01*
X76115835Y-45640000D02*
X75884165Y-45640000D01*
%TO.C,C245*%
X94115835Y-42640000D02*
X93884165Y-42640000D01*
X94115835Y-43360000D02*
X93884165Y-43360000D01*
%TO.C,C119*%
X91115835Y-27640000D02*
X90884165Y-27640000D01*
X91115835Y-28360000D02*
X90884165Y-28360000D01*
%TO.C,C347*%
X100115835Y-55360000D02*
X99884165Y-55360000D01*
X100115835Y-54640000D02*
X99884165Y-54640000D01*
%TO.C,C321*%
X97115835Y-52360000D02*
X96884165Y-52360000D01*
X97115835Y-51640000D02*
X96884165Y-51640000D01*
%TO.C,C234*%
X61115835Y-42640000D02*
X60884165Y-42640000D01*
X61115835Y-43360000D02*
X60884165Y-43360000D01*
%TO.C,C323*%
X103115835Y-51640000D02*
X102884165Y-51640000D01*
X103115835Y-52360000D02*
X102884165Y-52360000D01*
%TO.C,C159*%
X61115835Y-34360000D02*
X60884165Y-34360000D01*
X61115835Y-33640000D02*
X60884165Y-33640000D01*
%TO.C,C156*%
X52115835Y-34360000D02*
X51884165Y-34360000D01*
X52115835Y-33640000D02*
X51884165Y-33640000D01*
%TO.C,C238*%
X73115835Y-42640000D02*
X72884165Y-42640000D01*
X73115835Y-43360000D02*
X72884165Y-43360000D01*
%TO.C,C188*%
X73115835Y-37360000D02*
X72884165Y-37360000D01*
X73115835Y-36640000D02*
X72884165Y-36640000D01*
%TO.C,C145*%
X94115835Y-30640000D02*
X93884165Y-30640000D01*
X94115835Y-31360000D02*
X93884165Y-31360000D01*
%TO.C,C47*%
X100115835Y-19360000D02*
X99884165Y-19360000D01*
X100115835Y-18640000D02*
X99884165Y-18640000D01*
%TO.C,C223*%
X103115835Y-39640000D02*
X102884165Y-39640000D01*
X103115835Y-40360000D02*
X102884165Y-40360000D01*
%TO.C,C111*%
X67115835Y-27640000D02*
X66884165Y-27640000D01*
X67115835Y-28360000D02*
X66884165Y-28360000D01*
%TO.C,C13*%
X73115835Y-16360000D02*
X72884165Y-16360000D01*
X73115835Y-15640000D02*
X72884165Y-15640000D01*
%TO.C,C7*%
X55115835Y-15640000D02*
X54884165Y-15640000D01*
X55115835Y-16360000D02*
X54884165Y-16360000D01*
%TO.C,C18*%
X88115835Y-16360000D02*
X87884165Y-16360000D01*
X88115835Y-15640000D02*
X87884165Y-15640000D01*
%TO.C,C41*%
X82115835Y-18640000D02*
X81884165Y-18640000D01*
X82115835Y-19360000D02*
X81884165Y-19360000D01*
%TO.C,C298*%
X103115835Y-48640000D02*
X102884165Y-48640000D01*
X103115835Y-49360000D02*
X102884165Y-49360000D01*
%TO.C,C124*%
X106115835Y-28360000D02*
X105884165Y-28360000D01*
X106115835Y-27640000D02*
X105884165Y-27640000D01*
%TO.C,C23*%
X103115835Y-16360000D02*
X102884165Y-16360000D01*
X103115835Y-15640000D02*
X102884165Y-15640000D01*
%TO.C,C5*%
X49115835Y-15640000D02*
X48884165Y-15640000D01*
X49115835Y-16360000D02*
X48884165Y-16360000D01*
%TO.C,C107*%
X55115835Y-27640000D02*
X54884165Y-27640000D01*
X55115835Y-28360000D02*
X54884165Y-28360000D01*
%TO.C,C59*%
X61115835Y-21640000D02*
X60884165Y-21640000D01*
X61115835Y-22360000D02*
X60884165Y-22360000D01*
%TO.C,C45*%
X94115835Y-18640000D02*
X93884165Y-18640000D01*
X94115835Y-19360000D02*
X93884165Y-19360000D01*
%TO.C,C211*%
X67115835Y-39640000D02*
X66884165Y-39640000D01*
X67115835Y-40360000D02*
X66884165Y-40360000D01*
%TO.C,C28*%
X43115835Y-18640000D02*
X42884165Y-18640000D01*
X43115835Y-19360000D02*
X42884165Y-19360000D01*
%TO.C,C127*%
X40115835Y-31360000D02*
X39884165Y-31360000D01*
X40115835Y-30640000D02*
X39884165Y-30640000D01*
%TO.C,C277*%
X40115835Y-48640000D02*
X39884165Y-48640000D01*
X40115835Y-49360000D02*
X39884165Y-49360000D01*
%TO.C,C91*%
X82115835Y-25360000D02*
X81884165Y-25360000D01*
X82115835Y-24640000D02*
X81884165Y-24640000D01*
%TO.C,C371*%
X97115835Y-57640000D02*
X96884165Y-57640000D01*
X97115835Y-58360000D02*
X96884165Y-58360000D01*
%TO.C,C72*%
X100115835Y-21640000D02*
X99884165Y-21640000D01*
X100115835Y-22360000D02*
X99884165Y-22360000D01*
%TO.C,C257*%
X55115835Y-46360000D02*
X54884165Y-46360000D01*
X55115835Y-45640000D02*
X54884165Y-45640000D01*
%TO.C,C15*%
X79115835Y-16360000D02*
X78884165Y-16360000D01*
X79115835Y-15640000D02*
X78884165Y-15640000D01*
%TO.C,C116*%
X82115835Y-28360000D02*
X81884165Y-28360000D01*
X82115835Y-27640000D02*
X81884165Y-27640000D01*
%TO.C,C344*%
X91115835Y-55360000D02*
X90884165Y-55360000D01*
X91115835Y-54640000D02*
X90884165Y-54640000D01*
%TO.C,C75*%
X109115835Y-22360000D02*
X108884165Y-22360000D01*
X109115835Y-21640000D02*
X108884165Y-21640000D01*
%TO.C,C62*%
X70115835Y-22360000D02*
X69884165Y-22360000D01*
X70115835Y-21640000D02*
X69884165Y-21640000D01*
%TO.C,C232*%
X55115835Y-43360000D02*
X54884165Y-43360000D01*
X55115835Y-42640000D02*
X54884165Y-42640000D01*
%TO.C,C167*%
X85115835Y-33640000D02*
X84884165Y-33640000D01*
X85115835Y-34360000D02*
X84884165Y-34360000D01*
%TO.C,C134*%
X61115835Y-31360000D02*
X60884165Y-31360000D01*
X61115835Y-30640000D02*
X60884165Y-30640000D01*
%TO.C,C302*%
X40115835Y-52360000D02*
X39884165Y-52360000D01*
X40115835Y-51640000D02*
X39884165Y-51640000D01*
%TO.C,C265*%
X79115835Y-45640000D02*
X78884165Y-45640000D01*
X79115835Y-46360000D02*
X78884165Y-46360000D01*
%TO.C,C276*%
X37115835Y-49360000D02*
X36884165Y-49360000D01*
X37115835Y-48640000D02*
X36884165Y-48640000D01*
%TO.C,C55*%
X49115835Y-21640000D02*
X48884165Y-21640000D01*
X49115835Y-22360000D02*
X48884165Y-22360000D01*
%TO.C,C331*%
X52115835Y-55360000D02*
X51884165Y-55360000D01*
X52115835Y-54640000D02*
X51884165Y-54640000D01*
%TO.C,C17*%
X85115835Y-16360000D02*
X84884165Y-16360000D01*
X85115835Y-15640000D02*
X84884165Y-15640000D01*
%TO.C,C48*%
X103115835Y-18640000D02*
X102884165Y-18640000D01*
X103115835Y-19360000D02*
X102884165Y-19360000D01*
%TO.C,C218*%
X88115835Y-40360000D02*
X87884165Y-40360000D01*
X88115835Y-39640000D02*
X87884165Y-39640000D01*
%TO.C,C279*%
X46115835Y-49360000D02*
X45884165Y-49360000D01*
X46115835Y-48640000D02*
X45884165Y-48640000D01*
%TO.C,C140*%
X79115835Y-30640000D02*
X78884165Y-30640000D01*
X79115835Y-31360000D02*
X78884165Y-31360000D01*
%TO.C,C130*%
X49115835Y-31360000D02*
X48884165Y-31360000D01*
X49115835Y-30640000D02*
X48884165Y-30640000D01*
%TD*%
%LPC*%
D11*
%TO.C,J2*%
X26610000Y-56395000D03*
X32390000Y-56395000D03*
D12*
X25180000Y-55895000D03*
X33820000Y-55895000D03*
D13*
X33820000Y-60075000D03*
X25180000Y-60075000D03*
%TD*%
D14*
%TO.C,J3*%
X18770000Y-59500000D03*
D15*
X16230000Y-59500000D03*
%TD*%
D16*
%TO.C,C33*%
X58567500Y-19000000D03*
X57432500Y-19000000D03*
%TD*%
%TO.C,C32*%
X55567500Y-19000000D03*
X54432500Y-19000000D03*
%TD*%
%TO.C,C312*%
X70567500Y-52000000D03*
X69432500Y-52000000D03*
%TD*%
%TO.C,C314*%
X76567500Y-52000000D03*
X75432500Y-52000000D03*
%TD*%
%TO.C,C82*%
X55567500Y-25000000D03*
X54432500Y-25000000D03*
%TD*%
%TO.C,C308*%
X58567500Y-52000000D03*
X57432500Y-52000000D03*
%TD*%
%TO.C,C109*%
X61567500Y-28000000D03*
X60432500Y-28000000D03*
%TD*%
%TO.C,C38*%
X73567500Y-19000000D03*
X72432500Y-19000000D03*
%TD*%
%TO.C,C256*%
X52567500Y-46000000D03*
X51432500Y-46000000D03*
%TD*%
%TO.C,C354*%
X46567500Y-58000000D03*
X45432500Y-58000000D03*
%TD*%
%TO.C,C322*%
X100567500Y-52000000D03*
X99432500Y-52000000D03*
%TD*%
%TO.C,C261*%
X67567500Y-46000000D03*
X66432500Y-46000000D03*
%TD*%
%TO.C,C162*%
X70567500Y-34000000D03*
X69432500Y-34000000D03*
%TD*%
%TO.C,C105*%
X49567500Y-28000000D03*
X48432500Y-28000000D03*
%TD*%
%TO.C,C176*%
X37567500Y-37000000D03*
X36432500Y-37000000D03*
%TD*%
%TO.C,C27*%
X40567500Y-19000000D03*
X39432500Y-19000000D03*
%TD*%
%TO.C,C51*%
X37567500Y-22000000D03*
X36432500Y-22000000D03*
%TD*%
%TO.C,C313*%
X73567500Y-52000000D03*
X72432500Y-52000000D03*
%TD*%
%TO.C,C235*%
X64567500Y-43000000D03*
X63432500Y-43000000D03*
%TD*%
%TO.C,C150*%
X109567500Y-31000000D03*
X108432500Y-31000000D03*
%TD*%
%TO.C,C274*%
X106567500Y-46000000D03*
X105432500Y-46000000D03*
%TD*%
%TO.C,C318*%
X88567500Y-52000000D03*
X87432500Y-52000000D03*
%TD*%
%TO.C,C132*%
X55567500Y-31000000D03*
X54432500Y-31000000D03*
%TD*%
%TO.C,C158*%
X58567500Y-34000000D03*
X57432500Y-34000000D03*
%TD*%
%TO.C,C77*%
X40567500Y-25000000D03*
X39432500Y-25000000D03*
%TD*%
%TO.C,C209*%
X61567500Y-40000000D03*
X60432500Y-40000000D03*
%TD*%
%TO.C,C304*%
X46567500Y-52000000D03*
X45432500Y-52000000D03*
%TD*%
%TO.C,C4*%
X46567500Y-16000000D03*
X45432500Y-16000000D03*
%TD*%
%TO.C,C46*%
X97567500Y-19000000D03*
X96432500Y-19000000D03*
%TD*%
%TO.C,C260*%
X64567500Y-46000000D03*
X63432500Y-46000000D03*
%TD*%
%TO.C,C231*%
X52567500Y-43000000D03*
X51432500Y-43000000D03*
%TD*%
%TO.C,C273*%
X103567500Y-46000000D03*
X102432500Y-46000000D03*
%TD*%
%TO.C,C206*%
X52567500Y-40000000D03*
X51432500Y-40000000D03*
%TD*%
%TO.C,C142*%
X85567500Y-31000000D03*
X84432500Y-31000000D03*
%TD*%
%TO.C,C123*%
X103567500Y-28000000D03*
X102432500Y-28000000D03*
%TD*%
%TO.C,C361*%
X67567500Y-58000000D03*
X66432500Y-58000000D03*
%TD*%
%TO.C,C349*%
X106567500Y-55000000D03*
X105432500Y-55000000D03*
%TD*%
%TO.C,C244*%
X91567500Y-43000000D03*
X90432500Y-43000000D03*
%TD*%
%TO.C,C351*%
X37567500Y-58000000D03*
X36432500Y-58000000D03*
%TD*%
%TO.C,C267*%
X85567500Y-46000000D03*
X84432500Y-46000000D03*
%TD*%
%TO.C,C341*%
X82567500Y-55000000D03*
X81432500Y-55000000D03*
%TD*%
%TO.C,C112*%
X70567500Y-28000000D03*
X69432500Y-28000000D03*
%TD*%
%TO.C,C355*%
X49567500Y-58000000D03*
X48432500Y-58000000D03*
%TD*%
%TO.C,C356*%
X52567500Y-58000000D03*
X51432500Y-58000000D03*
%TD*%
%TO.C,C43*%
X88567500Y-19000000D03*
X87432500Y-19000000D03*
%TD*%
%TO.C,C66*%
X82567500Y-22000000D03*
X81432500Y-22000000D03*
%TD*%
%TO.C,C288*%
X73567500Y-49000000D03*
X72432500Y-49000000D03*
%TD*%
%TO.C,C242*%
X85567500Y-43000000D03*
X84432500Y-43000000D03*
%TD*%
%TO.C,C113*%
X73567500Y-28000000D03*
X72432500Y-28000000D03*
%TD*%
%TO.C,C212*%
X70567500Y-40000000D03*
X69432500Y-40000000D03*
%TD*%
%TO.C,C16*%
X82567500Y-16000000D03*
X81432500Y-16000000D03*
%TD*%
%TO.C,C346*%
X97567500Y-55000000D03*
X96432500Y-55000000D03*
%TD*%
%TO.C,C172*%
X100567500Y-34000000D03*
X99432500Y-34000000D03*
%TD*%
%TO.C,C373*%
X103567500Y-58000000D03*
X102432500Y-58000000D03*
%TD*%
%TO.C,C337*%
X70567500Y-55000000D03*
X69432500Y-55000000D03*
%TD*%
%TO.C,C357*%
X55567500Y-58000000D03*
X54432500Y-58000000D03*
%TD*%
%TO.C,C52*%
X40567500Y-22000000D03*
X39432500Y-22000000D03*
%TD*%
%TO.C,C262*%
X70567500Y-46000000D03*
X69432500Y-46000000D03*
%TD*%
%TO.C,C173*%
X103567500Y-34000000D03*
X102432500Y-34000000D03*
%TD*%
%TO.C,C220*%
X94567500Y-40000000D03*
X93432500Y-40000000D03*
%TD*%
%TO.C,C136*%
X67567500Y-31000000D03*
X66432500Y-31000000D03*
%TD*%
D17*
%TO.C,Q2*%
X14050000Y-37562500D03*
X15950000Y-37562500D03*
X15000000Y-39437500D03*
%TD*%
D18*
%TO.C,C400*%
X13900000Y-33175000D03*
X13900000Y-30225000D03*
%TD*%
D16*
%TO.C,C40*%
X79567500Y-19000000D03*
X78432500Y-19000000D03*
%TD*%
%TO.C,C148*%
X103567500Y-31000000D03*
X102432500Y-31000000D03*
%TD*%
%TO.C,C54*%
X46567500Y-22000000D03*
X45432500Y-22000000D03*
%TD*%
%TO.C,C343*%
X88567500Y-55000000D03*
X87432500Y-55000000D03*
%TD*%
%TO.C,C297*%
X100567500Y-49000000D03*
X99432500Y-49000000D03*
%TD*%
%TO.C,C271*%
X97567500Y-46000000D03*
X96432500Y-46000000D03*
%TD*%
%TO.C,C281*%
X52567500Y-49000000D03*
X51432500Y-49000000D03*
%TD*%
%TO.C,C100*%
X109567500Y-25000000D03*
X108432500Y-25000000D03*
%TD*%
%TO.C,C348*%
X103567500Y-55000000D03*
X102432500Y-55000000D03*
%TD*%
%TO.C,C73*%
X103567500Y-22000000D03*
X102432500Y-22000000D03*
%TD*%
%TO.C,C189*%
X76567500Y-37000000D03*
X75432500Y-37000000D03*
%TD*%
%TO.C,C58*%
X58567500Y-22000000D03*
X57432500Y-22000000D03*
%TD*%
%TO.C,C339*%
X76567500Y-55000000D03*
X75432500Y-55000000D03*
%TD*%
%TO.C,C61*%
X67567500Y-22000000D03*
X66432500Y-22000000D03*
%TD*%
%TO.C,C3*%
X43567500Y-16000000D03*
X42432500Y-16000000D03*
%TD*%
%TO.C,C35*%
X64567500Y-19000000D03*
X63432500Y-19000000D03*
%TD*%
%TO.C,C350*%
X109567500Y-55000000D03*
X108432500Y-55000000D03*
%TD*%
%TO.C,C2*%
X40567500Y-16000000D03*
X39432500Y-16000000D03*
%TD*%
%TO.C,C143*%
X88567500Y-31000000D03*
X87432500Y-31000000D03*
%TD*%
%TO.C,C98*%
X103567500Y-25000000D03*
X102432500Y-25000000D03*
%TD*%
%TO.C,C146*%
X97567500Y-31000000D03*
X96432500Y-31000000D03*
%TD*%
%TO.C,C181*%
X52567500Y-37000000D03*
X51432500Y-37000000D03*
%TD*%
%TO.C,C275*%
X109567500Y-46000000D03*
X108432500Y-46000000D03*
%TD*%
%TO.C,C208*%
X58567500Y-40000000D03*
X57432500Y-40000000D03*
%TD*%
%TO.C,C266*%
X82567500Y-46000000D03*
X81432500Y-46000000D03*
%TD*%
%TO.C,C175*%
X109567500Y-34000000D03*
X108432500Y-34000000D03*
%TD*%
%TO.C,C195*%
X94567500Y-37000000D03*
X93432500Y-37000000D03*
%TD*%
%TO.C,C316*%
X82567500Y-52000000D03*
X81432500Y-52000000D03*
%TD*%
%TO.C,C12*%
X70567500Y-16000000D03*
X69432500Y-16000000D03*
%TD*%
%TO.C,C26*%
X37567500Y-19000000D03*
X36432500Y-19000000D03*
%TD*%
%TO.C,C31*%
X52567500Y-19000000D03*
X51432500Y-19000000D03*
%TD*%
%TO.C,C215*%
X79567500Y-40000000D03*
X78432500Y-40000000D03*
%TD*%
%TO.C,C34*%
X61567500Y-19000000D03*
X60432500Y-19000000D03*
%TD*%
%TO.C,C365*%
X79567500Y-58000000D03*
X78432500Y-58000000D03*
%TD*%
%TO.C,C305*%
X49567500Y-52000000D03*
X48432500Y-52000000D03*
%TD*%
%TO.C,C229*%
X46567500Y-43000000D03*
X45432500Y-43000000D03*
%TD*%
%TO.C,C366*%
X82567500Y-58000000D03*
X81432500Y-58000000D03*
%TD*%
%TO.C,C137*%
X70567500Y-31000000D03*
X69432500Y-31000000D03*
%TD*%
%TO.C,C94*%
X91567500Y-25000000D03*
X90432500Y-25000000D03*
%TD*%
%TO.C,C236*%
X67567500Y-43000000D03*
X66432500Y-43000000D03*
%TD*%
%TO.C,C319*%
X91567500Y-52000000D03*
X90432500Y-52000000D03*
%TD*%
%TO.C,C114*%
X76567500Y-28000000D03*
X75432500Y-28000000D03*
%TD*%
%TO.C,C194*%
X91567500Y-37000000D03*
X90432500Y-37000000D03*
%TD*%
%TO.C,C295*%
X94567500Y-49000000D03*
X93432500Y-49000000D03*
%TD*%
%TO.C,C126*%
X37567500Y-31000000D03*
X36432500Y-31000000D03*
%TD*%
%TO.C,C207*%
X55567500Y-40000000D03*
X54432500Y-40000000D03*
%TD*%
%TO.C,C317*%
X85567500Y-52000000D03*
X84432500Y-52000000D03*
%TD*%
%TO.C,C226*%
X37567500Y-43000000D03*
X36432500Y-43000000D03*
%TD*%
%TO.C,C165*%
X79567500Y-34000000D03*
X78432500Y-34000000D03*
%TD*%
%TO.C,C49*%
X106567500Y-19000000D03*
X105432500Y-19000000D03*
%TD*%
%TO.C,C42*%
X85567500Y-19000000D03*
X84432500Y-19000000D03*
%TD*%
%TO.C,C115*%
X79567500Y-28000000D03*
X78432500Y-28000000D03*
%TD*%
%TO.C,C128*%
X43567500Y-31000000D03*
X42432500Y-31000000D03*
%TD*%
%TO.C,C99*%
X106567500Y-25000000D03*
X105432500Y-25000000D03*
%TD*%
%TO.C,C291*%
X82567500Y-49000000D03*
X81432500Y-49000000D03*
%TD*%
%TO.C,C246*%
X97567500Y-43000000D03*
X96432500Y-43000000D03*
%TD*%
%TO.C,C311*%
X67567500Y-52000000D03*
X66432500Y-52000000D03*
%TD*%
%TO.C,C21*%
X97567500Y-16000000D03*
X96432500Y-16000000D03*
%TD*%
%TO.C,C270*%
X94567500Y-46000000D03*
X93432500Y-46000000D03*
%TD*%
%TO.C,C169*%
X91567500Y-34000000D03*
X90432500Y-34000000D03*
%TD*%
%TO.C,C306*%
X52567500Y-52000000D03*
X51432500Y-52000000D03*
%TD*%
%TO.C,C338*%
X73567500Y-55000000D03*
X72432500Y-55000000D03*
%TD*%
%TO.C,C76*%
X37567500Y-25000000D03*
X36432500Y-25000000D03*
%TD*%
%TO.C,C299*%
X106567500Y-49000000D03*
X105432500Y-49000000D03*
%TD*%
%TO.C,C138*%
X73567500Y-31000000D03*
X72432500Y-31000000D03*
%TD*%
%TO.C,C168*%
X88567500Y-34000000D03*
X87432500Y-34000000D03*
%TD*%
%TO.C,C210*%
X64567500Y-40000000D03*
X63432500Y-40000000D03*
%TD*%
%TO.C,C201*%
X37567500Y-40000000D03*
X36432500Y-40000000D03*
%TD*%
%TO.C,C180*%
X49567500Y-37000000D03*
X48432500Y-37000000D03*
%TD*%
%TO.C,C1*%
X37567500Y-16000000D03*
X36432500Y-16000000D03*
%TD*%
%TO.C,C309*%
X61567500Y-52000000D03*
X60432500Y-52000000D03*
%TD*%
%TO.C,C217*%
X85567500Y-40000000D03*
X84432500Y-40000000D03*
%TD*%
%TO.C,C106*%
X52567500Y-28000000D03*
X51432500Y-28000000D03*
%TD*%
%TO.C,C193*%
X88567500Y-37000000D03*
X87432500Y-37000000D03*
%TD*%
%TO.C,C221*%
X97567500Y-40000000D03*
X96432500Y-40000000D03*
%TD*%
%TO.C,C364*%
X76567500Y-58000000D03*
X75432500Y-58000000D03*
%TD*%
%TO.C,C368*%
X88567500Y-58000000D03*
X87432500Y-58000000D03*
%TD*%
%TO.C,C131*%
X52567500Y-31000000D03*
X51432500Y-31000000D03*
%TD*%
%TO.C,C240*%
X79567500Y-43000000D03*
X78432500Y-43000000D03*
%TD*%
D19*
%TO.C,C399*%
X13900000Y-25725000D03*
X13900000Y-28675000D03*
%TD*%
D16*
%TO.C,C154*%
X46567500Y-34000000D03*
X45432500Y-34000000D03*
%TD*%
%TO.C,C205*%
X49567500Y-40000000D03*
X48432500Y-40000000D03*
%TD*%
%TO.C,C84*%
X61567500Y-25000000D03*
X60432500Y-25000000D03*
%TD*%
%TO.C,C230*%
X49567500Y-43000000D03*
X48432500Y-43000000D03*
%TD*%
%TO.C,C360*%
X64567500Y-58000000D03*
X63432500Y-58000000D03*
%TD*%
%TO.C,C179*%
X46567500Y-37000000D03*
X45432500Y-37000000D03*
%TD*%
%TO.C,C39*%
X76567500Y-19000000D03*
X75432500Y-19000000D03*
%TD*%
%TO.C,C80*%
X49567500Y-25000000D03*
X48432500Y-25000000D03*
%TD*%
%TO.C,C332*%
X55567500Y-55000000D03*
X54432500Y-55000000D03*
%TD*%
%TO.C,C370*%
X94567500Y-58000000D03*
X93432500Y-58000000D03*
%TD*%
%TO.C,C68*%
X88567500Y-22000000D03*
X87432500Y-22000000D03*
%TD*%
%TO.C,C334*%
X61567500Y-55000000D03*
X60432500Y-55000000D03*
%TD*%
%TO.C,C90*%
X79567500Y-25000000D03*
X78432500Y-25000000D03*
%TD*%
%TO.C,C285*%
X64567500Y-49000000D03*
X63432500Y-49000000D03*
%TD*%
%TO.C,C324*%
X106567500Y-52000000D03*
X105432500Y-52000000D03*
%TD*%
%TO.C,C255*%
X49567500Y-46000000D03*
X48432500Y-46000000D03*
%TD*%
%TO.C,C294*%
X91567500Y-49000000D03*
X90432500Y-49000000D03*
%TD*%
%TO.C,C37*%
X70567500Y-19000000D03*
X69432500Y-19000000D03*
%TD*%
%TO.C,C86*%
X67567500Y-25000000D03*
X66432500Y-25000000D03*
%TD*%
%TO.C,C280*%
X49567500Y-49000000D03*
X48432500Y-49000000D03*
%TD*%
%TO.C,C11*%
X67567500Y-16000000D03*
X66432500Y-16000000D03*
%TD*%
%TO.C,C92*%
X85567500Y-25000000D03*
X84432500Y-25000000D03*
%TD*%
%TO.C,C374*%
X106567500Y-58000000D03*
X105432500Y-58000000D03*
%TD*%
%TO.C,C185*%
X64567500Y-37000000D03*
X63432500Y-37000000D03*
%TD*%
%TO.C,C258*%
X58567500Y-46000000D03*
X57432500Y-46000000D03*
%TD*%
%TO.C,C225*%
X109567500Y-40000000D03*
X108432500Y-40000000D03*
%TD*%
%TO.C,C248*%
X103567500Y-43000000D03*
X102432500Y-43000000D03*
%TD*%
%TO.C,C170*%
X94567500Y-34000000D03*
X93432500Y-34000000D03*
%TD*%
%TO.C,C20*%
X94567500Y-16000000D03*
X93432500Y-16000000D03*
%TD*%
%TO.C,C269*%
X91567500Y-46000000D03*
X90432500Y-46000000D03*
%TD*%
%TO.C,C177*%
X40567500Y-37000000D03*
X39432500Y-37000000D03*
%TD*%
%TO.C,C249*%
X106567500Y-43000000D03*
X105432500Y-43000000D03*
%TD*%
%TO.C,C87*%
X70567500Y-25000000D03*
X69432500Y-25000000D03*
%TD*%
%TO.C,C284*%
X61567500Y-49000000D03*
X60432500Y-49000000D03*
%TD*%
%TO.C,C83*%
X58567500Y-25000000D03*
X57432500Y-25000000D03*
%TD*%
%TO.C,C129*%
X46567500Y-31000000D03*
X45432500Y-31000000D03*
%TD*%
%TO.C,C289*%
X76567500Y-49000000D03*
X75432500Y-49000000D03*
%TD*%
D20*
%TO.C,L1*%
X19200000Y-34221000D03*
X19200000Y-28379000D03*
%TD*%
D16*
%TO.C,C300*%
X109567500Y-49000000D03*
X108432500Y-49000000D03*
%TD*%
%TO.C,C330*%
X49567500Y-55000000D03*
X48432500Y-55000000D03*
%TD*%
%TO.C,C293*%
X88567500Y-49000000D03*
X87432500Y-49000000D03*
%TD*%
%TO.C,C96*%
X97567500Y-25000000D03*
X96432500Y-25000000D03*
%TD*%
%TO.C,C239*%
X76567500Y-43000000D03*
X75432500Y-43000000D03*
%TD*%
%TO.C,C224*%
X106567500Y-40000000D03*
X105432500Y-40000000D03*
%TD*%
D21*
%TO.C,C402*%
X23400000Y-55450000D03*
X23400000Y-53550000D03*
%TD*%
D16*
%TO.C,C9*%
X61567500Y-16000000D03*
X60432500Y-16000000D03*
%TD*%
%TO.C,C197*%
X100567500Y-37000000D03*
X99432500Y-37000000D03*
%TD*%
%TO.C,C328*%
X43567500Y-55000000D03*
X42432500Y-55000000D03*
%TD*%
%TO.C,C110*%
X64567500Y-28000000D03*
X63432500Y-28000000D03*
%TD*%
%TO.C,C144*%
X91567500Y-31000000D03*
X90432500Y-31000000D03*
%TD*%
%TO.C,C95*%
X94567500Y-25000000D03*
X93432500Y-25000000D03*
%TD*%
%TO.C,C301*%
X37567500Y-52000000D03*
X36432500Y-52000000D03*
%TD*%
%TO.C,C141*%
X82567500Y-31000000D03*
X81432500Y-31000000D03*
%TD*%
%TO.C,C196*%
X97567500Y-37000000D03*
X96432500Y-37000000D03*
%TD*%
%TO.C,C60*%
X64567500Y-22000000D03*
X63432500Y-22000000D03*
%TD*%
%TO.C,C227*%
X40567500Y-43000000D03*
X39432500Y-43000000D03*
%TD*%
%TO.C,C296*%
X97567500Y-49000000D03*
X96432500Y-49000000D03*
%TD*%
%TO.C,C243*%
X88567500Y-43000000D03*
X87432500Y-43000000D03*
%TD*%
%TO.C,C153*%
X43567500Y-34000000D03*
X42432500Y-34000000D03*
%TD*%
%TO.C,C335*%
X64567500Y-55000000D03*
X63432500Y-55000000D03*
%TD*%
%TO.C,C268*%
X88567500Y-46000000D03*
X87432500Y-46000000D03*
%TD*%
%TO.C,C67*%
X85567500Y-22000000D03*
X84432500Y-22000000D03*
%TD*%
%TO.C,C187*%
X70567500Y-37000000D03*
X69432500Y-37000000D03*
%TD*%
%TO.C,C65*%
X79567500Y-22000000D03*
X78432500Y-22000000D03*
%TD*%
D22*
%TO.C,U5*%
X23875000Y-36395000D03*
X23875000Y-37665000D03*
X23875000Y-38935000D03*
X23875000Y-40205000D03*
X18925000Y-40205000D03*
X18925000Y-38935000D03*
X18925000Y-37665000D03*
X18925000Y-36395000D03*
D23*
X21400000Y-38300000D03*
%TD*%
D16*
%TO.C,C340*%
X79567500Y-55000000D03*
X78432500Y-55000000D03*
%TD*%
%TO.C,C93*%
X88567500Y-25000000D03*
X87432500Y-25000000D03*
%TD*%
%TO.C,C199*%
X106567500Y-37000000D03*
X105432500Y-37000000D03*
%TD*%
%TO.C,C252*%
X40567500Y-46000000D03*
X39432500Y-46000000D03*
%TD*%
%TO.C,C125*%
X109567500Y-28000000D03*
X108432500Y-28000000D03*
%TD*%
%TO.C,C163*%
X73567500Y-34000000D03*
X72432500Y-34000000D03*
%TD*%
%TO.C,C241*%
X82567500Y-43000000D03*
X81432500Y-43000000D03*
%TD*%
%TO.C,C315*%
X79567500Y-52000000D03*
X78432500Y-52000000D03*
%TD*%
%TO.C,C8*%
X58567500Y-16000000D03*
X57432500Y-16000000D03*
%TD*%
%TO.C,C247*%
X100567500Y-43000000D03*
X99432500Y-43000000D03*
%TD*%
%TO.C,C171*%
X97567500Y-34000000D03*
X96432500Y-34000000D03*
%TD*%
%TO.C,C97*%
X100567500Y-25000000D03*
X99432500Y-25000000D03*
%TD*%
%TO.C,C57*%
X55567500Y-22000000D03*
X54432500Y-22000000D03*
%TD*%
%TO.C,C219*%
X91567500Y-40000000D03*
X90432500Y-40000000D03*
%TD*%
%TO.C,C10*%
X64567500Y-16000000D03*
X63432500Y-16000000D03*
%TD*%
%TO.C,C192*%
X85567500Y-37000000D03*
X84432500Y-37000000D03*
%TD*%
%TO.C,C237*%
X70567500Y-43000000D03*
X69432500Y-43000000D03*
%TD*%
%TO.C,C120*%
X94567500Y-28000000D03*
X93432500Y-28000000D03*
%TD*%
%TO.C,C22*%
X100567500Y-16000000D03*
X99432500Y-16000000D03*
%TD*%
%TO.C,C147*%
X100567500Y-31000000D03*
X99432500Y-31000000D03*
%TD*%
%TO.C,C160*%
X64567500Y-34000000D03*
X63432500Y-34000000D03*
%TD*%
%TO.C,C362*%
X70567500Y-58000000D03*
X69432500Y-58000000D03*
%TD*%
%TO.C,C303*%
X43567500Y-52000000D03*
X42432500Y-52000000D03*
%TD*%
%TO.C,C336*%
X67567500Y-55000000D03*
X66432500Y-55000000D03*
%TD*%
%TO.C,C329*%
X46567500Y-55000000D03*
X45432500Y-55000000D03*
%TD*%
%TO.C,C191*%
X82567500Y-37000000D03*
X81432500Y-37000000D03*
%TD*%
%TO.C,C104*%
X46567500Y-28000000D03*
X45432500Y-28000000D03*
%TD*%
%TO.C,C228*%
X43567500Y-43000000D03*
X42432500Y-43000000D03*
%TD*%
%TO.C,C184*%
X61567500Y-37000000D03*
X60432500Y-37000000D03*
%TD*%
%TO.C,C69*%
X91567500Y-22000000D03*
X90432500Y-22000000D03*
%TD*%
%TO.C,C372*%
X100567500Y-58000000D03*
X99432500Y-58000000D03*
%TD*%
%TO.C,C85*%
X64567500Y-25000000D03*
X63432500Y-25000000D03*
%TD*%
%TO.C,C70*%
X94567500Y-22000000D03*
X93432500Y-22000000D03*
%TD*%
%TO.C,C74*%
X106567500Y-22000000D03*
X105432500Y-22000000D03*
%TD*%
%TO.C,C278*%
X43567500Y-49000000D03*
X42432500Y-49000000D03*
%TD*%
%TO.C,C50*%
X109567500Y-19000000D03*
X108432500Y-19000000D03*
%TD*%
%TO.C,C78*%
X43567500Y-25000000D03*
X42432500Y-25000000D03*
%TD*%
%TO.C,C164*%
X76567500Y-34000000D03*
X75432500Y-34000000D03*
%TD*%
%TO.C,C108*%
X58567500Y-28000000D03*
X57432500Y-28000000D03*
%TD*%
%TO.C,C375*%
X109567500Y-58000000D03*
X108432500Y-58000000D03*
%TD*%
%TO.C,C151*%
X37567500Y-34000000D03*
X36432500Y-34000000D03*
%TD*%
%TO.C,C325*%
X109567500Y-52000000D03*
X108432500Y-52000000D03*
%TD*%
%TO.C,C64*%
X76567500Y-22000000D03*
X75432500Y-22000000D03*
%TD*%
%TO.C,C88*%
X73567500Y-25000000D03*
X72432500Y-25000000D03*
%TD*%
%TO.C,C121*%
X97567500Y-28000000D03*
X96432500Y-28000000D03*
%TD*%
%TO.C,C19*%
X91567500Y-16000000D03*
X90432500Y-16000000D03*
%TD*%
%TO.C,C63*%
X73567500Y-22000000D03*
X72432500Y-22000000D03*
%TD*%
%TO.C,C222*%
X100567500Y-40000000D03*
X99432500Y-40000000D03*
%TD*%
%TO.C,C178*%
X43567500Y-37000000D03*
X42432500Y-37000000D03*
%TD*%
%TO.C,C345*%
X94567500Y-55000000D03*
X93432500Y-55000000D03*
%TD*%
%TO.C,C251*%
X37567500Y-46000000D03*
X36432500Y-46000000D03*
%TD*%
%TO.C,C30*%
X49567500Y-19000000D03*
X48432500Y-19000000D03*
%TD*%
%TO.C,C282*%
X55567500Y-49000000D03*
X54432500Y-49000000D03*
%TD*%
%TO.C,C71*%
X97567500Y-22000000D03*
X96432500Y-22000000D03*
%TD*%
%TO.C,C133*%
X58567500Y-31000000D03*
X57432500Y-31000000D03*
%TD*%
%TO.C,C182*%
X55567500Y-37000000D03*
X54432500Y-37000000D03*
%TD*%
%TO.C,C292*%
X85567500Y-49000000D03*
X84432500Y-49000000D03*
%TD*%
%TO.C,C320*%
X94567500Y-52000000D03*
X93432500Y-52000000D03*
%TD*%
%TO.C,C102*%
X40567500Y-28000000D03*
X39432500Y-28000000D03*
%TD*%
%TO.C,C139*%
X76567500Y-31000000D03*
X75432500Y-31000000D03*
%TD*%
%TO.C,C174*%
X106567500Y-34000000D03*
X105432500Y-34000000D03*
%TD*%
%TO.C,C36*%
X67567500Y-19000000D03*
X66432500Y-19000000D03*
%TD*%
%TO.C,C259*%
X61567500Y-46000000D03*
X60432500Y-46000000D03*
%TD*%
%TO.C,C214*%
X76567500Y-40000000D03*
X75432500Y-40000000D03*
%TD*%
%TO.C,C204*%
X46567500Y-40000000D03*
X45432500Y-40000000D03*
%TD*%
%TO.C,C326*%
X37567500Y-55000000D03*
X36432500Y-55000000D03*
%TD*%
%TO.C,C53*%
X43567500Y-22000000D03*
X42432500Y-22000000D03*
%TD*%
%TO.C,C166*%
X82567500Y-34000000D03*
X81432500Y-34000000D03*
%TD*%
%TO.C,C29*%
X46567500Y-19000000D03*
X45432500Y-19000000D03*
%TD*%
%TO.C,C359*%
X61567500Y-58000000D03*
X60432500Y-58000000D03*
%TD*%
%TO.C,C101*%
X37567500Y-28000000D03*
X36432500Y-28000000D03*
%TD*%
%TO.C,C272*%
X100567500Y-46000000D03*
X99432500Y-46000000D03*
%TD*%
%TO.C,C250*%
X109567500Y-43000000D03*
X108432500Y-43000000D03*
%TD*%
%TO.C,C310*%
X64567500Y-52000000D03*
X63432500Y-52000000D03*
%TD*%
%TO.C,C253*%
X43567500Y-46000000D03*
X42432500Y-46000000D03*
%TD*%
%TO.C,C79*%
X46567500Y-25000000D03*
X45432500Y-25000000D03*
%TD*%
%TO.C,C155*%
X49567500Y-34000000D03*
X48432500Y-34000000D03*
%TD*%
%TO.C,C353*%
X43567500Y-58000000D03*
X42432500Y-58000000D03*
%TD*%
%TO.C,C6*%
X52567500Y-16000000D03*
X51432500Y-16000000D03*
%TD*%
%TO.C,C287*%
X70567500Y-49000000D03*
X69432500Y-49000000D03*
%TD*%
%TO.C,C135*%
X64567500Y-31000000D03*
X63432500Y-31000000D03*
%TD*%
%TO.C,C202*%
X40567500Y-40000000D03*
X39432500Y-40000000D03*
%TD*%
%TO.C,C161*%
X67567500Y-34000000D03*
X66432500Y-34000000D03*
%TD*%
D24*
%TO.C,J1*%
X31540000Y-14200000D03*
X31540000Y-17800000D03*
X30270000Y-14200000D03*
X30270000Y-17800000D03*
X29000000Y-14200000D03*
X29000000Y-17800000D03*
X27730000Y-14200000D03*
X27730000Y-17800000D03*
X26460000Y-14200000D03*
X26460000Y-17800000D03*
%TD*%
D16*
%TO.C,C198*%
X103567500Y-37000000D03*
X102432500Y-37000000D03*
%TD*%
%TO.C,C44*%
X91567500Y-19000000D03*
X90432500Y-19000000D03*
%TD*%
D25*
%TO.C,U4*%
X30195000Y-41200000D03*
X31465000Y-41200000D03*
X32735000Y-41200000D03*
X34005000Y-41200000D03*
X34005000Y-48400000D03*
X32735000Y-48400000D03*
X31465000Y-48400000D03*
X30195000Y-48400000D03*
%TD*%
D26*
%TO.C,L2*%
X14992500Y-47000000D03*
X24007500Y-47000000D03*
%TD*%
D16*
%TO.C,C327*%
X40567500Y-55000000D03*
X39432500Y-55000000D03*
%TD*%
%TO.C,C352*%
X40567500Y-58000000D03*
X39432500Y-58000000D03*
%TD*%
%TO.C,C233*%
X58567500Y-43000000D03*
X57432500Y-43000000D03*
%TD*%
%TO.C,C24*%
X106567500Y-16000000D03*
X105432500Y-16000000D03*
%TD*%
%TO.C,C213*%
X73567500Y-40000000D03*
X72432500Y-40000000D03*
%TD*%
%TO.C,C122*%
X100567500Y-28000000D03*
X99432500Y-28000000D03*
%TD*%
D27*
%TO.C,C403*%
X28350000Y-50600000D03*
X26450000Y-50600000D03*
%TD*%
D16*
%TO.C,C203*%
X43567500Y-40000000D03*
X42432500Y-40000000D03*
%TD*%
%TO.C,C190*%
X79567500Y-37000000D03*
X78432500Y-37000000D03*
%TD*%
%TO.C,C369*%
X91567500Y-58000000D03*
X90432500Y-58000000D03*
%TD*%
%TO.C,C342*%
X85567500Y-55000000D03*
X84432500Y-55000000D03*
%TD*%
%TO.C,C263*%
X73567500Y-46000000D03*
X72432500Y-46000000D03*
%TD*%
%TO.C,C152*%
X40567500Y-34000000D03*
X39432500Y-34000000D03*
%TD*%
%TO.C,C56*%
X52567500Y-22000000D03*
X51432500Y-22000000D03*
%TD*%
%TO.C,C216*%
X82567500Y-40000000D03*
X81432500Y-40000000D03*
%TD*%
%TO.C,C186*%
X67567500Y-37000000D03*
X66432500Y-37000000D03*
%TD*%
%TO.C,C157*%
X55567500Y-34000000D03*
X54432500Y-34000000D03*
%TD*%
%TO.C,C290*%
X79567500Y-49000000D03*
X78432500Y-49000000D03*
%TD*%
%TO.C,C286*%
X67567500Y-49000000D03*
X66432500Y-49000000D03*
%TD*%
%TO.C,C367*%
X85567500Y-58000000D03*
X84432500Y-58000000D03*
%TD*%
%TO.C,C81*%
X52567500Y-25000000D03*
X51432500Y-25000000D03*
%TD*%
%TO.C,C254*%
X46567500Y-46000000D03*
X45432500Y-46000000D03*
%TD*%
%TO.C,C25*%
X109567500Y-16000000D03*
X108432500Y-16000000D03*
%TD*%
%TO.C,C283*%
X58567500Y-49000000D03*
X57432500Y-49000000D03*
%TD*%
%TO.C,C307*%
X55567500Y-52000000D03*
X54432500Y-52000000D03*
%TD*%
%TO.C,C333*%
X58567500Y-55000000D03*
X57432500Y-55000000D03*
%TD*%
%TO.C,C200*%
X109567500Y-37000000D03*
X108432500Y-37000000D03*
%TD*%
%TO.C,C117*%
X85567500Y-28000000D03*
X84432500Y-28000000D03*
%TD*%
%TO.C,C149*%
X106567500Y-31000000D03*
X105432500Y-31000000D03*
%TD*%
%TO.C,C363*%
X73567500Y-58000000D03*
X72432500Y-58000000D03*
%TD*%
%TO.C,C183*%
X58567500Y-37000000D03*
X57432500Y-37000000D03*
%TD*%
%TO.C,C358*%
X58567500Y-58000000D03*
X57432500Y-58000000D03*
%TD*%
%TO.C,C89*%
X76567500Y-25000000D03*
X75432500Y-25000000D03*
%TD*%
%TO.C,C14*%
X76567500Y-16000000D03*
X75432500Y-16000000D03*
%TD*%
%TO.C,C118*%
X88567500Y-28000000D03*
X87432500Y-28000000D03*
%TD*%
%TO.C,C103*%
X43567500Y-28000000D03*
X42432500Y-28000000D03*
%TD*%
%TO.C,C264*%
X76567500Y-46000000D03*
X75432500Y-46000000D03*
%TD*%
%TO.C,C245*%
X94567500Y-43000000D03*
X93432500Y-43000000D03*
%TD*%
%TO.C,C119*%
X91567500Y-28000000D03*
X90432500Y-28000000D03*
%TD*%
%TO.C,C347*%
X100567500Y-55000000D03*
X99432500Y-55000000D03*
%TD*%
%TO.C,C321*%
X97567500Y-52000000D03*
X96432500Y-52000000D03*
%TD*%
%TO.C,C234*%
X61567500Y-43000000D03*
X60432500Y-43000000D03*
%TD*%
%TO.C,C323*%
X103567500Y-52000000D03*
X102432500Y-52000000D03*
%TD*%
%TO.C,C159*%
X61567500Y-34000000D03*
X60432500Y-34000000D03*
%TD*%
%TO.C,C156*%
X52567500Y-34000000D03*
X51432500Y-34000000D03*
%TD*%
%TO.C,C238*%
X73567500Y-43000000D03*
X72432500Y-43000000D03*
%TD*%
%TO.C,C188*%
X73567500Y-37000000D03*
X72432500Y-37000000D03*
%TD*%
%TO.C,C145*%
X94567500Y-31000000D03*
X93432500Y-31000000D03*
%TD*%
%TO.C,C47*%
X100567500Y-19000000D03*
X99432500Y-19000000D03*
%TD*%
%TO.C,C223*%
X103567500Y-40000000D03*
X102432500Y-40000000D03*
%TD*%
%TO.C,C111*%
X67567500Y-28000000D03*
X66432500Y-28000000D03*
%TD*%
%TO.C,C13*%
X73567500Y-16000000D03*
X72432500Y-16000000D03*
%TD*%
%TO.C,C7*%
X55567500Y-16000000D03*
X54432500Y-16000000D03*
%TD*%
%TO.C,C18*%
X88567500Y-16000000D03*
X87432500Y-16000000D03*
%TD*%
%TO.C,C41*%
X82567500Y-19000000D03*
X81432500Y-19000000D03*
%TD*%
%TO.C,C298*%
X103567500Y-49000000D03*
X102432500Y-49000000D03*
%TD*%
%TO.C,C124*%
X106567500Y-28000000D03*
X105432500Y-28000000D03*
%TD*%
%TO.C,C23*%
X103567500Y-16000000D03*
X102432500Y-16000000D03*
%TD*%
%TO.C,C5*%
X49567500Y-16000000D03*
X48432500Y-16000000D03*
%TD*%
%TO.C,C107*%
X55567500Y-28000000D03*
X54432500Y-28000000D03*
%TD*%
%TO.C,C59*%
X61567500Y-22000000D03*
X60432500Y-22000000D03*
%TD*%
%TO.C,C45*%
X94567500Y-19000000D03*
X93432500Y-19000000D03*
%TD*%
%TO.C,C211*%
X67567500Y-40000000D03*
X66432500Y-40000000D03*
%TD*%
%TO.C,C28*%
X43567500Y-19000000D03*
X42432500Y-19000000D03*
%TD*%
%TO.C,C127*%
X40567500Y-31000000D03*
X39432500Y-31000000D03*
%TD*%
%TO.C,C277*%
X40567500Y-49000000D03*
X39432500Y-49000000D03*
%TD*%
%TO.C,C91*%
X82567500Y-25000000D03*
X81432500Y-25000000D03*
%TD*%
%TO.C,C371*%
X97567500Y-58000000D03*
X96432500Y-58000000D03*
%TD*%
%TO.C,C72*%
X100567500Y-22000000D03*
X99432500Y-22000000D03*
%TD*%
%TO.C,C257*%
X55567500Y-46000000D03*
X54432500Y-46000000D03*
%TD*%
%TO.C,C15*%
X79567500Y-16000000D03*
X78432500Y-16000000D03*
%TD*%
%TO.C,C116*%
X82567500Y-28000000D03*
X81432500Y-28000000D03*
%TD*%
%TO.C,C344*%
X91567500Y-55000000D03*
X90432500Y-55000000D03*
%TD*%
%TO.C,C75*%
X109567500Y-22000000D03*
X108432500Y-22000000D03*
%TD*%
%TO.C,C62*%
X70567500Y-22000000D03*
X69432500Y-22000000D03*
%TD*%
%TO.C,C232*%
X55567500Y-43000000D03*
X54432500Y-43000000D03*
%TD*%
%TO.C,C167*%
X85567500Y-34000000D03*
X84432500Y-34000000D03*
%TD*%
%TO.C,C134*%
X61567500Y-31000000D03*
X60432500Y-31000000D03*
%TD*%
%TO.C,C302*%
X40567500Y-52000000D03*
X39432500Y-52000000D03*
%TD*%
%TO.C,C265*%
X79567500Y-46000000D03*
X78432500Y-46000000D03*
%TD*%
%TO.C,C276*%
X37567500Y-49000000D03*
X36432500Y-49000000D03*
%TD*%
%TO.C,C55*%
X49567500Y-22000000D03*
X48432500Y-22000000D03*
%TD*%
%TO.C,C331*%
X52567500Y-55000000D03*
X51432500Y-55000000D03*
%TD*%
%TO.C,C17*%
X85567500Y-16000000D03*
X84432500Y-16000000D03*
%TD*%
%TO.C,C48*%
X103567500Y-19000000D03*
X102432500Y-19000000D03*
%TD*%
%TO.C,C218*%
X88567500Y-40000000D03*
X87432500Y-40000000D03*
%TD*%
%TO.C,C279*%
X46567500Y-49000000D03*
X45432500Y-49000000D03*
%TD*%
%TO.C,C140*%
X79567500Y-31000000D03*
X78432500Y-31000000D03*
%TD*%
%TO.C,C130*%
X49567500Y-31000000D03*
X48432500Y-31000000D03*
%TD*%
M02*
